G04 #@! TF.GenerationSoftware,KiCad,Pcbnew,5.1.4-e60b266~84~ubuntu18.04.1*
G04 #@! TF.CreationDate,2019-09-29T22:34:52+02:00*
G04 #@! TF.ProjectId,Circuit,43697263-7569-4742-9e6b-696361645f70,rev?*
G04 #@! TF.SameCoordinates,Original*
G04 #@! TF.FileFunction,Copper,L1,Top*
G04 #@! TF.FilePolarity,Positive*
%FSLAX46Y46*%
G04 Gerber Fmt 4.6, Leading zero omitted, Abs format (unit mm)*
G04 Created by KiCad (PCBNEW 5.1.4-e60b266~84~ubuntu18.04.1) date 2019-09-29 22:34:52*
%MOMM*%
%LPD*%
G04 APERTURE LIST*
G04 #@! TA.AperFunction,ComponentPad*
%ADD10O,1.700000X1.700000*%
G04 #@! TD*
G04 #@! TA.AperFunction,ComponentPad*
%ADD11R,1.700000X1.700000*%
G04 #@! TD*
G04 #@! TA.AperFunction,ComponentPad*
%ADD12C,2.010000*%
G04 #@! TD*
G04 #@! TA.AperFunction,Conductor*
%ADD13C,0.150000*%
G04 #@! TD*
G04 #@! TA.AperFunction,SMDPad,CuDef*
%ADD14C,1.125000*%
G04 #@! TD*
G04 #@! TA.AperFunction,SMDPad,CuDef*
%ADD15C,0.975000*%
G04 #@! TD*
G04 #@! TA.AperFunction,SMDPad,CuDef*
%ADD16C,1.150000*%
G04 #@! TD*
G04 #@! TA.AperFunction,ComponentPad*
%ADD17R,2.000000X2.000000*%
G04 #@! TD*
G04 #@! TA.AperFunction,ComponentPad*
%ADD18C,2.000000*%
G04 #@! TD*
G04 #@! TA.AperFunction,ComponentPad*
%ADD19C,3.300000*%
G04 #@! TD*
G04 #@! TA.AperFunction,ComponentPad*
%ADD20C,1.900000*%
G04 #@! TD*
G04 #@! TA.AperFunction,ComponentPad*
%ADD21O,2.000000X2.000000*%
G04 #@! TD*
G04 #@! TA.AperFunction,SMDPad,CuDef*
%ADD22R,0.600000X1.300000*%
G04 #@! TD*
G04 #@! TA.AperFunction,ComponentPad*
%ADD23R,1.000000X1.000000*%
G04 #@! TD*
G04 #@! TA.AperFunction,ComponentPad*
%ADD24C,1.200000*%
G04 #@! TD*
G04 #@! TA.AperFunction,ComponentPad*
%ADD25R,1.600000X1.600000*%
G04 #@! TD*
G04 #@! TA.AperFunction,ComponentPad*
%ADD26C,1.600000*%
G04 #@! TD*
G04 #@! TA.AperFunction,ViaPad*
%ADD27C,0.800000*%
G04 #@! TD*
G04 #@! TA.AperFunction,Conductor*
%ADD28C,0.250000*%
G04 #@! TD*
G04 #@! TA.AperFunction,Conductor*
%ADD29C,0.500000*%
G04 #@! TD*
G04 APERTURE END LIST*
D10*
G04 #@! TO.P,J7,2*
G04 #@! TO.N,Net-(C1-Pad1)*
X89662000Y-86614000D03*
D11*
G04 #@! TO.P,J7,1*
X87122000Y-86614000D03*
G04 #@! TD*
D12*
G04 #@! TO.P,F1,2*
G04 #@! TO.N,Net-(C1-Pad1)*
X76270000Y-109240000D03*
G04 #@! TO.P,F1,1*
G04 #@! TO.N,+12V*
X77470000Y-104140000D03*
G04 #@! TD*
D10*
G04 #@! TO.P,J5,2*
G04 #@! TO.N,Net-(J1-Pad1)*
X149606000Y-119126000D03*
D11*
G04 #@! TO.P,J5,1*
X147066000Y-119126000D03*
G04 #@! TD*
D10*
G04 #@! TO.P,J6,2*
G04 #@! TO.N,GND*
X123444000Y-86360000D03*
D11*
G04 #@! TO.P,J6,1*
X120904000Y-86360000D03*
G04 #@! TD*
D10*
G04 #@! TO.P,J4,2*
G04 #@! TO.N,/D-*
X158242000Y-101346000D03*
D11*
G04 #@! TO.P,J4,1*
G04 #@! TO.N,/D+*
X158242000Y-103886000D03*
G04 #@! TD*
D10*
G04 #@! TO.P,J3,2*
G04 #@! TO.N,+5V*
X118364000Y-119126000D03*
D11*
G04 #@! TO.P,J3,1*
X120904000Y-119126000D03*
G04 #@! TD*
D10*
G04 #@! TO.P,J2,2*
G04 #@! TO.N,+12V*
X76962000Y-99314000D03*
D11*
G04 #@! TO.P,J2,1*
X76962000Y-96774000D03*
G04 #@! TD*
D13*
G04 #@! TO.N,GND*
G04 #@! TO.C,C8*
G36*
X122378505Y-107748204D02*
G01*
X122402773Y-107751804D01*
X122426572Y-107757765D01*
X122449671Y-107766030D01*
X122471850Y-107776520D01*
X122492893Y-107789132D01*
X122512599Y-107803747D01*
X122530777Y-107820223D01*
X122547253Y-107838401D01*
X122561868Y-107858107D01*
X122574480Y-107879150D01*
X122584970Y-107901329D01*
X122593235Y-107924428D01*
X122599196Y-107948227D01*
X122602796Y-107972495D01*
X122604000Y-107996999D01*
X122604000Y-108622001D01*
X122602796Y-108646505D01*
X122599196Y-108670773D01*
X122593235Y-108694572D01*
X122584970Y-108717671D01*
X122574480Y-108739850D01*
X122561868Y-108760893D01*
X122547253Y-108780599D01*
X122530777Y-108798777D01*
X122512599Y-108815253D01*
X122492893Y-108829868D01*
X122471850Y-108842480D01*
X122449671Y-108852970D01*
X122426572Y-108861235D01*
X122402773Y-108867196D01*
X122378505Y-108870796D01*
X122354001Y-108872000D01*
X119453999Y-108872000D01*
X119429495Y-108870796D01*
X119405227Y-108867196D01*
X119381428Y-108861235D01*
X119358329Y-108852970D01*
X119336150Y-108842480D01*
X119315107Y-108829868D01*
X119295401Y-108815253D01*
X119277223Y-108798777D01*
X119260747Y-108780599D01*
X119246132Y-108760893D01*
X119233520Y-108739850D01*
X119223030Y-108717671D01*
X119214765Y-108694572D01*
X119208804Y-108670773D01*
X119205204Y-108646505D01*
X119204000Y-108622001D01*
X119204000Y-107996999D01*
X119205204Y-107972495D01*
X119208804Y-107948227D01*
X119214765Y-107924428D01*
X119223030Y-107901329D01*
X119233520Y-107879150D01*
X119246132Y-107858107D01*
X119260747Y-107838401D01*
X119277223Y-107820223D01*
X119295401Y-107803747D01*
X119315107Y-107789132D01*
X119336150Y-107776520D01*
X119358329Y-107766030D01*
X119381428Y-107757765D01*
X119405227Y-107751804D01*
X119429495Y-107748204D01*
X119453999Y-107747000D01*
X122354001Y-107747000D01*
X122378505Y-107748204D01*
X122378505Y-107748204D01*
G37*
D14*
G04 #@! TD*
G04 #@! TO.P,C8,2*
G04 #@! TO.N,GND*
X120904000Y-108309500D03*
D13*
G04 #@! TO.N,+5V*
G04 #@! TO.C,C8*
G36*
X122378505Y-103473204D02*
G01*
X122402773Y-103476804D01*
X122426572Y-103482765D01*
X122449671Y-103491030D01*
X122471850Y-103501520D01*
X122492893Y-103514132D01*
X122512599Y-103528747D01*
X122530777Y-103545223D01*
X122547253Y-103563401D01*
X122561868Y-103583107D01*
X122574480Y-103604150D01*
X122584970Y-103626329D01*
X122593235Y-103649428D01*
X122599196Y-103673227D01*
X122602796Y-103697495D01*
X122604000Y-103721999D01*
X122604000Y-104347001D01*
X122602796Y-104371505D01*
X122599196Y-104395773D01*
X122593235Y-104419572D01*
X122584970Y-104442671D01*
X122574480Y-104464850D01*
X122561868Y-104485893D01*
X122547253Y-104505599D01*
X122530777Y-104523777D01*
X122512599Y-104540253D01*
X122492893Y-104554868D01*
X122471850Y-104567480D01*
X122449671Y-104577970D01*
X122426572Y-104586235D01*
X122402773Y-104592196D01*
X122378505Y-104595796D01*
X122354001Y-104597000D01*
X119453999Y-104597000D01*
X119429495Y-104595796D01*
X119405227Y-104592196D01*
X119381428Y-104586235D01*
X119358329Y-104577970D01*
X119336150Y-104567480D01*
X119315107Y-104554868D01*
X119295401Y-104540253D01*
X119277223Y-104523777D01*
X119260747Y-104505599D01*
X119246132Y-104485893D01*
X119233520Y-104464850D01*
X119223030Y-104442671D01*
X119214765Y-104419572D01*
X119208804Y-104395773D01*
X119205204Y-104371505D01*
X119204000Y-104347001D01*
X119204000Y-103721999D01*
X119205204Y-103697495D01*
X119208804Y-103673227D01*
X119214765Y-103649428D01*
X119223030Y-103626329D01*
X119233520Y-103604150D01*
X119246132Y-103583107D01*
X119260747Y-103563401D01*
X119277223Y-103545223D01*
X119295401Y-103528747D01*
X119315107Y-103514132D01*
X119336150Y-103501520D01*
X119358329Y-103491030D01*
X119381428Y-103482765D01*
X119405227Y-103476804D01*
X119429495Y-103473204D01*
X119453999Y-103472000D01*
X122354001Y-103472000D01*
X122378505Y-103473204D01*
X122378505Y-103473204D01*
G37*
D14*
G04 #@! TD*
G04 #@! TO.P,C8,1*
G04 #@! TO.N,+5V*
X120904000Y-104034500D03*
D13*
G04 #@! TO.N,GND*
G04 #@! TO.C,C7*
G36*
X89634142Y-112530174D02*
G01*
X89657803Y-112533684D01*
X89681007Y-112539496D01*
X89703529Y-112547554D01*
X89725153Y-112557782D01*
X89745670Y-112570079D01*
X89764883Y-112584329D01*
X89782607Y-112600393D01*
X89798671Y-112618117D01*
X89812921Y-112637330D01*
X89825218Y-112657847D01*
X89835446Y-112679471D01*
X89843504Y-112701993D01*
X89849316Y-112725197D01*
X89852826Y-112748858D01*
X89854000Y-112772750D01*
X89854000Y-113260250D01*
X89852826Y-113284142D01*
X89849316Y-113307803D01*
X89843504Y-113331007D01*
X89835446Y-113353529D01*
X89825218Y-113375153D01*
X89812921Y-113395670D01*
X89798671Y-113414883D01*
X89782607Y-113432607D01*
X89764883Y-113448671D01*
X89745670Y-113462921D01*
X89725153Y-113475218D01*
X89703529Y-113485446D01*
X89681007Y-113493504D01*
X89657803Y-113499316D01*
X89634142Y-113502826D01*
X89610250Y-113504000D01*
X88697750Y-113504000D01*
X88673858Y-113502826D01*
X88650197Y-113499316D01*
X88626993Y-113493504D01*
X88604471Y-113485446D01*
X88582847Y-113475218D01*
X88562330Y-113462921D01*
X88543117Y-113448671D01*
X88525393Y-113432607D01*
X88509329Y-113414883D01*
X88495079Y-113395670D01*
X88482782Y-113375153D01*
X88472554Y-113353529D01*
X88464496Y-113331007D01*
X88458684Y-113307803D01*
X88455174Y-113284142D01*
X88454000Y-113260250D01*
X88454000Y-112772750D01*
X88455174Y-112748858D01*
X88458684Y-112725197D01*
X88464496Y-112701993D01*
X88472554Y-112679471D01*
X88482782Y-112657847D01*
X88495079Y-112637330D01*
X88509329Y-112618117D01*
X88525393Y-112600393D01*
X88543117Y-112584329D01*
X88562330Y-112570079D01*
X88582847Y-112557782D01*
X88604471Y-112547554D01*
X88626993Y-112539496D01*
X88650197Y-112533684D01*
X88673858Y-112530174D01*
X88697750Y-112529000D01*
X89610250Y-112529000D01*
X89634142Y-112530174D01*
X89634142Y-112530174D01*
G37*
D15*
G04 #@! TD*
G04 #@! TO.P,C7,2*
G04 #@! TO.N,GND*
X89154000Y-113016500D03*
D13*
G04 #@! TO.N,Net-(C1-Pad1)*
G04 #@! TO.C,C7*
G36*
X89634142Y-110655174D02*
G01*
X89657803Y-110658684D01*
X89681007Y-110664496D01*
X89703529Y-110672554D01*
X89725153Y-110682782D01*
X89745670Y-110695079D01*
X89764883Y-110709329D01*
X89782607Y-110725393D01*
X89798671Y-110743117D01*
X89812921Y-110762330D01*
X89825218Y-110782847D01*
X89835446Y-110804471D01*
X89843504Y-110826993D01*
X89849316Y-110850197D01*
X89852826Y-110873858D01*
X89854000Y-110897750D01*
X89854000Y-111385250D01*
X89852826Y-111409142D01*
X89849316Y-111432803D01*
X89843504Y-111456007D01*
X89835446Y-111478529D01*
X89825218Y-111500153D01*
X89812921Y-111520670D01*
X89798671Y-111539883D01*
X89782607Y-111557607D01*
X89764883Y-111573671D01*
X89745670Y-111587921D01*
X89725153Y-111600218D01*
X89703529Y-111610446D01*
X89681007Y-111618504D01*
X89657803Y-111624316D01*
X89634142Y-111627826D01*
X89610250Y-111629000D01*
X88697750Y-111629000D01*
X88673858Y-111627826D01*
X88650197Y-111624316D01*
X88626993Y-111618504D01*
X88604471Y-111610446D01*
X88582847Y-111600218D01*
X88562330Y-111587921D01*
X88543117Y-111573671D01*
X88525393Y-111557607D01*
X88509329Y-111539883D01*
X88495079Y-111520670D01*
X88482782Y-111500153D01*
X88472554Y-111478529D01*
X88464496Y-111456007D01*
X88458684Y-111432803D01*
X88455174Y-111409142D01*
X88454000Y-111385250D01*
X88454000Y-110897750D01*
X88455174Y-110873858D01*
X88458684Y-110850197D01*
X88464496Y-110826993D01*
X88472554Y-110804471D01*
X88482782Y-110782847D01*
X88495079Y-110762330D01*
X88509329Y-110743117D01*
X88525393Y-110725393D01*
X88543117Y-110709329D01*
X88562330Y-110695079D01*
X88582847Y-110682782D01*
X88604471Y-110672554D01*
X88626993Y-110664496D01*
X88650197Y-110658684D01*
X88673858Y-110655174D01*
X88697750Y-110654000D01*
X89610250Y-110654000D01*
X89634142Y-110655174D01*
X89634142Y-110655174D01*
G37*
D15*
G04 #@! TD*
G04 #@! TO.P,C7,1*
G04 #@! TO.N,Net-(C1-Pad1)*
X89154000Y-111141500D03*
D13*
G04 #@! TO.N,Net-(C6-Pad2)*
G04 #@! TO.C,C6*
G36*
X85570142Y-102527174D02*
G01*
X85593803Y-102530684D01*
X85617007Y-102536496D01*
X85639529Y-102544554D01*
X85661153Y-102554782D01*
X85681670Y-102567079D01*
X85700883Y-102581329D01*
X85718607Y-102597393D01*
X85734671Y-102615117D01*
X85748921Y-102634330D01*
X85761218Y-102654847D01*
X85771446Y-102676471D01*
X85779504Y-102698993D01*
X85785316Y-102722197D01*
X85788826Y-102745858D01*
X85790000Y-102769750D01*
X85790000Y-103257250D01*
X85788826Y-103281142D01*
X85785316Y-103304803D01*
X85779504Y-103328007D01*
X85771446Y-103350529D01*
X85761218Y-103372153D01*
X85748921Y-103392670D01*
X85734671Y-103411883D01*
X85718607Y-103429607D01*
X85700883Y-103445671D01*
X85681670Y-103459921D01*
X85661153Y-103472218D01*
X85639529Y-103482446D01*
X85617007Y-103490504D01*
X85593803Y-103496316D01*
X85570142Y-103499826D01*
X85546250Y-103501000D01*
X84633750Y-103501000D01*
X84609858Y-103499826D01*
X84586197Y-103496316D01*
X84562993Y-103490504D01*
X84540471Y-103482446D01*
X84518847Y-103472218D01*
X84498330Y-103459921D01*
X84479117Y-103445671D01*
X84461393Y-103429607D01*
X84445329Y-103411883D01*
X84431079Y-103392670D01*
X84418782Y-103372153D01*
X84408554Y-103350529D01*
X84400496Y-103328007D01*
X84394684Y-103304803D01*
X84391174Y-103281142D01*
X84390000Y-103257250D01*
X84390000Y-102769750D01*
X84391174Y-102745858D01*
X84394684Y-102722197D01*
X84400496Y-102698993D01*
X84408554Y-102676471D01*
X84418782Y-102654847D01*
X84431079Y-102634330D01*
X84445329Y-102615117D01*
X84461393Y-102597393D01*
X84479117Y-102581329D01*
X84498330Y-102567079D01*
X84518847Y-102554782D01*
X84540471Y-102544554D01*
X84562993Y-102536496D01*
X84586197Y-102530684D01*
X84609858Y-102527174D01*
X84633750Y-102526000D01*
X85546250Y-102526000D01*
X85570142Y-102527174D01*
X85570142Y-102527174D01*
G37*
D15*
G04 #@! TD*
G04 #@! TO.P,C6,2*
G04 #@! TO.N,Net-(C6-Pad2)*
X85090000Y-103013500D03*
D13*
G04 #@! TO.N,Net-(C6-Pad1)*
G04 #@! TO.C,C6*
G36*
X85570142Y-104402174D02*
G01*
X85593803Y-104405684D01*
X85617007Y-104411496D01*
X85639529Y-104419554D01*
X85661153Y-104429782D01*
X85681670Y-104442079D01*
X85700883Y-104456329D01*
X85718607Y-104472393D01*
X85734671Y-104490117D01*
X85748921Y-104509330D01*
X85761218Y-104529847D01*
X85771446Y-104551471D01*
X85779504Y-104573993D01*
X85785316Y-104597197D01*
X85788826Y-104620858D01*
X85790000Y-104644750D01*
X85790000Y-105132250D01*
X85788826Y-105156142D01*
X85785316Y-105179803D01*
X85779504Y-105203007D01*
X85771446Y-105225529D01*
X85761218Y-105247153D01*
X85748921Y-105267670D01*
X85734671Y-105286883D01*
X85718607Y-105304607D01*
X85700883Y-105320671D01*
X85681670Y-105334921D01*
X85661153Y-105347218D01*
X85639529Y-105357446D01*
X85617007Y-105365504D01*
X85593803Y-105371316D01*
X85570142Y-105374826D01*
X85546250Y-105376000D01*
X84633750Y-105376000D01*
X84609858Y-105374826D01*
X84586197Y-105371316D01*
X84562993Y-105365504D01*
X84540471Y-105357446D01*
X84518847Y-105347218D01*
X84498330Y-105334921D01*
X84479117Y-105320671D01*
X84461393Y-105304607D01*
X84445329Y-105286883D01*
X84431079Y-105267670D01*
X84418782Y-105247153D01*
X84408554Y-105225529D01*
X84400496Y-105203007D01*
X84394684Y-105179803D01*
X84391174Y-105156142D01*
X84390000Y-105132250D01*
X84390000Y-104644750D01*
X84391174Y-104620858D01*
X84394684Y-104597197D01*
X84400496Y-104573993D01*
X84408554Y-104551471D01*
X84418782Y-104529847D01*
X84431079Y-104509330D01*
X84445329Y-104490117D01*
X84461393Y-104472393D01*
X84479117Y-104456329D01*
X84498330Y-104442079D01*
X84518847Y-104429782D01*
X84540471Y-104419554D01*
X84562993Y-104411496D01*
X84586197Y-104405684D01*
X84609858Y-104402174D01*
X84633750Y-104401000D01*
X85546250Y-104401000D01*
X85570142Y-104402174D01*
X85570142Y-104402174D01*
G37*
D15*
G04 #@! TD*
G04 #@! TO.P,C6,1*
G04 #@! TO.N,Net-(C6-Pad1)*
X85090000Y-104888500D03*
D13*
G04 #@! TO.N,GND*
G04 #@! TO.C,C5*
G36*
X96709142Y-96075174D02*
G01*
X96732803Y-96078684D01*
X96756007Y-96084496D01*
X96778529Y-96092554D01*
X96800153Y-96102782D01*
X96820670Y-96115079D01*
X96839883Y-96129329D01*
X96857607Y-96145393D01*
X96873671Y-96163117D01*
X96887921Y-96182330D01*
X96900218Y-96202847D01*
X96910446Y-96224471D01*
X96918504Y-96246993D01*
X96924316Y-96270197D01*
X96927826Y-96293858D01*
X96929000Y-96317750D01*
X96929000Y-97230250D01*
X96927826Y-97254142D01*
X96924316Y-97277803D01*
X96918504Y-97301007D01*
X96910446Y-97323529D01*
X96900218Y-97345153D01*
X96887921Y-97365670D01*
X96873671Y-97384883D01*
X96857607Y-97402607D01*
X96839883Y-97418671D01*
X96820670Y-97432921D01*
X96800153Y-97445218D01*
X96778529Y-97455446D01*
X96756007Y-97463504D01*
X96732803Y-97469316D01*
X96709142Y-97472826D01*
X96685250Y-97474000D01*
X96197750Y-97474000D01*
X96173858Y-97472826D01*
X96150197Y-97469316D01*
X96126993Y-97463504D01*
X96104471Y-97455446D01*
X96082847Y-97445218D01*
X96062330Y-97432921D01*
X96043117Y-97418671D01*
X96025393Y-97402607D01*
X96009329Y-97384883D01*
X95995079Y-97365670D01*
X95982782Y-97345153D01*
X95972554Y-97323529D01*
X95964496Y-97301007D01*
X95958684Y-97277803D01*
X95955174Y-97254142D01*
X95954000Y-97230250D01*
X95954000Y-96317750D01*
X95955174Y-96293858D01*
X95958684Y-96270197D01*
X95964496Y-96246993D01*
X95972554Y-96224471D01*
X95982782Y-96202847D01*
X95995079Y-96182330D01*
X96009329Y-96163117D01*
X96025393Y-96145393D01*
X96043117Y-96129329D01*
X96062330Y-96115079D01*
X96082847Y-96102782D01*
X96104471Y-96092554D01*
X96126993Y-96084496D01*
X96150197Y-96078684D01*
X96173858Y-96075174D01*
X96197750Y-96074000D01*
X96685250Y-96074000D01*
X96709142Y-96075174D01*
X96709142Y-96075174D01*
G37*
D15*
G04 #@! TD*
G04 #@! TO.P,C5,2*
G04 #@! TO.N,GND*
X96441500Y-96774000D03*
D13*
G04 #@! TO.N,Net-(C5-Pad1)*
G04 #@! TO.C,C5*
G36*
X94834142Y-96075174D02*
G01*
X94857803Y-96078684D01*
X94881007Y-96084496D01*
X94903529Y-96092554D01*
X94925153Y-96102782D01*
X94945670Y-96115079D01*
X94964883Y-96129329D01*
X94982607Y-96145393D01*
X94998671Y-96163117D01*
X95012921Y-96182330D01*
X95025218Y-96202847D01*
X95035446Y-96224471D01*
X95043504Y-96246993D01*
X95049316Y-96270197D01*
X95052826Y-96293858D01*
X95054000Y-96317750D01*
X95054000Y-97230250D01*
X95052826Y-97254142D01*
X95049316Y-97277803D01*
X95043504Y-97301007D01*
X95035446Y-97323529D01*
X95025218Y-97345153D01*
X95012921Y-97365670D01*
X94998671Y-97384883D01*
X94982607Y-97402607D01*
X94964883Y-97418671D01*
X94945670Y-97432921D01*
X94925153Y-97445218D01*
X94903529Y-97455446D01*
X94881007Y-97463504D01*
X94857803Y-97469316D01*
X94834142Y-97472826D01*
X94810250Y-97474000D01*
X94322750Y-97474000D01*
X94298858Y-97472826D01*
X94275197Y-97469316D01*
X94251993Y-97463504D01*
X94229471Y-97455446D01*
X94207847Y-97445218D01*
X94187330Y-97432921D01*
X94168117Y-97418671D01*
X94150393Y-97402607D01*
X94134329Y-97384883D01*
X94120079Y-97365670D01*
X94107782Y-97345153D01*
X94097554Y-97323529D01*
X94089496Y-97301007D01*
X94083684Y-97277803D01*
X94080174Y-97254142D01*
X94079000Y-97230250D01*
X94079000Y-96317750D01*
X94080174Y-96293858D01*
X94083684Y-96270197D01*
X94089496Y-96246993D01*
X94097554Y-96224471D01*
X94107782Y-96202847D01*
X94120079Y-96182330D01*
X94134329Y-96163117D01*
X94150393Y-96145393D01*
X94168117Y-96129329D01*
X94187330Y-96115079D01*
X94207847Y-96102782D01*
X94229471Y-96092554D01*
X94251993Y-96084496D01*
X94275197Y-96078684D01*
X94298858Y-96075174D01*
X94322750Y-96074000D01*
X94810250Y-96074000D01*
X94834142Y-96075174D01*
X94834142Y-96075174D01*
G37*
D15*
G04 #@! TD*
G04 #@! TO.P,C5,1*
G04 #@! TO.N,Net-(C5-Pad1)*
X94566500Y-96774000D03*
D13*
G04 #@! TO.N,GND*
G04 #@! TO.C,C4*
G36*
X94714142Y-117480174D02*
G01*
X94737803Y-117483684D01*
X94761007Y-117489496D01*
X94783529Y-117497554D01*
X94805153Y-117507782D01*
X94825670Y-117520079D01*
X94844883Y-117534329D01*
X94862607Y-117550393D01*
X94878671Y-117568117D01*
X94892921Y-117587330D01*
X94905218Y-117607847D01*
X94915446Y-117629471D01*
X94923504Y-117651993D01*
X94929316Y-117675197D01*
X94932826Y-117698858D01*
X94934000Y-117722750D01*
X94934000Y-118210250D01*
X94932826Y-118234142D01*
X94929316Y-118257803D01*
X94923504Y-118281007D01*
X94915446Y-118303529D01*
X94905218Y-118325153D01*
X94892921Y-118345670D01*
X94878671Y-118364883D01*
X94862607Y-118382607D01*
X94844883Y-118398671D01*
X94825670Y-118412921D01*
X94805153Y-118425218D01*
X94783529Y-118435446D01*
X94761007Y-118443504D01*
X94737803Y-118449316D01*
X94714142Y-118452826D01*
X94690250Y-118454000D01*
X93777750Y-118454000D01*
X93753858Y-118452826D01*
X93730197Y-118449316D01*
X93706993Y-118443504D01*
X93684471Y-118435446D01*
X93662847Y-118425218D01*
X93642330Y-118412921D01*
X93623117Y-118398671D01*
X93605393Y-118382607D01*
X93589329Y-118364883D01*
X93575079Y-118345670D01*
X93562782Y-118325153D01*
X93552554Y-118303529D01*
X93544496Y-118281007D01*
X93538684Y-118257803D01*
X93535174Y-118234142D01*
X93534000Y-118210250D01*
X93534000Y-117722750D01*
X93535174Y-117698858D01*
X93538684Y-117675197D01*
X93544496Y-117651993D01*
X93552554Y-117629471D01*
X93562782Y-117607847D01*
X93575079Y-117587330D01*
X93589329Y-117568117D01*
X93605393Y-117550393D01*
X93623117Y-117534329D01*
X93642330Y-117520079D01*
X93662847Y-117507782D01*
X93684471Y-117497554D01*
X93706993Y-117489496D01*
X93730197Y-117483684D01*
X93753858Y-117480174D01*
X93777750Y-117479000D01*
X94690250Y-117479000D01*
X94714142Y-117480174D01*
X94714142Y-117480174D01*
G37*
D15*
G04 #@! TD*
G04 #@! TO.P,C4,2*
G04 #@! TO.N,GND*
X94234000Y-117966500D03*
D13*
G04 #@! TO.N,Net-(C4-Pad1)*
G04 #@! TO.C,C4*
G36*
X94714142Y-115605174D02*
G01*
X94737803Y-115608684D01*
X94761007Y-115614496D01*
X94783529Y-115622554D01*
X94805153Y-115632782D01*
X94825670Y-115645079D01*
X94844883Y-115659329D01*
X94862607Y-115675393D01*
X94878671Y-115693117D01*
X94892921Y-115712330D01*
X94905218Y-115732847D01*
X94915446Y-115754471D01*
X94923504Y-115776993D01*
X94929316Y-115800197D01*
X94932826Y-115823858D01*
X94934000Y-115847750D01*
X94934000Y-116335250D01*
X94932826Y-116359142D01*
X94929316Y-116382803D01*
X94923504Y-116406007D01*
X94915446Y-116428529D01*
X94905218Y-116450153D01*
X94892921Y-116470670D01*
X94878671Y-116489883D01*
X94862607Y-116507607D01*
X94844883Y-116523671D01*
X94825670Y-116537921D01*
X94805153Y-116550218D01*
X94783529Y-116560446D01*
X94761007Y-116568504D01*
X94737803Y-116574316D01*
X94714142Y-116577826D01*
X94690250Y-116579000D01*
X93777750Y-116579000D01*
X93753858Y-116577826D01*
X93730197Y-116574316D01*
X93706993Y-116568504D01*
X93684471Y-116560446D01*
X93662847Y-116550218D01*
X93642330Y-116537921D01*
X93623117Y-116523671D01*
X93605393Y-116507607D01*
X93589329Y-116489883D01*
X93575079Y-116470670D01*
X93562782Y-116450153D01*
X93552554Y-116428529D01*
X93544496Y-116406007D01*
X93538684Y-116382803D01*
X93535174Y-116359142D01*
X93534000Y-116335250D01*
X93534000Y-115847750D01*
X93535174Y-115823858D01*
X93538684Y-115800197D01*
X93544496Y-115776993D01*
X93552554Y-115754471D01*
X93562782Y-115732847D01*
X93575079Y-115712330D01*
X93589329Y-115693117D01*
X93605393Y-115675393D01*
X93623117Y-115659329D01*
X93642330Y-115645079D01*
X93662847Y-115632782D01*
X93684471Y-115622554D01*
X93706993Y-115614496D01*
X93730197Y-115608684D01*
X93753858Y-115605174D01*
X93777750Y-115604000D01*
X94690250Y-115604000D01*
X94714142Y-115605174D01*
X94714142Y-115605174D01*
G37*
D15*
G04 #@! TD*
G04 #@! TO.P,C4,1*
G04 #@! TO.N,Net-(C4-Pad1)*
X94234000Y-116091500D03*
D13*
G04 #@! TO.N,GND*
G04 #@! TO.C,C2*
G36*
X96709142Y-92265174D02*
G01*
X96732803Y-92268684D01*
X96756007Y-92274496D01*
X96778529Y-92282554D01*
X96800153Y-92292782D01*
X96820670Y-92305079D01*
X96839883Y-92319329D01*
X96857607Y-92335393D01*
X96873671Y-92353117D01*
X96887921Y-92372330D01*
X96900218Y-92392847D01*
X96910446Y-92414471D01*
X96918504Y-92436993D01*
X96924316Y-92460197D01*
X96927826Y-92483858D01*
X96929000Y-92507750D01*
X96929000Y-93420250D01*
X96927826Y-93444142D01*
X96924316Y-93467803D01*
X96918504Y-93491007D01*
X96910446Y-93513529D01*
X96900218Y-93535153D01*
X96887921Y-93555670D01*
X96873671Y-93574883D01*
X96857607Y-93592607D01*
X96839883Y-93608671D01*
X96820670Y-93622921D01*
X96800153Y-93635218D01*
X96778529Y-93645446D01*
X96756007Y-93653504D01*
X96732803Y-93659316D01*
X96709142Y-93662826D01*
X96685250Y-93664000D01*
X96197750Y-93664000D01*
X96173858Y-93662826D01*
X96150197Y-93659316D01*
X96126993Y-93653504D01*
X96104471Y-93645446D01*
X96082847Y-93635218D01*
X96062330Y-93622921D01*
X96043117Y-93608671D01*
X96025393Y-93592607D01*
X96009329Y-93574883D01*
X95995079Y-93555670D01*
X95982782Y-93535153D01*
X95972554Y-93513529D01*
X95964496Y-93491007D01*
X95958684Y-93467803D01*
X95955174Y-93444142D01*
X95954000Y-93420250D01*
X95954000Y-92507750D01*
X95955174Y-92483858D01*
X95958684Y-92460197D01*
X95964496Y-92436993D01*
X95972554Y-92414471D01*
X95982782Y-92392847D01*
X95995079Y-92372330D01*
X96009329Y-92353117D01*
X96025393Y-92335393D01*
X96043117Y-92319329D01*
X96062330Y-92305079D01*
X96082847Y-92292782D01*
X96104471Y-92282554D01*
X96126993Y-92274496D01*
X96150197Y-92268684D01*
X96173858Y-92265174D01*
X96197750Y-92264000D01*
X96685250Y-92264000D01*
X96709142Y-92265174D01*
X96709142Y-92265174D01*
G37*
D15*
G04 #@! TD*
G04 #@! TO.P,C2,2*
G04 #@! TO.N,GND*
X96441500Y-92964000D03*
D13*
G04 #@! TO.N,Net-(C2-Pad1)*
G04 #@! TO.C,C2*
G36*
X94834142Y-92265174D02*
G01*
X94857803Y-92268684D01*
X94881007Y-92274496D01*
X94903529Y-92282554D01*
X94925153Y-92292782D01*
X94945670Y-92305079D01*
X94964883Y-92319329D01*
X94982607Y-92335393D01*
X94998671Y-92353117D01*
X95012921Y-92372330D01*
X95025218Y-92392847D01*
X95035446Y-92414471D01*
X95043504Y-92436993D01*
X95049316Y-92460197D01*
X95052826Y-92483858D01*
X95054000Y-92507750D01*
X95054000Y-93420250D01*
X95052826Y-93444142D01*
X95049316Y-93467803D01*
X95043504Y-93491007D01*
X95035446Y-93513529D01*
X95025218Y-93535153D01*
X95012921Y-93555670D01*
X94998671Y-93574883D01*
X94982607Y-93592607D01*
X94964883Y-93608671D01*
X94945670Y-93622921D01*
X94925153Y-93635218D01*
X94903529Y-93645446D01*
X94881007Y-93653504D01*
X94857803Y-93659316D01*
X94834142Y-93662826D01*
X94810250Y-93664000D01*
X94322750Y-93664000D01*
X94298858Y-93662826D01*
X94275197Y-93659316D01*
X94251993Y-93653504D01*
X94229471Y-93645446D01*
X94207847Y-93635218D01*
X94187330Y-93622921D01*
X94168117Y-93608671D01*
X94150393Y-93592607D01*
X94134329Y-93574883D01*
X94120079Y-93555670D01*
X94107782Y-93535153D01*
X94097554Y-93513529D01*
X94089496Y-93491007D01*
X94083684Y-93467803D01*
X94080174Y-93444142D01*
X94079000Y-93420250D01*
X94079000Y-92507750D01*
X94080174Y-92483858D01*
X94083684Y-92460197D01*
X94089496Y-92436993D01*
X94097554Y-92414471D01*
X94107782Y-92392847D01*
X94120079Y-92372330D01*
X94134329Y-92353117D01*
X94150393Y-92335393D01*
X94168117Y-92319329D01*
X94187330Y-92305079D01*
X94207847Y-92292782D01*
X94229471Y-92282554D01*
X94251993Y-92274496D01*
X94275197Y-92268684D01*
X94298858Y-92265174D01*
X94322750Y-92264000D01*
X94810250Y-92264000D01*
X94834142Y-92265174D01*
X94834142Y-92265174D01*
G37*
D15*
G04 #@! TD*
G04 #@! TO.P,C2,1*
G04 #@! TO.N,Net-(C2-Pad1)*
X94566500Y-92964000D03*
D13*
G04 #@! TO.N,GND*
G04 #@! TO.C,C1*
G36*
X86967142Y-112527174D02*
G01*
X86990803Y-112530684D01*
X87014007Y-112536496D01*
X87036529Y-112544554D01*
X87058153Y-112554782D01*
X87078670Y-112567079D01*
X87097883Y-112581329D01*
X87115607Y-112597393D01*
X87131671Y-112615117D01*
X87145921Y-112634330D01*
X87158218Y-112654847D01*
X87168446Y-112676471D01*
X87176504Y-112698993D01*
X87182316Y-112722197D01*
X87185826Y-112745858D01*
X87187000Y-112769750D01*
X87187000Y-113257250D01*
X87185826Y-113281142D01*
X87182316Y-113304803D01*
X87176504Y-113328007D01*
X87168446Y-113350529D01*
X87158218Y-113372153D01*
X87145921Y-113392670D01*
X87131671Y-113411883D01*
X87115607Y-113429607D01*
X87097883Y-113445671D01*
X87078670Y-113459921D01*
X87058153Y-113472218D01*
X87036529Y-113482446D01*
X87014007Y-113490504D01*
X86990803Y-113496316D01*
X86967142Y-113499826D01*
X86943250Y-113501000D01*
X86030750Y-113501000D01*
X86006858Y-113499826D01*
X85983197Y-113496316D01*
X85959993Y-113490504D01*
X85937471Y-113482446D01*
X85915847Y-113472218D01*
X85895330Y-113459921D01*
X85876117Y-113445671D01*
X85858393Y-113429607D01*
X85842329Y-113411883D01*
X85828079Y-113392670D01*
X85815782Y-113372153D01*
X85805554Y-113350529D01*
X85797496Y-113328007D01*
X85791684Y-113304803D01*
X85788174Y-113281142D01*
X85787000Y-113257250D01*
X85787000Y-112769750D01*
X85788174Y-112745858D01*
X85791684Y-112722197D01*
X85797496Y-112698993D01*
X85805554Y-112676471D01*
X85815782Y-112654847D01*
X85828079Y-112634330D01*
X85842329Y-112615117D01*
X85858393Y-112597393D01*
X85876117Y-112581329D01*
X85895330Y-112567079D01*
X85915847Y-112554782D01*
X85937471Y-112544554D01*
X85959993Y-112536496D01*
X85983197Y-112530684D01*
X86006858Y-112527174D01*
X86030750Y-112526000D01*
X86943250Y-112526000D01*
X86967142Y-112527174D01*
X86967142Y-112527174D01*
G37*
D15*
G04 #@! TD*
G04 #@! TO.P,C1,2*
G04 #@! TO.N,GND*
X86487000Y-113013500D03*
D13*
G04 #@! TO.N,Net-(C1-Pad1)*
G04 #@! TO.C,C1*
G36*
X86967142Y-110652174D02*
G01*
X86990803Y-110655684D01*
X87014007Y-110661496D01*
X87036529Y-110669554D01*
X87058153Y-110679782D01*
X87078670Y-110692079D01*
X87097883Y-110706329D01*
X87115607Y-110722393D01*
X87131671Y-110740117D01*
X87145921Y-110759330D01*
X87158218Y-110779847D01*
X87168446Y-110801471D01*
X87176504Y-110823993D01*
X87182316Y-110847197D01*
X87185826Y-110870858D01*
X87187000Y-110894750D01*
X87187000Y-111382250D01*
X87185826Y-111406142D01*
X87182316Y-111429803D01*
X87176504Y-111453007D01*
X87168446Y-111475529D01*
X87158218Y-111497153D01*
X87145921Y-111517670D01*
X87131671Y-111536883D01*
X87115607Y-111554607D01*
X87097883Y-111570671D01*
X87078670Y-111584921D01*
X87058153Y-111597218D01*
X87036529Y-111607446D01*
X87014007Y-111615504D01*
X86990803Y-111621316D01*
X86967142Y-111624826D01*
X86943250Y-111626000D01*
X86030750Y-111626000D01*
X86006858Y-111624826D01*
X85983197Y-111621316D01*
X85959993Y-111615504D01*
X85937471Y-111607446D01*
X85915847Y-111597218D01*
X85895330Y-111584921D01*
X85876117Y-111570671D01*
X85858393Y-111554607D01*
X85842329Y-111536883D01*
X85828079Y-111517670D01*
X85815782Y-111497153D01*
X85805554Y-111475529D01*
X85797496Y-111453007D01*
X85791684Y-111429803D01*
X85788174Y-111406142D01*
X85787000Y-111382250D01*
X85787000Y-110894750D01*
X85788174Y-110870858D01*
X85791684Y-110847197D01*
X85797496Y-110823993D01*
X85805554Y-110801471D01*
X85815782Y-110779847D01*
X85828079Y-110759330D01*
X85842329Y-110740117D01*
X85858393Y-110722393D01*
X85876117Y-110706329D01*
X85895330Y-110692079D01*
X85915847Y-110679782D01*
X85937471Y-110669554D01*
X85959993Y-110661496D01*
X85983197Y-110655684D01*
X86006858Y-110652174D01*
X86030750Y-110651000D01*
X86943250Y-110651000D01*
X86967142Y-110652174D01*
X86967142Y-110652174D01*
G37*
D15*
G04 #@! TD*
G04 #@! TO.P,C1,1*
G04 #@! TO.N,Net-(C1-Pad1)*
X86487000Y-111138500D03*
D13*
G04 #@! TO.N,Net-(C2-Pad1)*
G04 #@! TO.C,R1*
G36*
X91798505Y-92265204D02*
G01*
X91822773Y-92268804D01*
X91846572Y-92274765D01*
X91869671Y-92283030D01*
X91891850Y-92293520D01*
X91912893Y-92306132D01*
X91932599Y-92320747D01*
X91950777Y-92337223D01*
X91967253Y-92355401D01*
X91981868Y-92375107D01*
X91994480Y-92396150D01*
X92004970Y-92418329D01*
X92013235Y-92441428D01*
X92019196Y-92465227D01*
X92022796Y-92489495D01*
X92024000Y-92513999D01*
X92024000Y-93414001D01*
X92022796Y-93438505D01*
X92019196Y-93462773D01*
X92013235Y-93486572D01*
X92004970Y-93509671D01*
X91994480Y-93531850D01*
X91981868Y-93552893D01*
X91967253Y-93572599D01*
X91950777Y-93590777D01*
X91932599Y-93607253D01*
X91912893Y-93621868D01*
X91891850Y-93634480D01*
X91869671Y-93644970D01*
X91846572Y-93653235D01*
X91822773Y-93659196D01*
X91798505Y-93662796D01*
X91774001Y-93664000D01*
X91123999Y-93664000D01*
X91099495Y-93662796D01*
X91075227Y-93659196D01*
X91051428Y-93653235D01*
X91028329Y-93644970D01*
X91006150Y-93634480D01*
X90985107Y-93621868D01*
X90965401Y-93607253D01*
X90947223Y-93590777D01*
X90930747Y-93572599D01*
X90916132Y-93552893D01*
X90903520Y-93531850D01*
X90893030Y-93509671D01*
X90884765Y-93486572D01*
X90878804Y-93462773D01*
X90875204Y-93438505D01*
X90874000Y-93414001D01*
X90874000Y-92513999D01*
X90875204Y-92489495D01*
X90878804Y-92465227D01*
X90884765Y-92441428D01*
X90893030Y-92418329D01*
X90903520Y-92396150D01*
X90916132Y-92375107D01*
X90930747Y-92355401D01*
X90947223Y-92337223D01*
X90965401Y-92320747D01*
X90985107Y-92306132D01*
X91006150Y-92293520D01*
X91028329Y-92283030D01*
X91051428Y-92274765D01*
X91075227Y-92268804D01*
X91099495Y-92265204D01*
X91123999Y-92264000D01*
X91774001Y-92264000D01*
X91798505Y-92265204D01*
X91798505Y-92265204D01*
G37*
D16*
G04 #@! TD*
G04 #@! TO.P,R1,2*
G04 #@! TO.N,Net-(C2-Pad1)*
X91449000Y-92964000D03*
D13*
G04 #@! TO.N,Net-(C1-Pad1)*
G04 #@! TO.C,R1*
G36*
X89748505Y-92265204D02*
G01*
X89772773Y-92268804D01*
X89796572Y-92274765D01*
X89819671Y-92283030D01*
X89841850Y-92293520D01*
X89862893Y-92306132D01*
X89882599Y-92320747D01*
X89900777Y-92337223D01*
X89917253Y-92355401D01*
X89931868Y-92375107D01*
X89944480Y-92396150D01*
X89954970Y-92418329D01*
X89963235Y-92441428D01*
X89969196Y-92465227D01*
X89972796Y-92489495D01*
X89974000Y-92513999D01*
X89974000Y-93414001D01*
X89972796Y-93438505D01*
X89969196Y-93462773D01*
X89963235Y-93486572D01*
X89954970Y-93509671D01*
X89944480Y-93531850D01*
X89931868Y-93552893D01*
X89917253Y-93572599D01*
X89900777Y-93590777D01*
X89882599Y-93607253D01*
X89862893Y-93621868D01*
X89841850Y-93634480D01*
X89819671Y-93644970D01*
X89796572Y-93653235D01*
X89772773Y-93659196D01*
X89748505Y-93662796D01*
X89724001Y-93664000D01*
X89073999Y-93664000D01*
X89049495Y-93662796D01*
X89025227Y-93659196D01*
X89001428Y-93653235D01*
X88978329Y-93644970D01*
X88956150Y-93634480D01*
X88935107Y-93621868D01*
X88915401Y-93607253D01*
X88897223Y-93590777D01*
X88880747Y-93572599D01*
X88866132Y-93552893D01*
X88853520Y-93531850D01*
X88843030Y-93509671D01*
X88834765Y-93486572D01*
X88828804Y-93462773D01*
X88825204Y-93438505D01*
X88824000Y-93414001D01*
X88824000Y-92513999D01*
X88825204Y-92489495D01*
X88828804Y-92465227D01*
X88834765Y-92441428D01*
X88843030Y-92418329D01*
X88853520Y-92396150D01*
X88866132Y-92375107D01*
X88880747Y-92355401D01*
X88897223Y-92337223D01*
X88915401Y-92320747D01*
X88935107Y-92306132D01*
X88956150Y-92293520D01*
X88978329Y-92283030D01*
X89001428Y-92274765D01*
X89025227Y-92268804D01*
X89049495Y-92265204D01*
X89073999Y-92264000D01*
X89724001Y-92264000D01*
X89748505Y-92265204D01*
X89748505Y-92265204D01*
G37*
D16*
G04 #@! TD*
G04 #@! TO.P,R1,1*
G04 #@! TO.N,Net-(C1-Pad1)*
X89399000Y-92964000D03*
D17*
G04 #@! TO.P,D2,1*
G04 #@! TO.N,Net-(D2-Pad1)*
X128524000Y-95758000D03*
D18*
G04 #@! TO.P,D2,2*
G04 #@! TO.N,GND*
X118524000Y-95758000D03*
G04 #@! TD*
D19*
G04 #@! TO.P,J1,SH*
G04 #@! TO.N,Net-(J1-PadSH)*
X169926000Y-96046000D03*
X169926000Y-109186000D03*
D20*
G04 #@! TO.P,J1,1*
G04 #@! TO.N,Net-(J1-Pad1)*
X167216000Y-98866000D03*
G04 #@! TO.P,J1,2*
G04 #@! TO.N,/D-*
X167201000Y-101366000D03*
G04 #@! TO.P,J1,3*
G04 #@! TO.N,/D+*
X167226000Y-103866000D03*
G04 #@! TO.P,J1,4*
G04 #@! TO.N,GND*
X167216000Y-106366000D03*
G04 #@! TD*
D18*
G04 #@! TO.P,L1,1*
G04 #@! TO.N,Net-(C6-Pad2)*
X102362000Y-104140000D03*
D21*
G04 #@! TO.P,L1,2*
G04 #@! TO.N,+5V*
X109982000Y-104140000D03*
G04 #@! TD*
D22*
G04 #@! TO.P,Q1,3*
G04 #@! TO.N,Net-(J1-Pad1)*
X131572000Y-113572000D03*
G04 #@! TO.P,Q1,2*
G04 #@! TO.N,+5V*
X130622000Y-111472000D03*
G04 #@! TO.P,Q1,1*
G04 #@! TO.N,Net-(Q1-Pad1)*
X132522000Y-111472000D03*
G04 #@! TD*
D23*
G04 #@! TO.P,Q2,1*
G04 #@! TO.N,GND*
X137668000Y-98552000D03*
D24*
G04 #@! TO.P,Q2,2*
G04 #@! TO.N,Net-(D2-Pad1)*
X136398000Y-97282000D03*
G04 #@! TO.P,Q2,3*
G04 #@! TO.N,Net-(Q1-Pad1)*
X135128000Y-98552000D03*
G04 #@! TD*
D13*
G04 #@! TO.N,Net-(J1-Pad1)*
G04 #@! TO.C,R6*
G36*
X140873005Y-106750204D02*
G01*
X140897273Y-106753804D01*
X140921072Y-106759765D01*
X140944171Y-106768030D01*
X140966350Y-106778520D01*
X140987393Y-106791132D01*
X141007099Y-106805747D01*
X141025277Y-106822223D01*
X141041753Y-106840401D01*
X141056368Y-106860107D01*
X141068980Y-106881150D01*
X141079470Y-106903329D01*
X141087735Y-106926428D01*
X141093696Y-106950227D01*
X141097296Y-106974495D01*
X141098500Y-106998999D01*
X141098500Y-107649001D01*
X141097296Y-107673505D01*
X141093696Y-107697773D01*
X141087735Y-107721572D01*
X141079470Y-107744671D01*
X141068980Y-107766850D01*
X141056368Y-107787893D01*
X141041753Y-107807599D01*
X141025277Y-107825777D01*
X141007099Y-107842253D01*
X140987393Y-107856868D01*
X140966350Y-107869480D01*
X140944171Y-107879970D01*
X140921072Y-107888235D01*
X140897273Y-107894196D01*
X140873005Y-107897796D01*
X140848501Y-107899000D01*
X139948499Y-107899000D01*
X139923995Y-107897796D01*
X139899727Y-107894196D01*
X139875928Y-107888235D01*
X139852829Y-107879970D01*
X139830650Y-107869480D01*
X139809607Y-107856868D01*
X139789901Y-107842253D01*
X139771723Y-107825777D01*
X139755247Y-107807599D01*
X139740632Y-107787893D01*
X139728020Y-107766850D01*
X139717530Y-107744671D01*
X139709265Y-107721572D01*
X139703304Y-107697773D01*
X139699704Y-107673505D01*
X139698500Y-107649001D01*
X139698500Y-106998999D01*
X139699704Y-106974495D01*
X139703304Y-106950227D01*
X139709265Y-106926428D01*
X139717530Y-106903329D01*
X139728020Y-106881150D01*
X139740632Y-106860107D01*
X139755247Y-106840401D01*
X139771723Y-106822223D01*
X139789901Y-106805747D01*
X139809607Y-106791132D01*
X139830650Y-106778520D01*
X139852829Y-106768030D01*
X139875928Y-106759765D01*
X139899727Y-106753804D01*
X139923995Y-106750204D01*
X139948499Y-106749000D01*
X140848501Y-106749000D01*
X140873005Y-106750204D01*
X140873005Y-106750204D01*
G37*
D16*
G04 #@! TD*
G04 #@! TO.P,R6,1*
G04 #@! TO.N,Net-(J1-Pad1)*
X140398500Y-107324000D03*
D13*
G04 #@! TO.N,Net-(D2-Pad1)*
G04 #@! TO.C,R6*
G36*
X140873005Y-104700204D02*
G01*
X140897273Y-104703804D01*
X140921072Y-104709765D01*
X140944171Y-104718030D01*
X140966350Y-104728520D01*
X140987393Y-104741132D01*
X141007099Y-104755747D01*
X141025277Y-104772223D01*
X141041753Y-104790401D01*
X141056368Y-104810107D01*
X141068980Y-104831150D01*
X141079470Y-104853329D01*
X141087735Y-104876428D01*
X141093696Y-104900227D01*
X141097296Y-104924495D01*
X141098500Y-104948999D01*
X141098500Y-105599001D01*
X141097296Y-105623505D01*
X141093696Y-105647773D01*
X141087735Y-105671572D01*
X141079470Y-105694671D01*
X141068980Y-105716850D01*
X141056368Y-105737893D01*
X141041753Y-105757599D01*
X141025277Y-105775777D01*
X141007099Y-105792253D01*
X140987393Y-105806868D01*
X140966350Y-105819480D01*
X140944171Y-105829970D01*
X140921072Y-105838235D01*
X140897273Y-105844196D01*
X140873005Y-105847796D01*
X140848501Y-105849000D01*
X139948499Y-105849000D01*
X139923995Y-105847796D01*
X139899727Y-105844196D01*
X139875928Y-105838235D01*
X139852829Y-105829970D01*
X139830650Y-105819480D01*
X139809607Y-105806868D01*
X139789901Y-105792253D01*
X139771723Y-105775777D01*
X139755247Y-105757599D01*
X139740632Y-105737893D01*
X139728020Y-105716850D01*
X139717530Y-105694671D01*
X139709265Y-105671572D01*
X139703304Y-105647773D01*
X139699704Y-105623505D01*
X139698500Y-105599001D01*
X139698500Y-104948999D01*
X139699704Y-104924495D01*
X139703304Y-104900227D01*
X139709265Y-104876428D01*
X139717530Y-104853329D01*
X139728020Y-104831150D01*
X139740632Y-104810107D01*
X139755247Y-104790401D01*
X139771723Y-104772223D01*
X139789901Y-104755747D01*
X139809607Y-104741132D01*
X139830650Y-104728520D01*
X139852829Y-104718030D01*
X139875928Y-104709765D01*
X139899727Y-104703804D01*
X139923995Y-104700204D01*
X139948499Y-104699000D01*
X140848501Y-104699000D01*
X140873005Y-104700204D01*
X140873005Y-104700204D01*
G37*
D16*
G04 #@! TD*
G04 #@! TO.P,R6,2*
G04 #@! TO.N,Net-(D2-Pad1)*
X140398500Y-105274000D03*
D13*
G04 #@! TO.N,Net-(Q1-Pad1)*
G04 #@! TO.C,R5*
G36*
X132946505Y-103949204D02*
G01*
X132970773Y-103952804D01*
X132994572Y-103958765D01*
X133017671Y-103967030D01*
X133039850Y-103977520D01*
X133060893Y-103990132D01*
X133080599Y-104004747D01*
X133098777Y-104021223D01*
X133115253Y-104039401D01*
X133129868Y-104059107D01*
X133142480Y-104080150D01*
X133152970Y-104102329D01*
X133161235Y-104125428D01*
X133167196Y-104149227D01*
X133170796Y-104173495D01*
X133172000Y-104197999D01*
X133172000Y-105098001D01*
X133170796Y-105122505D01*
X133167196Y-105146773D01*
X133161235Y-105170572D01*
X133152970Y-105193671D01*
X133142480Y-105215850D01*
X133129868Y-105236893D01*
X133115253Y-105256599D01*
X133098777Y-105274777D01*
X133080599Y-105291253D01*
X133060893Y-105305868D01*
X133039850Y-105318480D01*
X133017671Y-105328970D01*
X132994572Y-105337235D01*
X132970773Y-105343196D01*
X132946505Y-105346796D01*
X132922001Y-105348000D01*
X132271999Y-105348000D01*
X132247495Y-105346796D01*
X132223227Y-105343196D01*
X132199428Y-105337235D01*
X132176329Y-105328970D01*
X132154150Y-105318480D01*
X132133107Y-105305868D01*
X132113401Y-105291253D01*
X132095223Y-105274777D01*
X132078747Y-105256599D01*
X132064132Y-105236893D01*
X132051520Y-105215850D01*
X132041030Y-105193671D01*
X132032765Y-105170572D01*
X132026804Y-105146773D01*
X132023204Y-105122505D01*
X132022000Y-105098001D01*
X132022000Y-104197999D01*
X132023204Y-104173495D01*
X132026804Y-104149227D01*
X132032765Y-104125428D01*
X132041030Y-104102329D01*
X132051520Y-104080150D01*
X132064132Y-104059107D01*
X132078747Y-104039401D01*
X132095223Y-104021223D01*
X132113401Y-104004747D01*
X132133107Y-103990132D01*
X132154150Y-103977520D01*
X132176329Y-103967030D01*
X132199428Y-103958765D01*
X132223227Y-103952804D01*
X132247495Y-103949204D01*
X132271999Y-103948000D01*
X132922001Y-103948000D01*
X132946505Y-103949204D01*
X132946505Y-103949204D01*
G37*
D16*
G04 #@! TD*
G04 #@! TO.P,R5,2*
G04 #@! TO.N,Net-(Q1-Pad1)*
X132597000Y-104648000D03*
D13*
G04 #@! TO.N,+5V*
G04 #@! TO.C,R5*
G36*
X130896505Y-103949204D02*
G01*
X130920773Y-103952804D01*
X130944572Y-103958765D01*
X130967671Y-103967030D01*
X130989850Y-103977520D01*
X131010893Y-103990132D01*
X131030599Y-104004747D01*
X131048777Y-104021223D01*
X131065253Y-104039401D01*
X131079868Y-104059107D01*
X131092480Y-104080150D01*
X131102970Y-104102329D01*
X131111235Y-104125428D01*
X131117196Y-104149227D01*
X131120796Y-104173495D01*
X131122000Y-104197999D01*
X131122000Y-105098001D01*
X131120796Y-105122505D01*
X131117196Y-105146773D01*
X131111235Y-105170572D01*
X131102970Y-105193671D01*
X131092480Y-105215850D01*
X131079868Y-105236893D01*
X131065253Y-105256599D01*
X131048777Y-105274777D01*
X131030599Y-105291253D01*
X131010893Y-105305868D01*
X130989850Y-105318480D01*
X130967671Y-105328970D01*
X130944572Y-105337235D01*
X130920773Y-105343196D01*
X130896505Y-105346796D01*
X130872001Y-105348000D01*
X130221999Y-105348000D01*
X130197495Y-105346796D01*
X130173227Y-105343196D01*
X130149428Y-105337235D01*
X130126329Y-105328970D01*
X130104150Y-105318480D01*
X130083107Y-105305868D01*
X130063401Y-105291253D01*
X130045223Y-105274777D01*
X130028747Y-105256599D01*
X130014132Y-105236893D01*
X130001520Y-105215850D01*
X129991030Y-105193671D01*
X129982765Y-105170572D01*
X129976804Y-105146773D01*
X129973204Y-105122505D01*
X129972000Y-105098001D01*
X129972000Y-104197999D01*
X129973204Y-104173495D01*
X129976804Y-104149227D01*
X129982765Y-104125428D01*
X129991030Y-104102329D01*
X130001520Y-104080150D01*
X130014132Y-104059107D01*
X130028747Y-104039401D01*
X130045223Y-104021223D01*
X130063401Y-104004747D01*
X130083107Y-103990132D01*
X130104150Y-103977520D01*
X130126329Y-103967030D01*
X130149428Y-103958765D01*
X130173227Y-103952804D01*
X130197495Y-103949204D01*
X130221999Y-103948000D01*
X130872001Y-103948000D01*
X130896505Y-103949204D01*
X130896505Y-103949204D01*
G37*
D16*
G04 #@! TD*
G04 #@! TO.P,R5,1*
G04 #@! TO.N,+5V*
X130547000Y-104648000D03*
D13*
G04 #@! TO.N,Net-(R2-Pad1)*
G04 #@! TO.C,R2*
G36*
X94708505Y-110415204D02*
G01*
X94732773Y-110418804D01*
X94756572Y-110424765D01*
X94779671Y-110433030D01*
X94801850Y-110443520D01*
X94822893Y-110456132D01*
X94842599Y-110470747D01*
X94860777Y-110487223D01*
X94877253Y-110505401D01*
X94891868Y-110525107D01*
X94904480Y-110546150D01*
X94914970Y-110568329D01*
X94923235Y-110591428D01*
X94929196Y-110615227D01*
X94932796Y-110639495D01*
X94934000Y-110663999D01*
X94934000Y-111314001D01*
X94932796Y-111338505D01*
X94929196Y-111362773D01*
X94923235Y-111386572D01*
X94914970Y-111409671D01*
X94904480Y-111431850D01*
X94891868Y-111452893D01*
X94877253Y-111472599D01*
X94860777Y-111490777D01*
X94842599Y-111507253D01*
X94822893Y-111521868D01*
X94801850Y-111534480D01*
X94779671Y-111544970D01*
X94756572Y-111553235D01*
X94732773Y-111559196D01*
X94708505Y-111562796D01*
X94684001Y-111564000D01*
X93783999Y-111564000D01*
X93759495Y-111562796D01*
X93735227Y-111559196D01*
X93711428Y-111553235D01*
X93688329Y-111544970D01*
X93666150Y-111534480D01*
X93645107Y-111521868D01*
X93625401Y-111507253D01*
X93607223Y-111490777D01*
X93590747Y-111472599D01*
X93576132Y-111452893D01*
X93563520Y-111431850D01*
X93553030Y-111409671D01*
X93544765Y-111386572D01*
X93538804Y-111362773D01*
X93535204Y-111338505D01*
X93534000Y-111314001D01*
X93534000Y-110663999D01*
X93535204Y-110639495D01*
X93538804Y-110615227D01*
X93544765Y-110591428D01*
X93553030Y-110568329D01*
X93563520Y-110546150D01*
X93576132Y-110525107D01*
X93590747Y-110505401D01*
X93607223Y-110487223D01*
X93625401Y-110470747D01*
X93645107Y-110456132D01*
X93666150Y-110443520D01*
X93688329Y-110433030D01*
X93711428Y-110424765D01*
X93735227Y-110418804D01*
X93759495Y-110415204D01*
X93783999Y-110414000D01*
X94684001Y-110414000D01*
X94708505Y-110415204D01*
X94708505Y-110415204D01*
G37*
D16*
G04 #@! TD*
G04 #@! TO.P,R2,1*
G04 #@! TO.N,Net-(R2-Pad1)*
X94234000Y-110989000D03*
D13*
G04 #@! TO.N,Net-(C4-Pad1)*
G04 #@! TO.C,R2*
G36*
X94708505Y-112465204D02*
G01*
X94732773Y-112468804D01*
X94756572Y-112474765D01*
X94779671Y-112483030D01*
X94801850Y-112493520D01*
X94822893Y-112506132D01*
X94842599Y-112520747D01*
X94860777Y-112537223D01*
X94877253Y-112555401D01*
X94891868Y-112575107D01*
X94904480Y-112596150D01*
X94914970Y-112618329D01*
X94923235Y-112641428D01*
X94929196Y-112665227D01*
X94932796Y-112689495D01*
X94934000Y-112713999D01*
X94934000Y-113364001D01*
X94932796Y-113388505D01*
X94929196Y-113412773D01*
X94923235Y-113436572D01*
X94914970Y-113459671D01*
X94904480Y-113481850D01*
X94891868Y-113502893D01*
X94877253Y-113522599D01*
X94860777Y-113540777D01*
X94842599Y-113557253D01*
X94822893Y-113571868D01*
X94801850Y-113584480D01*
X94779671Y-113594970D01*
X94756572Y-113603235D01*
X94732773Y-113609196D01*
X94708505Y-113612796D01*
X94684001Y-113614000D01*
X93783999Y-113614000D01*
X93759495Y-113612796D01*
X93735227Y-113609196D01*
X93711428Y-113603235D01*
X93688329Y-113594970D01*
X93666150Y-113584480D01*
X93645107Y-113571868D01*
X93625401Y-113557253D01*
X93607223Y-113540777D01*
X93590747Y-113522599D01*
X93576132Y-113502893D01*
X93563520Y-113481850D01*
X93553030Y-113459671D01*
X93544765Y-113436572D01*
X93538804Y-113412773D01*
X93535204Y-113388505D01*
X93534000Y-113364001D01*
X93534000Y-112713999D01*
X93535204Y-112689495D01*
X93538804Y-112665227D01*
X93544765Y-112641428D01*
X93553030Y-112618329D01*
X93563520Y-112596150D01*
X93576132Y-112575107D01*
X93590747Y-112555401D01*
X93607223Y-112537223D01*
X93625401Y-112520747D01*
X93645107Y-112506132D01*
X93666150Y-112493520D01*
X93688329Y-112483030D01*
X93711428Y-112474765D01*
X93735227Y-112468804D01*
X93759495Y-112465204D01*
X93783999Y-112464000D01*
X94684001Y-112464000D01*
X94708505Y-112465204D01*
X94708505Y-112465204D01*
G37*
D16*
G04 #@! TD*
G04 #@! TO.P,R2,2*
G04 #@! TO.N,Net-(C4-Pad1)*
X94234000Y-113039000D03*
D13*
G04 #@! TO.N,+5V*
G04 #@! TO.C,R3*
G36*
X110583505Y-107739204D02*
G01*
X110607773Y-107742804D01*
X110631572Y-107748765D01*
X110654671Y-107757030D01*
X110676850Y-107767520D01*
X110697893Y-107780132D01*
X110717599Y-107794747D01*
X110735777Y-107811223D01*
X110752253Y-107829401D01*
X110766868Y-107849107D01*
X110779480Y-107870150D01*
X110789970Y-107892329D01*
X110798235Y-107915428D01*
X110804196Y-107939227D01*
X110807796Y-107963495D01*
X110809000Y-107987999D01*
X110809000Y-108638001D01*
X110807796Y-108662505D01*
X110804196Y-108686773D01*
X110798235Y-108710572D01*
X110789970Y-108733671D01*
X110779480Y-108755850D01*
X110766868Y-108776893D01*
X110752253Y-108796599D01*
X110735777Y-108814777D01*
X110717599Y-108831253D01*
X110697893Y-108845868D01*
X110676850Y-108858480D01*
X110654671Y-108868970D01*
X110631572Y-108877235D01*
X110607773Y-108883196D01*
X110583505Y-108886796D01*
X110559001Y-108888000D01*
X109658999Y-108888000D01*
X109634495Y-108886796D01*
X109610227Y-108883196D01*
X109586428Y-108877235D01*
X109563329Y-108868970D01*
X109541150Y-108858480D01*
X109520107Y-108845868D01*
X109500401Y-108831253D01*
X109482223Y-108814777D01*
X109465747Y-108796599D01*
X109451132Y-108776893D01*
X109438520Y-108755850D01*
X109428030Y-108733671D01*
X109419765Y-108710572D01*
X109413804Y-108686773D01*
X109410204Y-108662505D01*
X109409000Y-108638001D01*
X109409000Y-107987999D01*
X109410204Y-107963495D01*
X109413804Y-107939227D01*
X109419765Y-107915428D01*
X109428030Y-107892329D01*
X109438520Y-107870150D01*
X109451132Y-107849107D01*
X109465747Y-107829401D01*
X109482223Y-107811223D01*
X109500401Y-107794747D01*
X109520107Y-107780132D01*
X109541150Y-107767520D01*
X109563329Y-107757030D01*
X109586428Y-107748765D01*
X109610227Y-107742804D01*
X109634495Y-107739204D01*
X109658999Y-107738000D01*
X110559001Y-107738000D01*
X110583505Y-107739204D01*
X110583505Y-107739204D01*
G37*
D16*
G04 #@! TD*
G04 #@! TO.P,R3,1*
G04 #@! TO.N,+5V*
X110109000Y-108313000D03*
D13*
G04 #@! TO.N,Net-(R3-Pad2)*
G04 #@! TO.C,R3*
G36*
X110583505Y-109789204D02*
G01*
X110607773Y-109792804D01*
X110631572Y-109798765D01*
X110654671Y-109807030D01*
X110676850Y-109817520D01*
X110697893Y-109830132D01*
X110717599Y-109844747D01*
X110735777Y-109861223D01*
X110752253Y-109879401D01*
X110766868Y-109899107D01*
X110779480Y-109920150D01*
X110789970Y-109942329D01*
X110798235Y-109965428D01*
X110804196Y-109989227D01*
X110807796Y-110013495D01*
X110809000Y-110037999D01*
X110809000Y-110688001D01*
X110807796Y-110712505D01*
X110804196Y-110736773D01*
X110798235Y-110760572D01*
X110789970Y-110783671D01*
X110779480Y-110805850D01*
X110766868Y-110826893D01*
X110752253Y-110846599D01*
X110735777Y-110864777D01*
X110717599Y-110881253D01*
X110697893Y-110895868D01*
X110676850Y-110908480D01*
X110654671Y-110918970D01*
X110631572Y-110927235D01*
X110607773Y-110933196D01*
X110583505Y-110936796D01*
X110559001Y-110938000D01*
X109658999Y-110938000D01*
X109634495Y-110936796D01*
X109610227Y-110933196D01*
X109586428Y-110927235D01*
X109563329Y-110918970D01*
X109541150Y-110908480D01*
X109520107Y-110895868D01*
X109500401Y-110881253D01*
X109482223Y-110864777D01*
X109465747Y-110846599D01*
X109451132Y-110826893D01*
X109438520Y-110805850D01*
X109428030Y-110783671D01*
X109419765Y-110760572D01*
X109413804Y-110736773D01*
X109410204Y-110712505D01*
X109409000Y-110688001D01*
X109409000Y-110037999D01*
X109410204Y-110013495D01*
X109413804Y-109989227D01*
X109419765Y-109965428D01*
X109428030Y-109942329D01*
X109438520Y-109920150D01*
X109451132Y-109899107D01*
X109465747Y-109879401D01*
X109482223Y-109861223D01*
X109500401Y-109844747D01*
X109520107Y-109830132D01*
X109541150Y-109817520D01*
X109563329Y-109807030D01*
X109586428Y-109798765D01*
X109610227Y-109792804D01*
X109634495Y-109789204D01*
X109658999Y-109788000D01*
X110559001Y-109788000D01*
X110583505Y-109789204D01*
X110583505Y-109789204D01*
G37*
D16*
G04 #@! TD*
G04 #@! TO.P,R3,2*
G04 #@! TO.N,Net-(R3-Pad2)*
X110109000Y-110363000D03*
D13*
G04 #@! TO.N,GND*
G04 #@! TO.C,R4*
G36*
X110710505Y-114615204D02*
G01*
X110734773Y-114618804D01*
X110758572Y-114624765D01*
X110781671Y-114633030D01*
X110803850Y-114643520D01*
X110824893Y-114656132D01*
X110844599Y-114670747D01*
X110862777Y-114687223D01*
X110879253Y-114705401D01*
X110893868Y-114725107D01*
X110906480Y-114746150D01*
X110916970Y-114768329D01*
X110925235Y-114791428D01*
X110931196Y-114815227D01*
X110934796Y-114839495D01*
X110936000Y-114863999D01*
X110936000Y-115514001D01*
X110934796Y-115538505D01*
X110931196Y-115562773D01*
X110925235Y-115586572D01*
X110916970Y-115609671D01*
X110906480Y-115631850D01*
X110893868Y-115652893D01*
X110879253Y-115672599D01*
X110862777Y-115690777D01*
X110844599Y-115707253D01*
X110824893Y-115721868D01*
X110803850Y-115734480D01*
X110781671Y-115744970D01*
X110758572Y-115753235D01*
X110734773Y-115759196D01*
X110710505Y-115762796D01*
X110686001Y-115764000D01*
X109785999Y-115764000D01*
X109761495Y-115762796D01*
X109737227Y-115759196D01*
X109713428Y-115753235D01*
X109690329Y-115744970D01*
X109668150Y-115734480D01*
X109647107Y-115721868D01*
X109627401Y-115707253D01*
X109609223Y-115690777D01*
X109592747Y-115672599D01*
X109578132Y-115652893D01*
X109565520Y-115631850D01*
X109555030Y-115609671D01*
X109546765Y-115586572D01*
X109540804Y-115562773D01*
X109537204Y-115538505D01*
X109536000Y-115514001D01*
X109536000Y-114863999D01*
X109537204Y-114839495D01*
X109540804Y-114815227D01*
X109546765Y-114791428D01*
X109555030Y-114768329D01*
X109565520Y-114746150D01*
X109578132Y-114725107D01*
X109592747Y-114705401D01*
X109609223Y-114687223D01*
X109627401Y-114670747D01*
X109647107Y-114656132D01*
X109668150Y-114643520D01*
X109690329Y-114633030D01*
X109713428Y-114624765D01*
X109737227Y-114618804D01*
X109761495Y-114615204D01*
X109785999Y-114614000D01*
X110686001Y-114614000D01*
X110710505Y-114615204D01*
X110710505Y-114615204D01*
G37*
D16*
G04 #@! TD*
G04 #@! TO.P,R4,2*
G04 #@! TO.N,GND*
X110236000Y-115189000D03*
D13*
G04 #@! TO.N,Net-(R3-Pad2)*
G04 #@! TO.C,R4*
G36*
X110710505Y-112565204D02*
G01*
X110734773Y-112568804D01*
X110758572Y-112574765D01*
X110781671Y-112583030D01*
X110803850Y-112593520D01*
X110824893Y-112606132D01*
X110844599Y-112620747D01*
X110862777Y-112637223D01*
X110879253Y-112655401D01*
X110893868Y-112675107D01*
X110906480Y-112696150D01*
X110916970Y-112718329D01*
X110925235Y-112741428D01*
X110931196Y-112765227D01*
X110934796Y-112789495D01*
X110936000Y-112813999D01*
X110936000Y-113464001D01*
X110934796Y-113488505D01*
X110931196Y-113512773D01*
X110925235Y-113536572D01*
X110916970Y-113559671D01*
X110906480Y-113581850D01*
X110893868Y-113602893D01*
X110879253Y-113622599D01*
X110862777Y-113640777D01*
X110844599Y-113657253D01*
X110824893Y-113671868D01*
X110803850Y-113684480D01*
X110781671Y-113694970D01*
X110758572Y-113703235D01*
X110734773Y-113709196D01*
X110710505Y-113712796D01*
X110686001Y-113714000D01*
X109785999Y-113714000D01*
X109761495Y-113712796D01*
X109737227Y-113709196D01*
X109713428Y-113703235D01*
X109690329Y-113694970D01*
X109668150Y-113684480D01*
X109647107Y-113671868D01*
X109627401Y-113657253D01*
X109609223Y-113640777D01*
X109592747Y-113622599D01*
X109578132Y-113602893D01*
X109565520Y-113581850D01*
X109555030Y-113559671D01*
X109546765Y-113536572D01*
X109540804Y-113512773D01*
X109537204Y-113488505D01*
X109536000Y-113464001D01*
X109536000Y-112813999D01*
X109537204Y-112789495D01*
X109540804Y-112765227D01*
X109546765Y-112741428D01*
X109555030Y-112718329D01*
X109565520Y-112696150D01*
X109578132Y-112675107D01*
X109592747Y-112655401D01*
X109609223Y-112637223D01*
X109627401Y-112620747D01*
X109647107Y-112606132D01*
X109668150Y-112593520D01*
X109690329Y-112583030D01*
X109713428Y-112574765D01*
X109737227Y-112568804D01*
X109761495Y-112565204D01*
X109785999Y-112564000D01*
X110686001Y-112564000D01*
X110710505Y-112565204D01*
X110710505Y-112565204D01*
G37*
D16*
G04 #@! TD*
G04 #@! TO.P,R4,1*
G04 #@! TO.N,Net-(R3-Pad2)*
X110236000Y-113139000D03*
D25*
G04 #@! TO.P,U1,1*
G04 #@! TO.N,GND*
X96774000Y-100584000D03*
D26*
G04 #@! TO.P,U1,2*
G04 #@! TO.N,Net-(C5-Pad1)*
X94234000Y-100584000D03*
G04 #@! TO.P,U1,3*
G04 #@! TO.N,Net-(C2-Pad1)*
X91694000Y-100584000D03*
G04 #@! TO.P,U1,4*
G04 #@! TO.N,Net-(C6-Pad2)*
X89154000Y-100584000D03*
G04 #@! TO.P,U1,5*
G04 #@! TO.N,Net-(C1-Pad1)*
X89154000Y-108204000D03*
G04 #@! TO.P,U1,6*
G04 #@! TO.N,Net-(C6-Pad1)*
X91694000Y-108204000D03*
G04 #@! TO.P,U1,7*
G04 #@! TO.N,Net-(R2-Pad1)*
X94234000Y-108204000D03*
G04 #@! TO.P,U1,8*
G04 #@! TO.N,Net-(R3-Pad2)*
X96774000Y-108204000D03*
G04 #@! TD*
D27*
G04 #@! TO.N,GND*
X101092000Y-92964000D03*
X101092000Y-96774000D03*
X85598000Y-118110000D03*
X99060000Y-118364000D03*
X110236000Y-118110000D03*
X120904000Y-110490000D03*
X115824000Y-86360000D03*
X127508000Y-86360000D03*
X162052000Y-106426000D03*
G04 #@! TD*
D28*
G04 #@! TO.N,GND*
X96774000Y-96839000D02*
X96709000Y-96774000D01*
D29*
X96709000Y-100519000D02*
X96774000Y-100584000D01*
X96709000Y-96774000D02*
X96709000Y-100519000D01*
X96709000Y-92964000D02*
X101092000Y-92964000D01*
X96709000Y-96774000D02*
X101092000Y-96774000D01*
X89154000Y-118110000D02*
X89278000Y-118234000D01*
X92784000Y-118234000D02*
X94234000Y-118234000D01*
X89278000Y-118234000D02*
X92784000Y-118234000D01*
X89154000Y-113284000D02*
X89154000Y-118110000D01*
X89151000Y-113281000D02*
X89154000Y-113284000D01*
X86487000Y-113281000D02*
X89151000Y-113281000D01*
X89154000Y-118110000D02*
X85598000Y-118110000D01*
X94234000Y-118234000D02*
X98930000Y-118234000D01*
X98930000Y-118234000D02*
X99060000Y-118364000D01*
X110236000Y-115189000D02*
X110236000Y-118110000D01*
D28*
X120904000Y-108309500D02*
X120904000Y-110490000D01*
D29*
X120904000Y-86360000D02*
X115824000Y-86360000D01*
X123444000Y-86360000D02*
X127508000Y-86360000D01*
X162112000Y-106366000D02*
X162052000Y-106426000D01*
X167216000Y-106366000D02*
X162112000Y-106366000D01*
G04 #@! TO.N,+12V*
X76962000Y-99314000D02*
X76962000Y-101092000D01*
X77470000Y-101600000D02*
X77470000Y-104140000D01*
X76962000Y-101092000D02*
X77470000Y-101600000D01*
X76962000Y-96774000D02*
X76962000Y-99314000D01*
D28*
G04 #@! TO.N,Net-(C1-Pad1)*
X89154000Y-108204000D02*
X89154000Y-110874000D01*
D29*
X86614000Y-108204000D02*
X89154000Y-108204000D01*
X84074000Y-108204000D02*
X86614000Y-108204000D01*
D28*
X86487000Y-108331000D02*
X86614000Y-108204000D01*
D29*
X86487000Y-109821000D02*
X86487000Y-108331000D01*
X86487000Y-110871000D02*
X86487000Y-109821000D01*
X82169000Y-108204000D02*
X84074000Y-108204000D01*
D28*
G04 #@! TO.N,Net-(C4-Pad1)*
X94234000Y-113039000D02*
X94234000Y-115824000D01*
G04 #@! TO.N,Net-(C5-Pad1)*
X94234000Y-96839000D02*
X94299000Y-96774000D01*
D29*
X94299000Y-100519000D02*
X94234000Y-100584000D01*
X94299000Y-96774000D02*
X94299000Y-100519000D01*
D28*
G04 #@! TO.N,Net-(C6-Pad1)*
X88646000Y-105156000D02*
X85090000Y-105156000D01*
X91694000Y-108204000D02*
X88646000Y-105156000D01*
G04 #@! TO.N,Net-(C6-Pad2)*
X86992000Y-102746000D02*
X89154000Y-100584000D01*
X85090000Y-102746000D02*
X86992000Y-102746000D01*
D29*
X92710000Y-104140000D02*
X102362000Y-104140000D01*
X89154000Y-100584000D02*
X92710000Y-104140000D01*
G04 #@! TO.N,+5V*
X110109000Y-104267000D02*
X109982000Y-104140000D01*
X110109000Y-108313000D02*
X110109000Y-106807000D01*
X110109000Y-106807000D02*
X110109000Y-104267000D01*
X120798500Y-104140000D02*
X120904000Y-104034500D01*
X109982000Y-104140000D02*
X120798500Y-104140000D01*
X129933500Y-104034500D02*
X130547000Y-104648000D01*
X120904000Y-104034500D02*
X129933500Y-104034500D01*
X130547000Y-111397000D02*
X130622000Y-111472000D01*
X130547000Y-104648000D02*
X130547000Y-111397000D01*
X120904000Y-119126000D02*
X120904000Y-117094000D01*
X126526000Y-111472000D02*
X130622000Y-111472000D01*
X120904000Y-117094000D02*
X126526000Y-111472000D01*
X120904000Y-119126000D02*
X118364000Y-119126000D01*
G04 #@! TO.N,Net-(J1-Pad1)*
X140398500Y-107324000D02*
X140398500Y-108526000D01*
X131572000Y-113922000D02*
X133220000Y-115570000D01*
X131572000Y-113572000D02*
X131572000Y-113922000D01*
X133220000Y-115570000D02*
X138430000Y-115570000D01*
X138430000Y-115570000D02*
X140398500Y-113601500D01*
X140412498Y-108789498D02*
X140398500Y-108775500D01*
X152781000Y-108789498D02*
X140412498Y-108789498D01*
X140398500Y-113601500D02*
X140398500Y-108775500D01*
X140398500Y-108775500D02*
X140398500Y-107324000D01*
X151384000Y-119126000D02*
X149606000Y-119126000D01*
X152781000Y-108789498D02*
X152781000Y-117729000D01*
X152781000Y-117729000D02*
X151384000Y-119126000D01*
X147066000Y-119126000D02*
X149606000Y-119126000D01*
X152781000Y-108789498D02*
X152781000Y-100965000D01*
X154880000Y-98866000D02*
X167216000Y-98866000D01*
X152781000Y-100965000D02*
X154880000Y-98866000D01*
D28*
G04 #@! TO.N,/D-*
X158262000Y-101366000D02*
X158242000Y-101346000D01*
X167201000Y-101366000D02*
X158262000Y-101366000D01*
G04 #@! TO.N,/D+*
X158262000Y-103866000D02*
X158242000Y-103886000D01*
X167226000Y-103866000D02*
X158262000Y-103866000D01*
D29*
G04 #@! TO.N,Net-(Q1-Pad1)*
X132522000Y-104723000D02*
X132597000Y-104648000D01*
X132522000Y-111472000D02*
X132522000Y-104723000D01*
X135128000Y-102117000D02*
X135128000Y-98552000D01*
X132597000Y-104648000D02*
X135128000Y-102117000D01*
G04 #@! TO.N,Net-(C2-Pad1)*
X91449000Y-92964000D02*
X94299000Y-92964000D01*
X91449000Y-100339000D02*
X91694000Y-100584000D01*
G04 #@! TO.N,Net-(D2-Pad1)*
X136398000Y-97282000D02*
X134874000Y-95758000D01*
X134874000Y-95758000D02*
X128524000Y-95758000D01*
X140398500Y-99272498D02*
X140398500Y-104599000D01*
X138408002Y-97282000D02*
X140398500Y-99272498D01*
X140398500Y-104599000D02*
X140398500Y-105274000D01*
X136398000Y-97282000D02*
X138408002Y-97282000D01*
D28*
G04 #@! TO.N,Net-(R2-Pad1)*
X94234000Y-108204000D02*
X94234000Y-110989000D01*
D29*
G04 #@! TO.N,Net-(R3-Pad2)*
X103115000Y-108204000D02*
X103124000Y-108213000D01*
X96774000Y-108204000D02*
X103115000Y-108204000D01*
X105274000Y-110363000D02*
X103115000Y-108204000D01*
X110109000Y-110363000D02*
X105274000Y-110363000D01*
X110236000Y-110490000D02*
X110109000Y-110363000D01*
X110236000Y-113139000D02*
X110236000Y-110490000D01*
G04 #@! TO.N,Net-(C1-Pad1)*
X81133000Y-109240000D02*
X82169000Y-108204000D01*
X76270000Y-109240000D02*
X81133000Y-109240000D01*
X82169000Y-108204000D02*
X82169000Y-97917000D01*
X88724000Y-92964000D02*
X89399000Y-92964000D01*
X82169000Y-97917000D02*
X87122000Y-92964000D01*
X87122000Y-92964000D02*
X88724000Y-92964000D01*
X87122000Y-92964000D02*
X87122000Y-86614000D01*
X87122000Y-86614000D02*
X89662000Y-86614000D01*
G04 #@! TD*
M02*
