G04 #@! TF.GenerationSoftware,KiCad,Pcbnew,5.1.4-e60b266~84~ubuntu18.04.1*
G04 #@! TF.CreationDate,2019-09-29T22:34:52+02:00*
G04 #@! TF.ProjectId,Circuit,43697263-7569-4742-9e6b-696361645f70,rev?*
G04 #@! TF.SameCoordinates,Original*
G04 #@! TF.FileFunction,Legend,Top*
G04 #@! TF.FilePolarity,Positive*
%FSLAX46Y46*%
G04 Gerber Fmt 4.6, Leading zero omitted, Abs format (unit mm)*
G04 Created by KiCad (PCBNEW 5.1.4-e60b266~84~ubuntu18.04.1) date 2019-09-29 22:34:52*
%MOMM*%
%LPD*%
G04 APERTURE LIST*
%ADD10C,0.300000*%
%ADD11C,0.187500*%
%ADD12C,0.120000*%
%ADD13C,0.100000*%
%ADD14C,0.150000*%
G04 APERTURE END LIST*
D10*
X92750571Y-87292571D02*
X91893428Y-87292571D01*
X92322000Y-87292571D02*
X92322000Y-85792571D01*
X92179142Y-86006857D01*
X92036285Y-86149714D01*
X91893428Y-86221142D01*
X93322000Y-85935428D02*
X93393428Y-85864000D01*
X93536285Y-85792571D01*
X93893428Y-85792571D01*
X94036285Y-85864000D01*
X94107714Y-85935428D01*
X94179142Y-86078285D01*
X94179142Y-86221142D01*
X94107714Y-86435428D01*
X93250571Y-87292571D01*
X94179142Y-87292571D01*
X94607714Y-85792571D02*
X95107714Y-87292571D01*
X95607714Y-85792571D01*
X97893428Y-87292571D02*
X97893428Y-86506857D01*
X97822000Y-86364000D01*
X97679142Y-86292571D01*
X97393428Y-86292571D01*
X97250571Y-86364000D01*
X97893428Y-87221142D02*
X97750571Y-87292571D01*
X97393428Y-87292571D01*
X97250571Y-87221142D01*
X97179142Y-87078285D01*
X97179142Y-86935428D01*
X97250571Y-86792571D01*
X97393428Y-86721142D01*
X97750571Y-86721142D01*
X97893428Y-86649714D01*
X98393428Y-86292571D02*
X98964857Y-86292571D01*
X98607714Y-87292571D02*
X98607714Y-86006857D01*
X98679142Y-85864000D01*
X98822000Y-85792571D01*
X98964857Y-85792571D01*
X99250571Y-86292571D02*
X99822000Y-86292571D01*
X99464857Y-85792571D02*
X99464857Y-87078285D01*
X99536285Y-87221142D01*
X99679142Y-87292571D01*
X99822000Y-87292571D01*
X100893428Y-87221142D02*
X100750571Y-87292571D01*
X100464857Y-87292571D01*
X100322000Y-87221142D01*
X100250571Y-87078285D01*
X100250571Y-86506857D01*
X100322000Y-86364000D01*
X100464857Y-86292571D01*
X100750571Y-86292571D01*
X100893428Y-86364000D01*
X100964857Y-86506857D01*
X100964857Y-86649714D01*
X100250571Y-86792571D01*
X101607714Y-87292571D02*
X101607714Y-86292571D01*
X101607714Y-86578285D02*
X101679142Y-86435428D01*
X101750571Y-86364000D01*
X101893428Y-86292571D01*
X102036285Y-86292571D01*
X103464857Y-86292571D02*
X104036285Y-86292571D01*
X103679142Y-87292571D02*
X103679142Y-86006857D01*
X103750571Y-85864000D01*
X103893428Y-85792571D01*
X104036285Y-85792571D01*
X105179142Y-86292571D02*
X105179142Y-87292571D01*
X104536285Y-86292571D02*
X104536285Y-87078285D01*
X104607714Y-87221142D01*
X104750571Y-87292571D01*
X104964857Y-87292571D01*
X105107714Y-87221142D01*
X105179142Y-87149714D01*
X105822000Y-87221142D02*
X105964857Y-87292571D01*
X106250571Y-87292571D01*
X106393428Y-87221142D01*
X106464857Y-87078285D01*
X106464857Y-87006857D01*
X106393428Y-86864000D01*
X106250571Y-86792571D01*
X106036285Y-86792571D01*
X105893428Y-86721142D01*
X105822000Y-86578285D01*
X105822000Y-86506857D01*
X105893428Y-86364000D01*
X106036285Y-86292571D01*
X106250571Y-86292571D01*
X106393428Y-86364000D01*
X107679142Y-87221142D02*
X107536285Y-87292571D01*
X107250571Y-87292571D01*
X107107714Y-87221142D01*
X107036285Y-87078285D01*
X107036285Y-86506857D01*
X107107714Y-86364000D01*
X107250571Y-86292571D01*
X107536285Y-86292571D01*
X107679142Y-86364000D01*
X107750571Y-86506857D01*
X107750571Y-86649714D01*
X107036285Y-86792571D01*
D11*
X154787285Y-104225285D02*
X154787285Y-103475285D01*
X154965857Y-103475285D01*
X155073000Y-103511000D01*
X155144428Y-103582428D01*
X155180142Y-103653857D01*
X155215857Y-103796714D01*
X155215857Y-103903857D01*
X155180142Y-104046714D01*
X155144428Y-104118142D01*
X155073000Y-104189571D01*
X154965857Y-104225285D01*
X154787285Y-104225285D01*
X155537285Y-103939571D02*
X156108714Y-103939571D01*
X155823000Y-104225285D02*
X155823000Y-103653857D01*
X154787285Y-101685285D02*
X154787285Y-100935285D01*
X154965857Y-100935285D01*
X155073000Y-100971000D01*
X155144428Y-101042428D01*
X155180142Y-101113857D01*
X155215857Y-101256714D01*
X155215857Y-101363857D01*
X155180142Y-101506714D01*
X155144428Y-101578142D01*
X155073000Y-101649571D01*
X154965857Y-101685285D01*
X154787285Y-101685285D01*
X155537285Y-101399571D02*
X156108714Y-101399571D01*
D10*
X148050285Y-115510571D02*
X147336000Y-115510571D01*
X147264571Y-116224857D01*
X147336000Y-116153428D01*
X147478857Y-116082000D01*
X147836000Y-116082000D01*
X147978857Y-116153428D01*
X148050285Y-116224857D01*
X148121714Y-116367714D01*
X148121714Y-116724857D01*
X148050285Y-116867714D01*
X147978857Y-116939142D01*
X147836000Y-117010571D01*
X147478857Y-117010571D01*
X147336000Y-116939142D01*
X147264571Y-116867714D01*
X148550285Y-115510571D02*
X149050285Y-117010571D01*
X149550285Y-115510571D01*
X119094285Y-115510571D02*
X118380000Y-115510571D01*
X118308571Y-116224857D01*
X118380000Y-116153428D01*
X118522857Y-116082000D01*
X118880000Y-116082000D01*
X119022857Y-116153428D01*
X119094285Y-116224857D01*
X119165714Y-116367714D01*
X119165714Y-116724857D01*
X119094285Y-116867714D01*
X119022857Y-116939142D01*
X118880000Y-117010571D01*
X118522857Y-117010571D01*
X118380000Y-116939142D01*
X118308571Y-116867714D01*
X119594285Y-115510571D02*
X120094285Y-117010571D01*
X120594285Y-115510571D01*
X120777142Y-88658000D02*
X120634285Y-88586571D01*
X120420000Y-88586571D01*
X120205714Y-88658000D01*
X120062857Y-88800857D01*
X119991428Y-88943714D01*
X119920000Y-89229428D01*
X119920000Y-89443714D01*
X119991428Y-89729428D01*
X120062857Y-89872285D01*
X120205714Y-90015142D01*
X120420000Y-90086571D01*
X120562857Y-90086571D01*
X120777142Y-90015142D01*
X120848571Y-89943714D01*
X120848571Y-89443714D01*
X120562857Y-89443714D01*
X121491428Y-90086571D02*
X121491428Y-88586571D01*
X122348571Y-90086571D01*
X122348571Y-88586571D01*
X123062857Y-90086571D02*
X123062857Y-88586571D01*
X123420000Y-88586571D01*
X123634285Y-88658000D01*
X123777142Y-88800857D01*
X123848571Y-88943714D01*
X123920000Y-89229428D01*
X123920000Y-89443714D01*
X123848571Y-89729428D01*
X123777142Y-89872285D01*
X123634285Y-90015142D01*
X123420000Y-90086571D01*
X123062857Y-90086571D01*
X80097428Y-95928571D02*
X79240285Y-95928571D01*
X79668857Y-95928571D02*
X79668857Y-94428571D01*
X79526000Y-94642857D01*
X79383142Y-94785714D01*
X79240285Y-94857142D01*
X80668857Y-94571428D02*
X80740285Y-94500000D01*
X80883142Y-94428571D01*
X81240285Y-94428571D01*
X81383142Y-94500000D01*
X81454571Y-94571428D01*
X81526000Y-94714285D01*
X81526000Y-94857142D01*
X81454571Y-95071428D01*
X80597428Y-95928571D01*
X81526000Y-95928571D01*
X81954571Y-94428571D02*
X82454571Y-95928571D01*
X82954571Y-94428571D01*
X143046857Y-89832571D02*
X143046857Y-88332571D01*
X143546857Y-89404000D01*
X144046857Y-88332571D01*
X144046857Y-89832571D01*
X145404000Y-89832571D02*
X145404000Y-89046857D01*
X145332571Y-88904000D01*
X145189714Y-88832571D01*
X144904000Y-88832571D01*
X144761142Y-88904000D01*
X145404000Y-89761142D02*
X145261142Y-89832571D01*
X144904000Y-89832571D01*
X144761142Y-89761142D01*
X144689714Y-89618285D01*
X144689714Y-89475428D01*
X144761142Y-89332571D01*
X144904000Y-89261142D01*
X145261142Y-89261142D01*
X145404000Y-89189714D01*
X145904000Y-88832571D02*
X146475428Y-88832571D01*
X146118285Y-88332571D02*
X146118285Y-89618285D01*
X146189714Y-89761142D01*
X146332571Y-89832571D01*
X146475428Y-89832571D01*
X146975428Y-89832571D02*
X146975428Y-88832571D01*
X146975428Y-88332571D02*
X146904000Y-88404000D01*
X146975428Y-88475428D01*
X147046857Y-88404000D01*
X146975428Y-88332571D01*
X146975428Y-88475428D01*
X148332571Y-89832571D02*
X148332571Y-89046857D01*
X148261142Y-88904000D01*
X148118285Y-88832571D01*
X147832571Y-88832571D01*
X147689714Y-88904000D01*
X148332571Y-89761142D02*
X148189714Y-89832571D01*
X147832571Y-89832571D01*
X147689714Y-89761142D01*
X147618285Y-89618285D01*
X147618285Y-89475428D01*
X147689714Y-89332571D01*
X147832571Y-89261142D01*
X148189714Y-89261142D01*
X148332571Y-89189714D01*
X148975428Y-89761142D02*
X149118285Y-89832571D01*
X149404000Y-89832571D01*
X149546857Y-89761142D01*
X149618285Y-89618285D01*
X149618285Y-89546857D01*
X149546857Y-89404000D01*
X149404000Y-89332571D01*
X149189714Y-89332571D01*
X149046857Y-89261142D01*
X148975428Y-89118285D01*
X148975428Y-89046857D01*
X149046857Y-88904000D01*
X149189714Y-88832571D01*
X149404000Y-88832571D01*
X149546857Y-88904000D01*
X152189714Y-88404000D02*
X152046857Y-88332571D01*
X151832571Y-88332571D01*
X151618285Y-88404000D01*
X151475428Y-88546857D01*
X151404000Y-88689714D01*
X151332571Y-88975428D01*
X151332571Y-89189714D01*
X151404000Y-89475428D01*
X151475428Y-89618285D01*
X151618285Y-89761142D01*
X151832571Y-89832571D01*
X151975428Y-89832571D01*
X152189714Y-89761142D01*
X152261142Y-89689714D01*
X152261142Y-89189714D01*
X151975428Y-89189714D01*
X153689714Y-88404000D02*
X153546857Y-88332571D01*
X153332571Y-88332571D01*
X153118285Y-88404000D01*
X152975428Y-88546857D01*
X152904000Y-88689714D01*
X152832571Y-88975428D01*
X152832571Y-89189714D01*
X152904000Y-89475428D01*
X152975428Y-89618285D01*
X153118285Y-89761142D01*
X153332571Y-89832571D01*
X153475428Y-89832571D01*
X153689714Y-89761142D01*
X153761142Y-89689714D01*
X153761142Y-89189714D01*
X153475428Y-89189714D01*
X155546857Y-89832571D02*
X155546857Y-88332571D01*
X155904000Y-88332571D01*
X156118285Y-88404000D01*
X156261142Y-88546857D01*
X156332571Y-88689714D01*
X156404000Y-88975428D01*
X156404000Y-89189714D01*
X156332571Y-89475428D01*
X156261142Y-89618285D01*
X156118285Y-89761142D01*
X155904000Y-89832571D01*
X155546857Y-89832571D01*
X157618285Y-89761142D02*
X157475428Y-89832571D01*
X157189714Y-89832571D01*
X157046857Y-89761142D01*
X156975428Y-89618285D01*
X156975428Y-89046857D01*
X157046857Y-88904000D01*
X157189714Y-88832571D01*
X157475428Y-88832571D01*
X157618285Y-88904000D01*
X157689714Y-89046857D01*
X157689714Y-89189714D01*
X156975428Y-89332571D01*
X158261142Y-89761142D02*
X158404000Y-89832571D01*
X158689714Y-89832571D01*
X158832571Y-89761142D01*
X158904000Y-89618285D01*
X158904000Y-89546857D01*
X158832571Y-89404000D01*
X158689714Y-89332571D01*
X158475428Y-89332571D01*
X158332571Y-89261142D01*
X158261142Y-89118285D01*
X158261142Y-89046857D01*
X158332571Y-88904000D01*
X158475428Y-88832571D01*
X158689714Y-88832571D01*
X158832571Y-88904000D01*
X159546857Y-89832571D02*
X159546857Y-88832571D01*
X159546857Y-88332571D02*
X159475428Y-88404000D01*
X159546857Y-88475428D01*
X159618285Y-88404000D01*
X159546857Y-88332571D01*
X159546857Y-88475428D01*
X160904000Y-88832571D02*
X160904000Y-90046857D01*
X160832571Y-90189714D01*
X160761142Y-90261142D01*
X160618285Y-90332571D01*
X160404000Y-90332571D01*
X160261142Y-90261142D01*
X160904000Y-89761142D02*
X160761142Y-89832571D01*
X160475428Y-89832571D01*
X160332571Y-89761142D01*
X160261142Y-89689714D01*
X160189714Y-89546857D01*
X160189714Y-89118285D01*
X160261142Y-88975428D01*
X160332571Y-88904000D01*
X160475428Y-88832571D01*
X160761142Y-88832571D01*
X160904000Y-88904000D01*
X161618285Y-88832571D02*
X161618285Y-89832571D01*
X161618285Y-88975428D02*
X161689714Y-88904000D01*
X161832571Y-88832571D01*
X162046857Y-88832571D01*
X162189714Y-88904000D01*
X162261142Y-89046857D01*
X162261142Y-89832571D01*
X143296857Y-87292571D02*
X142439714Y-87292571D01*
X142868285Y-87292571D02*
X142868285Y-85792571D01*
X142725428Y-86006857D01*
X142582571Y-86149714D01*
X142439714Y-86221142D01*
X143868285Y-85935428D02*
X143939714Y-85864000D01*
X144082571Y-85792571D01*
X144439714Y-85792571D01*
X144582571Y-85864000D01*
X144654000Y-85935428D01*
X144725428Y-86078285D01*
X144725428Y-86221142D01*
X144654000Y-86435428D01*
X143796857Y-87292571D01*
X144725428Y-87292571D01*
X145154000Y-85792571D02*
X145654000Y-87292571D01*
X146154000Y-85792571D01*
X147582571Y-86292571D02*
X148154000Y-86292571D01*
X147796857Y-85792571D02*
X147796857Y-87078285D01*
X147868285Y-87221142D01*
X148011142Y-87292571D01*
X148154000Y-87292571D01*
X148868285Y-87292571D02*
X148725428Y-87221142D01*
X148654000Y-87149714D01*
X148582571Y-87006857D01*
X148582571Y-86578285D01*
X148654000Y-86435428D01*
X148725428Y-86364000D01*
X148868285Y-86292571D01*
X149082571Y-86292571D01*
X149225428Y-86364000D01*
X149296857Y-86435428D01*
X149368285Y-86578285D01*
X149368285Y-87006857D01*
X149296857Y-87149714D01*
X149225428Y-87221142D01*
X149082571Y-87292571D01*
X148868285Y-87292571D01*
X151868285Y-85792571D02*
X151154000Y-85792571D01*
X151082571Y-86506857D01*
X151154000Y-86435428D01*
X151296857Y-86364000D01*
X151654000Y-86364000D01*
X151796857Y-86435428D01*
X151868285Y-86506857D01*
X151939714Y-86649714D01*
X151939714Y-87006857D01*
X151868285Y-87149714D01*
X151796857Y-87221142D01*
X151654000Y-87292571D01*
X151296857Y-87292571D01*
X151154000Y-87221142D01*
X151082571Y-87149714D01*
X152368285Y-85792571D02*
X152868285Y-87292571D01*
X153368285Y-85792571D01*
X155654000Y-87221142D02*
X155511142Y-87292571D01*
X155225428Y-87292571D01*
X155082571Y-87221142D01*
X155011142Y-87149714D01*
X154939714Y-87006857D01*
X154939714Y-86578285D01*
X155011142Y-86435428D01*
X155082571Y-86364000D01*
X155225428Y-86292571D01*
X155511142Y-86292571D01*
X155654000Y-86364000D01*
X156296857Y-87292571D02*
X156296857Y-85792571D01*
X156939714Y-87292571D02*
X156939714Y-86506857D01*
X156868285Y-86364000D01*
X156725428Y-86292571D01*
X156511142Y-86292571D01*
X156368285Y-86364000D01*
X156296857Y-86435428D01*
X158296857Y-87292571D02*
X158296857Y-86506857D01*
X158225428Y-86364000D01*
X158082571Y-86292571D01*
X157796857Y-86292571D01*
X157654000Y-86364000D01*
X158296857Y-87221142D02*
X158154000Y-87292571D01*
X157796857Y-87292571D01*
X157654000Y-87221142D01*
X157582571Y-87078285D01*
X157582571Y-86935428D01*
X157654000Y-86792571D01*
X157796857Y-86721142D01*
X158154000Y-86721142D01*
X158296857Y-86649714D01*
X159011142Y-87292571D02*
X159011142Y-86292571D01*
X159011142Y-86578285D02*
X159082571Y-86435428D01*
X159154000Y-86364000D01*
X159296857Y-86292571D01*
X159439714Y-86292571D01*
X160582571Y-86292571D02*
X160582571Y-87506857D01*
X160511142Y-87649714D01*
X160439714Y-87721142D01*
X160296857Y-87792571D01*
X160082571Y-87792571D01*
X159939714Y-87721142D01*
X160582571Y-87221142D02*
X160439714Y-87292571D01*
X160154000Y-87292571D01*
X160011142Y-87221142D01*
X159939714Y-87149714D01*
X159868285Y-87006857D01*
X159868285Y-86578285D01*
X159939714Y-86435428D01*
X160011142Y-86364000D01*
X160154000Y-86292571D01*
X160439714Y-86292571D01*
X160582571Y-86364000D01*
X161868285Y-87221142D02*
X161725428Y-87292571D01*
X161439714Y-87292571D01*
X161296857Y-87221142D01*
X161225428Y-87078285D01*
X161225428Y-86506857D01*
X161296857Y-86364000D01*
X161439714Y-86292571D01*
X161725428Y-86292571D01*
X161868285Y-86364000D01*
X161939714Y-86506857D01*
X161939714Y-86649714D01*
X161225428Y-86792571D01*
X162582571Y-87292571D02*
X162582571Y-86292571D01*
X162582571Y-86578285D02*
X162654000Y-86435428D01*
X162725428Y-86364000D01*
X162868285Y-86292571D01*
X163011142Y-86292571D01*
D12*
G04 #@! TO.C,J7*
X85792000Y-87944000D02*
X85792000Y-86614000D01*
X87122000Y-87944000D02*
X85792000Y-87944000D01*
X88392000Y-87944000D02*
X88392000Y-85284000D01*
X88392000Y-85284000D02*
X90992000Y-85284000D01*
X88392000Y-87944000D02*
X90992000Y-87944000D01*
X90992000Y-87944000D02*
X90992000Y-85284000D01*
G04 #@! TO.C,F1*
X78470000Y-111190000D02*
X75270000Y-111190000D01*
X78470000Y-102189000D02*
X75270000Y-102189000D01*
X75270000Y-110119000D02*
X75270000Y-111190000D01*
X75270000Y-102189000D02*
X75270000Y-108362000D01*
X78470000Y-105019000D02*
X78470000Y-111190000D01*
X78470000Y-102189000D02*
X78470000Y-103261000D01*
G04 #@! TO.C,J5*
X145736000Y-120456000D02*
X145736000Y-119126000D01*
X147066000Y-120456000D02*
X145736000Y-120456000D01*
X148336000Y-120456000D02*
X148336000Y-117796000D01*
X148336000Y-117796000D02*
X150936000Y-117796000D01*
X148336000Y-120456000D02*
X150936000Y-120456000D01*
X150936000Y-120456000D02*
X150936000Y-117796000D01*
G04 #@! TO.C,J6*
X119574000Y-87690000D02*
X119574000Y-86360000D01*
X120904000Y-87690000D02*
X119574000Y-87690000D01*
X122174000Y-87690000D02*
X122174000Y-85030000D01*
X122174000Y-85030000D02*
X124774000Y-85030000D01*
X122174000Y-87690000D02*
X124774000Y-87690000D01*
X124774000Y-87690000D02*
X124774000Y-85030000D01*
G04 #@! TO.C,J4*
X159572000Y-105216000D02*
X158242000Y-105216000D01*
X159572000Y-103886000D02*
X159572000Y-105216000D01*
X159572000Y-102616000D02*
X156912000Y-102616000D01*
X156912000Y-102616000D02*
X156912000Y-100016000D01*
X159572000Y-102616000D02*
X159572000Y-100016000D01*
X159572000Y-100016000D02*
X156912000Y-100016000D01*
G04 #@! TO.C,J3*
X122234000Y-117796000D02*
X122234000Y-119126000D01*
X120904000Y-117796000D02*
X122234000Y-117796000D01*
X119634000Y-117796000D02*
X119634000Y-120456000D01*
X119634000Y-120456000D02*
X117034000Y-120456000D01*
X119634000Y-117796000D02*
X117034000Y-117796000D01*
X117034000Y-117796000D02*
X117034000Y-120456000D01*
G04 #@! TO.C,J2*
X75632000Y-95444000D02*
X76962000Y-95444000D01*
X75632000Y-96774000D02*
X75632000Y-95444000D01*
X75632000Y-98044000D02*
X78292000Y-98044000D01*
X78292000Y-98044000D02*
X78292000Y-100644000D01*
X75632000Y-98044000D02*
X75632000Y-100644000D01*
X75632000Y-100644000D02*
X78292000Y-100644000D01*
G04 #@! TO.C,C8*
X119194000Y-104785748D02*
X119194000Y-107558252D01*
X122614000Y-104785748D02*
X122614000Y-107558252D01*
G04 #@! TO.C,C7*
X88444000Y-111820422D02*
X88444000Y-112337578D01*
X89864000Y-111820422D02*
X89864000Y-112337578D01*
G04 #@! TO.C,C6*
X85800000Y-104209578D02*
X85800000Y-103692422D01*
X84380000Y-104209578D02*
X84380000Y-103692422D01*
G04 #@! TO.C,C5*
X95245422Y-97484000D02*
X95762578Y-97484000D01*
X95245422Y-96064000D02*
X95762578Y-96064000D01*
G04 #@! TO.C,C4*
X93524000Y-116770422D02*
X93524000Y-117287578D01*
X94944000Y-116770422D02*
X94944000Y-117287578D01*
G04 #@! TO.C,C2*
X95245422Y-93674000D02*
X95762578Y-93674000D01*
X95245422Y-92254000D02*
X95762578Y-92254000D01*
G04 #@! TO.C,C1*
X85777000Y-111817422D02*
X85777000Y-112334578D01*
X87197000Y-111817422D02*
X87197000Y-112334578D01*
G04 #@! TO.C,R1*
X90162748Y-93674000D02*
X90685252Y-93674000D01*
X90162748Y-92254000D02*
X90685252Y-92254000D01*
D13*
G04 #@! TO.C,D2*
X124324000Y-95758000D02*
X124324000Y-95158000D01*
X124324000Y-95758000D02*
X124324000Y-96358000D01*
X124324000Y-95758000D02*
X125024000Y-95758000D01*
X121524000Y-95758000D02*
X123324000Y-95758000D01*
X123324000Y-96458000D02*
X123324000Y-95058000D01*
X123324000Y-95058000D02*
X124324000Y-95758000D01*
X124324000Y-95758000D02*
X123324000Y-96458000D01*
X125024000Y-95758000D02*
X125824000Y-95758000D01*
X119824000Y-95758000D02*
X121524000Y-95758000D01*
X125824000Y-95758000D02*
X125824000Y-94958000D01*
X125824000Y-94958000D02*
X121524000Y-94958000D01*
X121524000Y-94958000D02*
X121524000Y-95758000D01*
X127224000Y-95758000D02*
X125824000Y-95758000D01*
X125824000Y-95758000D02*
X125824000Y-96558000D01*
X125824000Y-96558000D02*
X121524000Y-96558000D01*
X121524000Y-96558000D02*
X121524000Y-95758000D01*
D12*
G04 #@! TO.C,L1*
X104732000Y-104140000D02*
G75*
G03X104732000Y-104140000I-2370000J0D01*
G01*
X104732000Y-104140000D02*
X108682000Y-104140000D01*
D13*
G04 #@! TO.C,Q1*
X133222000Y-112347000D02*
X133222000Y-112072000D01*
X133222000Y-112072000D02*
X132947000Y-111697000D01*
X132947000Y-111697000D02*
X132897000Y-111697000D01*
X132897000Y-111697000D02*
X132897000Y-110922000D01*
X129922000Y-112172000D02*
X129922000Y-111697000D01*
X129922000Y-111697000D02*
X130272000Y-111697000D01*
X130147000Y-113347000D02*
X130272000Y-113347000D01*
X130222000Y-113347000D02*
X129922000Y-113347000D01*
X129922000Y-113347000D02*
X129922000Y-112897000D01*
X133222000Y-112972000D02*
X133222000Y-113347000D01*
X133222000Y-113347000D02*
X132922000Y-113347000D01*
G04 #@! TO.C,Q2*
X139823000Y-101102000D02*
X138973000Y-101927000D01*
X137723522Y-100801693D02*
G75*
G02X138648000Y-99877000I-1325522J2249693D01*
G01*
D12*
G04 #@! TO.C,R6*
X139688500Y-106560252D02*
X139688500Y-106037748D01*
X141108500Y-106560252D02*
X141108500Y-106037748D01*
G04 #@! TO.C,R5*
X131310748Y-105358000D02*
X131833252Y-105358000D01*
X131310748Y-103938000D02*
X131833252Y-103938000D01*
G04 #@! TO.C,R2*
X94944000Y-111752748D02*
X94944000Y-112275252D01*
X93524000Y-111752748D02*
X93524000Y-112275252D01*
G04 #@! TO.C,R3*
X110819000Y-109076748D02*
X110819000Y-109599252D01*
X109399000Y-109076748D02*
X109399000Y-109599252D01*
G04 #@! TO.C,R4*
X109526000Y-113902748D02*
X109526000Y-114425252D01*
X110946000Y-113902748D02*
X110946000Y-114425252D01*
D13*
G04 #@! TO.C,U1*
X97674000Y-100984000D02*
X97974000Y-100984000D01*
X97974000Y-100984000D02*
X97974000Y-101284000D01*
X97674000Y-107784000D02*
X97974000Y-107784000D01*
X97974000Y-107784000D02*
X97974000Y-107484000D01*
X88274000Y-107784000D02*
X87974000Y-107784000D01*
X87974000Y-107784000D02*
X87974000Y-107484000D01*
X88274000Y-100984000D02*
X87974000Y-100984000D01*
X87974000Y-100984000D02*
X87974000Y-101284000D01*
G04 #@! TO.C,J7*
D14*
X84244380Y-86947333D02*
X84958666Y-86947333D01*
X85101523Y-86994952D01*
X85196761Y-87090190D01*
X85244380Y-87233047D01*
X85244380Y-87328285D01*
X84244380Y-86566380D02*
X84244380Y-85899714D01*
X85244380Y-86328285D01*
G04 #@! TO.C,F1*
X79298571Y-107023333D02*
X79298571Y-107356666D01*
X79822380Y-107356666D02*
X78822380Y-107356666D01*
X78822380Y-106880476D01*
X79822380Y-105975714D02*
X79822380Y-106547142D01*
X79822380Y-106261428D02*
X78822380Y-106261428D01*
X78965238Y-106356666D01*
X79060476Y-106451904D01*
X79108095Y-106547142D01*
G04 #@! TO.C,J5*
X144188380Y-119459333D02*
X144902666Y-119459333D01*
X145045523Y-119506952D01*
X145140761Y-119602190D01*
X145188380Y-119745047D01*
X145188380Y-119840285D01*
X144188380Y-118506952D02*
X144188380Y-118983142D01*
X144664571Y-119030761D01*
X144616952Y-118983142D01*
X144569333Y-118887904D01*
X144569333Y-118649809D01*
X144616952Y-118554571D01*
X144664571Y-118506952D01*
X144759809Y-118459333D01*
X144997904Y-118459333D01*
X145093142Y-118506952D01*
X145140761Y-118554571D01*
X145188380Y-118649809D01*
X145188380Y-118887904D01*
X145140761Y-118983142D01*
X145093142Y-119030761D01*
G04 #@! TO.C,J6*
X118026380Y-86693333D02*
X118740666Y-86693333D01*
X118883523Y-86740952D01*
X118978761Y-86836190D01*
X119026380Y-86979047D01*
X119026380Y-87074285D01*
X118026380Y-85788571D02*
X118026380Y-85979047D01*
X118074000Y-86074285D01*
X118121619Y-86121904D01*
X118264476Y-86217142D01*
X118454952Y-86264761D01*
X118835904Y-86264761D01*
X118931142Y-86217142D01*
X118978761Y-86169523D01*
X119026380Y-86074285D01*
X119026380Y-85883809D01*
X118978761Y-85788571D01*
X118931142Y-85740952D01*
X118835904Y-85693333D01*
X118597809Y-85693333D01*
X118502571Y-85740952D01*
X118454952Y-85788571D01*
X118407333Y-85883809D01*
X118407333Y-86074285D01*
X118454952Y-86169523D01*
X118502571Y-86217142D01*
X118597809Y-86264761D01*
G04 #@! TO.C,J4*
X157908666Y-105668380D02*
X157908666Y-106382666D01*
X157861047Y-106525523D01*
X157765809Y-106620761D01*
X157622952Y-106668380D01*
X157527714Y-106668380D01*
X158813428Y-106001714D02*
X158813428Y-106668380D01*
X158575333Y-105620761D02*
X158337238Y-106335047D01*
X158956285Y-106335047D01*
G04 #@! TO.C,J3*
X122686380Y-119459333D02*
X123400666Y-119459333D01*
X123543523Y-119506952D01*
X123638761Y-119602190D01*
X123686380Y-119745047D01*
X123686380Y-119840285D01*
X122686380Y-119078380D02*
X122686380Y-118459333D01*
X123067333Y-118792666D01*
X123067333Y-118649809D01*
X123114952Y-118554571D01*
X123162571Y-118506952D01*
X123257809Y-118459333D01*
X123495904Y-118459333D01*
X123591142Y-118506952D01*
X123638761Y-118554571D01*
X123686380Y-118649809D01*
X123686380Y-118935523D01*
X123638761Y-119030761D01*
X123591142Y-119078380D01*
G04 #@! TO.C,J2*
X76628666Y-93896380D02*
X76628666Y-94610666D01*
X76581047Y-94753523D01*
X76485809Y-94848761D01*
X76342952Y-94896380D01*
X76247714Y-94896380D01*
X77057238Y-93991619D02*
X77104857Y-93944000D01*
X77200095Y-93896380D01*
X77438190Y-93896380D01*
X77533428Y-93944000D01*
X77581047Y-93991619D01*
X77628666Y-94086857D01*
X77628666Y-94182095D01*
X77581047Y-94324952D01*
X77009619Y-94896380D01*
X77628666Y-94896380D01*
G04 #@! TO.C,C8*
X123911142Y-106338666D02*
X123958761Y-106386285D01*
X124006380Y-106529142D01*
X124006380Y-106624380D01*
X123958761Y-106767238D01*
X123863523Y-106862476D01*
X123768285Y-106910095D01*
X123577809Y-106957714D01*
X123434952Y-106957714D01*
X123244476Y-106910095D01*
X123149238Y-106862476D01*
X123054000Y-106767238D01*
X123006380Y-106624380D01*
X123006380Y-106529142D01*
X123054000Y-106386285D01*
X123101619Y-106338666D01*
X123434952Y-105767238D02*
X123387333Y-105862476D01*
X123339714Y-105910095D01*
X123244476Y-105957714D01*
X123196857Y-105957714D01*
X123101619Y-105910095D01*
X123054000Y-105862476D01*
X123006380Y-105767238D01*
X123006380Y-105576761D01*
X123054000Y-105481523D01*
X123101619Y-105433904D01*
X123196857Y-105386285D01*
X123244476Y-105386285D01*
X123339714Y-105433904D01*
X123387333Y-105481523D01*
X123434952Y-105576761D01*
X123434952Y-105767238D01*
X123482571Y-105862476D01*
X123530190Y-105910095D01*
X123625428Y-105957714D01*
X123815904Y-105957714D01*
X123911142Y-105910095D01*
X123958761Y-105862476D01*
X124006380Y-105767238D01*
X124006380Y-105576761D01*
X123958761Y-105481523D01*
X123911142Y-105433904D01*
X123815904Y-105386285D01*
X123625428Y-105386285D01*
X123530190Y-105433904D01*
X123482571Y-105481523D01*
X123434952Y-105576761D01*
G04 #@! TO.C,C7*
X91161142Y-112245666D02*
X91208761Y-112293285D01*
X91256380Y-112436142D01*
X91256380Y-112531380D01*
X91208761Y-112674238D01*
X91113523Y-112769476D01*
X91018285Y-112817095D01*
X90827809Y-112864714D01*
X90684952Y-112864714D01*
X90494476Y-112817095D01*
X90399238Y-112769476D01*
X90304000Y-112674238D01*
X90256380Y-112531380D01*
X90256380Y-112436142D01*
X90304000Y-112293285D01*
X90351619Y-112245666D01*
X90256380Y-111912333D02*
X90256380Y-111245666D01*
X91256380Y-111674238D01*
G04 #@! TO.C,C6*
X83797142Y-104117666D02*
X83844761Y-104165285D01*
X83892380Y-104308142D01*
X83892380Y-104403380D01*
X83844761Y-104546238D01*
X83749523Y-104641476D01*
X83654285Y-104689095D01*
X83463809Y-104736714D01*
X83320952Y-104736714D01*
X83130476Y-104689095D01*
X83035238Y-104641476D01*
X82940000Y-104546238D01*
X82892380Y-104403380D01*
X82892380Y-104308142D01*
X82940000Y-104165285D01*
X82987619Y-104117666D01*
X82892380Y-103260523D02*
X82892380Y-103451000D01*
X82940000Y-103546238D01*
X82987619Y-103593857D01*
X83130476Y-103689095D01*
X83320952Y-103736714D01*
X83701904Y-103736714D01*
X83797142Y-103689095D01*
X83844761Y-103641476D01*
X83892380Y-103546238D01*
X83892380Y-103355761D01*
X83844761Y-103260523D01*
X83797142Y-103212904D01*
X83701904Y-103165285D01*
X83463809Y-103165285D01*
X83368571Y-103212904D01*
X83320952Y-103260523D01*
X83273333Y-103355761D01*
X83273333Y-103546238D01*
X83320952Y-103641476D01*
X83368571Y-103689095D01*
X83463809Y-103736714D01*
G04 #@! TO.C,C5*
X95337333Y-95481142D02*
X95289714Y-95528761D01*
X95146857Y-95576380D01*
X95051619Y-95576380D01*
X94908761Y-95528761D01*
X94813523Y-95433523D01*
X94765904Y-95338285D01*
X94718285Y-95147809D01*
X94718285Y-95004952D01*
X94765904Y-94814476D01*
X94813523Y-94719238D01*
X94908761Y-94624000D01*
X95051619Y-94576380D01*
X95146857Y-94576380D01*
X95289714Y-94624000D01*
X95337333Y-94671619D01*
X96242095Y-94576380D02*
X95765904Y-94576380D01*
X95718285Y-95052571D01*
X95765904Y-95004952D01*
X95861142Y-94957333D01*
X96099238Y-94957333D01*
X96194476Y-95004952D01*
X96242095Y-95052571D01*
X96289714Y-95147809D01*
X96289714Y-95385904D01*
X96242095Y-95481142D01*
X96194476Y-95528761D01*
X96099238Y-95576380D01*
X95861142Y-95576380D01*
X95765904Y-95528761D01*
X95718285Y-95481142D01*
G04 #@! TO.C,C4*
X96241142Y-117195666D02*
X96288761Y-117243285D01*
X96336380Y-117386142D01*
X96336380Y-117481380D01*
X96288761Y-117624238D01*
X96193523Y-117719476D01*
X96098285Y-117767095D01*
X95907809Y-117814714D01*
X95764952Y-117814714D01*
X95574476Y-117767095D01*
X95479238Y-117719476D01*
X95384000Y-117624238D01*
X95336380Y-117481380D01*
X95336380Y-117386142D01*
X95384000Y-117243285D01*
X95431619Y-117195666D01*
X95669714Y-116338523D02*
X96336380Y-116338523D01*
X95288761Y-116576619D02*
X96003047Y-116814714D01*
X96003047Y-116195666D01*
G04 #@! TO.C,C2*
X95337333Y-91671142D02*
X95289714Y-91718761D01*
X95146857Y-91766380D01*
X95051619Y-91766380D01*
X94908761Y-91718761D01*
X94813523Y-91623523D01*
X94765904Y-91528285D01*
X94718285Y-91337809D01*
X94718285Y-91194952D01*
X94765904Y-91004476D01*
X94813523Y-90909238D01*
X94908761Y-90814000D01*
X95051619Y-90766380D01*
X95146857Y-90766380D01*
X95289714Y-90814000D01*
X95337333Y-90861619D01*
X95718285Y-90861619D02*
X95765904Y-90814000D01*
X95861142Y-90766380D01*
X96099238Y-90766380D01*
X96194476Y-90814000D01*
X96242095Y-90861619D01*
X96289714Y-90956857D01*
X96289714Y-91052095D01*
X96242095Y-91194952D01*
X95670666Y-91766380D01*
X96289714Y-91766380D01*
G04 #@! TO.C,C1*
X88494142Y-112242666D02*
X88541761Y-112290285D01*
X88589380Y-112433142D01*
X88589380Y-112528380D01*
X88541761Y-112671238D01*
X88446523Y-112766476D01*
X88351285Y-112814095D01*
X88160809Y-112861714D01*
X88017952Y-112861714D01*
X87827476Y-112814095D01*
X87732238Y-112766476D01*
X87637000Y-112671238D01*
X87589380Y-112528380D01*
X87589380Y-112433142D01*
X87637000Y-112290285D01*
X87684619Y-112242666D01*
X88589380Y-111290285D02*
X88589380Y-111861714D01*
X88589380Y-111576000D02*
X87589380Y-111576000D01*
X87732238Y-111671238D01*
X87827476Y-111766476D01*
X87875095Y-111861714D01*
G04 #@! TO.C,R1*
X90257333Y-91766380D02*
X89924000Y-91290190D01*
X89685904Y-91766380D02*
X89685904Y-90766380D01*
X90066857Y-90766380D01*
X90162095Y-90814000D01*
X90209714Y-90861619D01*
X90257333Y-90956857D01*
X90257333Y-91099714D01*
X90209714Y-91194952D01*
X90162095Y-91242571D01*
X90066857Y-91290190D01*
X89685904Y-91290190D01*
X91209714Y-91766380D02*
X90638285Y-91766380D01*
X90924000Y-91766380D02*
X90924000Y-90766380D01*
X90828761Y-90909238D01*
X90733523Y-91004476D01*
X90638285Y-91052095D01*
G04 #@! TO.C,D2*
X121785904Y-99810380D02*
X121785904Y-98810380D01*
X122024000Y-98810380D01*
X122166857Y-98858000D01*
X122262095Y-98953238D01*
X122309714Y-99048476D01*
X122357333Y-99238952D01*
X122357333Y-99381809D01*
X122309714Y-99572285D01*
X122262095Y-99667523D01*
X122166857Y-99762761D01*
X122024000Y-99810380D01*
X121785904Y-99810380D01*
X122738285Y-98905619D02*
X122785904Y-98858000D01*
X122881142Y-98810380D01*
X123119238Y-98810380D01*
X123214476Y-98858000D01*
X123262095Y-98905619D01*
X123309714Y-99000857D01*
X123309714Y-99096095D01*
X123262095Y-99238952D01*
X122690666Y-99810380D01*
X123309714Y-99810380D01*
G04 #@! TO.C,L1*
X106005333Y-101222380D02*
X105529142Y-101222380D01*
X105529142Y-100222380D01*
X106862476Y-101222380D02*
X106291047Y-101222380D01*
X106576761Y-101222380D02*
X106576761Y-100222380D01*
X106481523Y-100365238D01*
X106386285Y-100460476D01*
X106291047Y-100508095D01*
G04 #@! TO.C,Q1*
X135494619Y-112642238D02*
X135447000Y-112737476D01*
X135351761Y-112832714D01*
X135208904Y-112975571D01*
X135161285Y-113070809D01*
X135161285Y-113166047D01*
X135399380Y-113118428D02*
X135351761Y-113213666D01*
X135256523Y-113308904D01*
X135066047Y-113356523D01*
X134732714Y-113356523D01*
X134542238Y-113308904D01*
X134447000Y-113213666D01*
X134399380Y-113118428D01*
X134399380Y-112927952D01*
X134447000Y-112832714D01*
X134542238Y-112737476D01*
X134732714Y-112689857D01*
X135066047Y-112689857D01*
X135256523Y-112737476D01*
X135351761Y-112832714D01*
X135399380Y-112927952D01*
X135399380Y-113118428D01*
X135399380Y-111737476D02*
X135399380Y-112308904D01*
X135399380Y-112023190D02*
X134399380Y-112023190D01*
X134542238Y-112118428D01*
X134637476Y-112213666D01*
X134685095Y-112308904D01*
G04 #@! TO.C,Q2*
X136002761Y-102699619D02*
X135907523Y-102652000D01*
X135812285Y-102556761D01*
X135669428Y-102413904D01*
X135574190Y-102366285D01*
X135478952Y-102366285D01*
X135526571Y-102604380D02*
X135431333Y-102556761D01*
X135336095Y-102461523D01*
X135288476Y-102271047D01*
X135288476Y-101937714D01*
X135336095Y-101747238D01*
X135431333Y-101652000D01*
X135526571Y-101604380D01*
X135717047Y-101604380D01*
X135812285Y-101652000D01*
X135907523Y-101747238D01*
X135955142Y-101937714D01*
X135955142Y-102271047D01*
X135907523Y-102461523D01*
X135812285Y-102556761D01*
X135717047Y-102604380D01*
X135526571Y-102604380D01*
X136336095Y-101699619D02*
X136383714Y-101652000D01*
X136478952Y-101604380D01*
X136717047Y-101604380D01*
X136812285Y-101652000D01*
X136859904Y-101699619D01*
X136907523Y-101794857D01*
X136907523Y-101890095D01*
X136859904Y-102032952D01*
X136288476Y-102604380D01*
X136907523Y-102604380D01*
G04 #@! TO.C,R6*
X139200880Y-106465666D02*
X138724690Y-106799000D01*
X139200880Y-107037095D02*
X138200880Y-107037095D01*
X138200880Y-106656142D01*
X138248500Y-106560904D01*
X138296119Y-106513285D01*
X138391357Y-106465666D01*
X138534214Y-106465666D01*
X138629452Y-106513285D01*
X138677071Y-106560904D01*
X138724690Y-106656142D01*
X138724690Y-107037095D01*
X138200880Y-105608523D02*
X138200880Y-105799000D01*
X138248500Y-105894238D01*
X138296119Y-105941857D01*
X138438976Y-106037095D01*
X138629452Y-106084714D01*
X139010404Y-106084714D01*
X139105642Y-106037095D01*
X139153261Y-105989476D01*
X139200880Y-105894238D01*
X139200880Y-105703761D01*
X139153261Y-105608523D01*
X139105642Y-105560904D01*
X139010404Y-105513285D01*
X138772309Y-105513285D01*
X138677071Y-105560904D01*
X138629452Y-105608523D01*
X138581833Y-105703761D01*
X138581833Y-105894238D01*
X138629452Y-105989476D01*
X138677071Y-106037095D01*
X138772309Y-106084714D01*
G04 #@! TO.C,R5*
X131405333Y-103450380D02*
X131072000Y-102974190D01*
X130833904Y-103450380D02*
X130833904Y-102450380D01*
X131214857Y-102450380D01*
X131310095Y-102498000D01*
X131357714Y-102545619D01*
X131405333Y-102640857D01*
X131405333Y-102783714D01*
X131357714Y-102878952D01*
X131310095Y-102926571D01*
X131214857Y-102974190D01*
X130833904Y-102974190D01*
X132310095Y-102450380D02*
X131833904Y-102450380D01*
X131786285Y-102926571D01*
X131833904Y-102878952D01*
X131929142Y-102831333D01*
X132167238Y-102831333D01*
X132262476Y-102878952D01*
X132310095Y-102926571D01*
X132357714Y-103021809D01*
X132357714Y-103259904D01*
X132310095Y-103355142D01*
X132262476Y-103402761D01*
X132167238Y-103450380D01*
X131929142Y-103450380D01*
X131833904Y-103402761D01*
X131786285Y-103355142D01*
G04 #@! TO.C,R2*
X96336380Y-112180666D02*
X95860190Y-112514000D01*
X96336380Y-112752095D02*
X95336380Y-112752095D01*
X95336380Y-112371142D01*
X95384000Y-112275904D01*
X95431619Y-112228285D01*
X95526857Y-112180666D01*
X95669714Y-112180666D01*
X95764952Y-112228285D01*
X95812571Y-112275904D01*
X95860190Y-112371142D01*
X95860190Y-112752095D01*
X95431619Y-111799714D02*
X95384000Y-111752095D01*
X95336380Y-111656857D01*
X95336380Y-111418761D01*
X95384000Y-111323523D01*
X95431619Y-111275904D01*
X95526857Y-111228285D01*
X95622095Y-111228285D01*
X95764952Y-111275904D01*
X96336380Y-111847333D01*
X96336380Y-111228285D01*
G04 #@! TO.C,R3*
X112211380Y-109504666D02*
X111735190Y-109838000D01*
X112211380Y-110076095D02*
X111211380Y-110076095D01*
X111211380Y-109695142D01*
X111259000Y-109599904D01*
X111306619Y-109552285D01*
X111401857Y-109504666D01*
X111544714Y-109504666D01*
X111639952Y-109552285D01*
X111687571Y-109599904D01*
X111735190Y-109695142D01*
X111735190Y-110076095D01*
X111211380Y-109171333D02*
X111211380Y-108552285D01*
X111592333Y-108885619D01*
X111592333Y-108742761D01*
X111639952Y-108647523D01*
X111687571Y-108599904D01*
X111782809Y-108552285D01*
X112020904Y-108552285D01*
X112116142Y-108599904D01*
X112163761Y-108647523D01*
X112211380Y-108742761D01*
X112211380Y-109028476D01*
X112163761Y-109123714D01*
X112116142Y-109171333D01*
G04 #@! TO.C,R4*
X112338380Y-114330666D02*
X111862190Y-114664000D01*
X112338380Y-114902095D02*
X111338380Y-114902095D01*
X111338380Y-114521142D01*
X111386000Y-114425904D01*
X111433619Y-114378285D01*
X111528857Y-114330666D01*
X111671714Y-114330666D01*
X111766952Y-114378285D01*
X111814571Y-114425904D01*
X111862190Y-114521142D01*
X111862190Y-114902095D01*
X111671714Y-113473523D02*
X112338380Y-113473523D01*
X111290761Y-113711619D02*
X112005047Y-113949714D01*
X112005047Y-113330666D01*
G04 #@! TO.C,U1*
X98746380Y-105395904D02*
X99555904Y-105395904D01*
X99651142Y-105348285D01*
X99698761Y-105300666D01*
X99746380Y-105205428D01*
X99746380Y-105014952D01*
X99698761Y-104919714D01*
X99651142Y-104872095D01*
X99555904Y-104824476D01*
X98746380Y-104824476D01*
X99746380Y-103824476D02*
X99746380Y-104395904D01*
X99746380Y-104110190D02*
X98746380Y-104110190D01*
X98889238Y-104205428D01*
X98984476Y-104300666D01*
X99032095Y-104395904D01*
G04 #@! TD*
M02*
