G04 #@! TF.GenerationSoftware,KiCad,Pcbnew,5.1.4-e60b266~84~ubuntu18.04.1*
G04 #@! TF.CreationDate,2019-09-29T22:34:52+02:00*
G04 #@! TF.ProjectId,Circuit,43697263-7569-4742-9e6b-696361645f70,rev?*
G04 #@! TF.SameCoordinates,Original*
G04 #@! TF.FileFunction,Soldermask,Bot*
G04 #@! TF.FilePolarity,Negative*
%FSLAX46Y46*%
G04 Gerber Fmt 4.6, Leading zero omitted, Abs format (unit mm)*
G04 Created by KiCad (PCBNEW 5.1.4-e60b266~84~ubuntu18.04.1) date 2019-09-29 22:34:52*
%MOMM*%
%LPD*%
G04 APERTURE LIST*
%ADD10C,0.150000*%
G04 APERTURE END LIST*
D10*
G36*
X121805000Y-120027000D02*
G01*
X120003000Y-120027000D01*
X120003000Y-118225000D01*
X121805000Y-118225000D01*
X121805000Y-120027000D01*
X121805000Y-120027000D01*
G37*
G36*
X147967000Y-120027000D02*
G01*
X146165000Y-120027000D01*
X146165000Y-118225000D01*
X147967000Y-118225000D01*
X147967000Y-120027000D01*
X147967000Y-120027000D01*
G37*
G36*
X149716442Y-118231518D02*
G01*
X149782627Y-118238037D01*
X149952466Y-118289557D01*
X150108991Y-118373222D01*
X150144729Y-118402552D01*
X150246186Y-118485814D01*
X150329448Y-118587271D01*
X150358778Y-118623009D01*
X150442443Y-118779534D01*
X150493963Y-118949373D01*
X150511359Y-119126000D01*
X150493963Y-119302627D01*
X150442443Y-119472466D01*
X150358778Y-119628991D01*
X150329448Y-119664729D01*
X150246186Y-119766186D01*
X150144729Y-119849448D01*
X150108991Y-119878778D01*
X149952466Y-119962443D01*
X149782627Y-120013963D01*
X149716442Y-120020482D01*
X149650260Y-120027000D01*
X149561740Y-120027000D01*
X149495558Y-120020482D01*
X149429373Y-120013963D01*
X149259534Y-119962443D01*
X149103009Y-119878778D01*
X149067271Y-119849448D01*
X148965814Y-119766186D01*
X148882552Y-119664729D01*
X148853222Y-119628991D01*
X148769557Y-119472466D01*
X148718037Y-119302627D01*
X148700641Y-119126000D01*
X148718037Y-118949373D01*
X148769557Y-118779534D01*
X148853222Y-118623009D01*
X148882552Y-118587271D01*
X148965814Y-118485814D01*
X149067271Y-118402552D01*
X149103009Y-118373222D01*
X149259534Y-118289557D01*
X149429373Y-118238037D01*
X149495558Y-118231518D01*
X149561740Y-118225000D01*
X149650260Y-118225000D01*
X149716442Y-118231518D01*
X149716442Y-118231518D01*
G37*
G36*
X118474442Y-118231518D02*
G01*
X118540627Y-118238037D01*
X118710466Y-118289557D01*
X118866991Y-118373222D01*
X118902729Y-118402552D01*
X119004186Y-118485814D01*
X119087448Y-118587271D01*
X119116778Y-118623009D01*
X119200443Y-118779534D01*
X119251963Y-118949373D01*
X119269359Y-119126000D01*
X119251963Y-119302627D01*
X119200443Y-119472466D01*
X119116778Y-119628991D01*
X119087448Y-119664729D01*
X119004186Y-119766186D01*
X118902729Y-119849448D01*
X118866991Y-119878778D01*
X118710466Y-119962443D01*
X118540627Y-120013963D01*
X118474442Y-120020482D01*
X118408260Y-120027000D01*
X118319740Y-120027000D01*
X118253558Y-120020482D01*
X118187373Y-120013963D01*
X118017534Y-119962443D01*
X117861009Y-119878778D01*
X117825271Y-119849448D01*
X117723814Y-119766186D01*
X117640552Y-119664729D01*
X117611222Y-119628991D01*
X117527557Y-119472466D01*
X117476037Y-119302627D01*
X117458641Y-119126000D01*
X117476037Y-118949373D01*
X117527557Y-118779534D01*
X117611222Y-118623009D01*
X117640552Y-118587271D01*
X117723814Y-118485814D01*
X117825271Y-118402552D01*
X117861009Y-118373222D01*
X118017534Y-118289557D01*
X118187373Y-118238037D01*
X118253558Y-118231518D01*
X118319740Y-118225000D01*
X118408260Y-118225000D01*
X118474442Y-118231518D01*
X118474442Y-118231518D01*
G37*
G36*
X182389331Y-114092211D02*
G01*
X182717092Y-114227974D01*
X183012070Y-114425072D01*
X183262928Y-114675930D01*
X183460026Y-114970908D01*
X183595789Y-115298669D01*
X183665000Y-115646616D01*
X183665000Y-116001384D01*
X183595789Y-116349331D01*
X183460026Y-116677092D01*
X183262928Y-116972070D01*
X183012070Y-117222928D01*
X182717092Y-117420026D01*
X182389331Y-117555789D01*
X182041384Y-117625000D01*
X181686616Y-117625000D01*
X181338669Y-117555789D01*
X181010908Y-117420026D01*
X180715930Y-117222928D01*
X180465072Y-116972070D01*
X180267974Y-116677092D01*
X180132211Y-116349331D01*
X180063000Y-116001384D01*
X180063000Y-115646616D01*
X180132211Y-115298669D01*
X180267974Y-114970908D01*
X180465072Y-114675930D01*
X180715930Y-114425072D01*
X181010908Y-114227974D01*
X181338669Y-114092211D01*
X181686616Y-114023000D01*
X182041384Y-114023000D01*
X182389331Y-114092211D01*
X182389331Y-114092211D01*
G37*
G36*
X79519331Y-114092211D02*
G01*
X79847092Y-114227974D01*
X80142070Y-114425072D01*
X80392928Y-114675930D01*
X80590026Y-114970908D01*
X80725789Y-115298669D01*
X80795000Y-115646616D01*
X80795000Y-116001384D01*
X80725789Y-116349331D01*
X80590026Y-116677092D01*
X80392928Y-116972070D01*
X80142070Y-117222928D01*
X79847092Y-117420026D01*
X79519331Y-117555789D01*
X79171384Y-117625000D01*
X78816616Y-117625000D01*
X78468669Y-117555789D01*
X78140908Y-117420026D01*
X77845930Y-117222928D01*
X77595072Y-116972070D01*
X77397974Y-116677092D01*
X77262211Y-116349331D01*
X77193000Y-116001384D01*
X77193000Y-115646616D01*
X77262211Y-115298669D01*
X77397974Y-114970908D01*
X77595072Y-114675930D01*
X77845930Y-114425072D01*
X78140908Y-114227974D01*
X78468669Y-114092211D01*
X78816616Y-114023000D01*
X79171384Y-114023000D01*
X79519331Y-114092211D01*
X79519331Y-114092211D01*
G37*
G36*
X170422162Y-107550368D02*
G01*
X170731724Y-107678593D01*
X170731725Y-107678594D01*
X171010324Y-107864747D01*
X171247253Y-108101676D01*
X171329375Y-108224581D01*
X171433407Y-108380276D01*
X171561632Y-108689838D01*
X171627000Y-109018465D01*
X171627000Y-109353535D01*
X171561632Y-109682162D01*
X171433407Y-109991724D01*
X171433406Y-109991725D01*
X171247253Y-110270324D01*
X171010324Y-110507253D01*
X170824170Y-110631637D01*
X170731724Y-110693407D01*
X170422162Y-110821632D01*
X170093535Y-110887000D01*
X169758465Y-110887000D01*
X169429838Y-110821632D01*
X169120276Y-110693407D01*
X169027830Y-110631637D01*
X168841676Y-110507253D01*
X168604747Y-110270324D01*
X168418594Y-109991725D01*
X168418593Y-109991724D01*
X168290368Y-109682162D01*
X168225000Y-109353535D01*
X168225000Y-109018465D01*
X168290368Y-108689838D01*
X168418593Y-108380276D01*
X168522625Y-108224581D01*
X168604747Y-108101676D01*
X168841676Y-107864747D01*
X169120275Y-107678594D01*
X169120276Y-107678593D01*
X169429838Y-107550368D01*
X169758465Y-107485000D01*
X170093535Y-107485000D01*
X170422162Y-107550368D01*
X170422162Y-107550368D01*
G37*
G36*
X76476015Y-108204290D02*
G01*
X76578024Y-108224581D01*
X76770204Y-108304185D01*
X76943161Y-108419751D01*
X77090249Y-108566839D01*
X77205815Y-108739796D01*
X77285419Y-108931976D01*
X77326000Y-109135993D01*
X77326000Y-109344007D01*
X77285419Y-109548024D01*
X77205815Y-109740204D01*
X77090249Y-109913161D01*
X76943161Y-110060249D01*
X76770204Y-110175815D01*
X76578024Y-110255419D01*
X76476016Y-110275709D01*
X76374008Y-110296000D01*
X76165992Y-110296000D01*
X76063984Y-110275709D01*
X75961976Y-110255419D01*
X75769796Y-110175815D01*
X75596839Y-110060249D01*
X75449751Y-109913161D01*
X75334185Y-109740204D01*
X75254581Y-109548024D01*
X75214000Y-109344007D01*
X75214000Y-109135993D01*
X75254581Y-108931976D01*
X75334185Y-108739796D01*
X75449751Y-108566839D01*
X75596839Y-108419751D01*
X75769796Y-108304185D01*
X75961976Y-108224581D01*
X76063985Y-108204290D01*
X76165992Y-108184000D01*
X76374008Y-108184000D01*
X76476015Y-108204290D01*
X76476015Y-108204290D01*
G37*
G36*
X97022228Y-107385703D02*
G01*
X97177100Y-107449853D01*
X97316481Y-107542985D01*
X97435015Y-107661519D01*
X97528147Y-107800900D01*
X97592297Y-107955772D01*
X97625000Y-108120184D01*
X97625000Y-108287816D01*
X97592297Y-108452228D01*
X97528147Y-108607100D01*
X97435015Y-108746481D01*
X97316481Y-108865015D01*
X97177100Y-108958147D01*
X97022228Y-109022297D01*
X96857816Y-109055000D01*
X96690184Y-109055000D01*
X96525772Y-109022297D01*
X96370900Y-108958147D01*
X96231519Y-108865015D01*
X96112985Y-108746481D01*
X96019853Y-108607100D01*
X95955703Y-108452228D01*
X95923000Y-108287816D01*
X95923000Y-108120184D01*
X95955703Y-107955772D01*
X96019853Y-107800900D01*
X96112985Y-107661519D01*
X96231519Y-107542985D01*
X96370900Y-107449853D01*
X96525772Y-107385703D01*
X96690184Y-107353000D01*
X96857816Y-107353000D01*
X97022228Y-107385703D01*
X97022228Y-107385703D01*
G37*
G36*
X94482228Y-107385703D02*
G01*
X94637100Y-107449853D01*
X94776481Y-107542985D01*
X94895015Y-107661519D01*
X94988147Y-107800900D01*
X95052297Y-107955772D01*
X95085000Y-108120184D01*
X95085000Y-108287816D01*
X95052297Y-108452228D01*
X94988147Y-108607100D01*
X94895015Y-108746481D01*
X94776481Y-108865015D01*
X94637100Y-108958147D01*
X94482228Y-109022297D01*
X94317816Y-109055000D01*
X94150184Y-109055000D01*
X93985772Y-109022297D01*
X93830900Y-108958147D01*
X93691519Y-108865015D01*
X93572985Y-108746481D01*
X93479853Y-108607100D01*
X93415703Y-108452228D01*
X93383000Y-108287816D01*
X93383000Y-108120184D01*
X93415703Y-107955772D01*
X93479853Y-107800900D01*
X93572985Y-107661519D01*
X93691519Y-107542985D01*
X93830900Y-107449853D01*
X93985772Y-107385703D01*
X94150184Y-107353000D01*
X94317816Y-107353000D01*
X94482228Y-107385703D01*
X94482228Y-107385703D01*
G37*
G36*
X91942228Y-107385703D02*
G01*
X92097100Y-107449853D01*
X92236481Y-107542985D01*
X92355015Y-107661519D01*
X92448147Y-107800900D01*
X92512297Y-107955772D01*
X92545000Y-108120184D01*
X92545000Y-108287816D01*
X92512297Y-108452228D01*
X92448147Y-108607100D01*
X92355015Y-108746481D01*
X92236481Y-108865015D01*
X92097100Y-108958147D01*
X91942228Y-109022297D01*
X91777816Y-109055000D01*
X91610184Y-109055000D01*
X91445772Y-109022297D01*
X91290900Y-108958147D01*
X91151519Y-108865015D01*
X91032985Y-108746481D01*
X90939853Y-108607100D01*
X90875703Y-108452228D01*
X90843000Y-108287816D01*
X90843000Y-108120184D01*
X90875703Y-107955772D01*
X90939853Y-107800900D01*
X91032985Y-107661519D01*
X91151519Y-107542985D01*
X91290900Y-107449853D01*
X91445772Y-107385703D01*
X91610184Y-107353000D01*
X91777816Y-107353000D01*
X91942228Y-107385703D01*
X91942228Y-107385703D01*
G37*
G36*
X89402228Y-107385703D02*
G01*
X89557100Y-107449853D01*
X89696481Y-107542985D01*
X89815015Y-107661519D01*
X89908147Y-107800900D01*
X89972297Y-107955772D01*
X90005000Y-108120184D01*
X90005000Y-108287816D01*
X89972297Y-108452228D01*
X89908147Y-108607100D01*
X89815015Y-108746481D01*
X89696481Y-108865015D01*
X89557100Y-108958147D01*
X89402228Y-109022297D01*
X89237816Y-109055000D01*
X89070184Y-109055000D01*
X88905772Y-109022297D01*
X88750900Y-108958147D01*
X88611519Y-108865015D01*
X88492985Y-108746481D01*
X88399853Y-108607100D01*
X88335703Y-108452228D01*
X88303000Y-108287816D01*
X88303000Y-108120184D01*
X88335703Y-107955772D01*
X88399853Y-107800900D01*
X88492985Y-107661519D01*
X88611519Y-107542985D01*
X88750900Y-107449853D01*
X88905772Y-107385703D01*
X89070184Y-107353000D01*
X89237816Y-107353000D01*
X89402228Y-107385703D01*
X89402228Y-107385703D01*
G37*
G36*
X167507981Y-105403468D02*
G01*
X167690151Y-105478926D01*
X167854100Y-105588473D01*
X167993527Y-105727900D01*
X168103074Y-105891849D01*
X168178532Y-106074019D01*
X168217000Y-106267410D01*
X168217000Y-106464590D01*
X168178532Y-106657981D01*
X168103074Y-106840151D01*
X167993527Y-107004100D01*
X167854100Y-107143527D01*
X167690151Y-107253074D01*
X167507981Y-107328532D01*
X167411285Y-107347766D01*
X167314591Y-107367000D01*
X167117409Y-107367000D01*
X167020715Y-107347766D01*
X166924019Y-107328532D01*
X166741849Y-107253074D01*
X166577900Y-107143527D01*
X166438473Y-107004100D01*
X166328926Y-106840151D01*
X166253468Y-106657981D01*
X166215000Y-106464590D01*
X166215000Y-106267410D01*
X166253468Y-106074019D01*
X166328926Y-105891849D01*
X166438473Y-105727900D01*
X166577900Y-105588473D01*
X166741849Y-105478926D01*
X166924019Y-105403468D01*
X167117409Y-105365000D01*
X167314591Y-105365000D01*
X167507981Y-105403468D01*
X167507981Y-105403468D01*
G37*
G36*
X77675596Y-103104207D02*
G01*
X77778024Y-103124581D01*
X77970204Y-103204185D01*
X78143161Y-103319751D01*
X78290249Y-103466839D01*
X78405815Y-103639796D01*
X78485419Y-103831976D01*
X78526000Y-104035993D01*
X78526000Y-104244007D01*
X78485419Y-104448024D01*
X78405815Y-104640204D01*
X78290249Y-104813161D01*
X78143161Y-104960249D01*
X77970204Y-105075815D01*
X77778024Y-105155419D01*
X77676015Y-105175710D01*
X77574008Y-105196000D01*
X77365992Y-105196000D01*
X77263985Y-105175710D01*
X77161976Y-105155419D01*
X76969796Y-105075815D01*
X76796839Y-104960249D01*
X76649751Y-104813161D01*
X76534185Y-104640204D01*
X76454581Y-104448024D01*
X76414000Y-104244007D01*
X76414000Y-104035993D01*
X76454581Y-103831976D01*
X76534185Y-103639796D01*
X76649751Y-103466839D01*
X76796839Y-103319751D01*
X76969796Y-103204185D01*
X77161976Y-103124581D01*
X77264404Y-103104207D01*
X77365992Y-103084000D01*
X77574008Y-103084000D01*
X77675596Y-103104207D01*
X77675596Y-103104207D01*
G37*
G36*
X102668564Y-103129389D02*
G01*
X102849138Y-103204185D01*
X102859835Y-103208616D01*
X103031973Y-103323635D01*
X103178365Y-103470027D01*
X103233988Y-103553272D01*
X103293385Y-103642167D01*
X103372611Y-103833436D01*
X103413000Y-104036484D01*
X103413000Y-104243516D01*
X103372611Y-104446564D01*
X103332191Y-104544146D01*
X103293384Y-104637835D01*
X103178365Y-104809973D01*
X103031973Y-104956365D01*
X102859835Y-105071384D01*
X102859834Y-105071385D01*
X102859833Y-105071385D01*
X102668564Y-105150611D01*
X102465516Y-105191000D01*
X102258484Y-105191000D01*
X102055436Y-105150611D01*
X101864167Y-105071385D01*
X101864166Y-105071385D01*
X101864165Y-105071384D01*
X101692027Y-104956365D01*
X101545635Y-104809973D01*
X101430616Y-104637835D01*
X101391809Y-104544146D01*
X101351389Y-104446564D01*
X101311000Y-104243516D01*
X101311000Y-104036484D01*
X101351389Y-103833436D01*
X101430615Y-103642167D01*
X101490013Y-103553272D01*
X101545635Y-103470027D01*
X101692027Y-103323635D01*
X101864165Y-103208616D01*
X101874862Y-103204185D01*
X102055436Y-103129389D01*
X102258484Y-103089000D01*
X102465516Y-103089000D01*
X102668564Y-103129389D01*
X102668564Y-103129389D01*
G37*
G36*
X110085097Y-103094069D02*
G01*
X110188032Y-103104207D01*
X110386146Y-103164305D01*
X110386149Y-103164306D01*
X110460757Y-103204185D01*
X110568729Y-103261897D01*
X110728765Y-103393235D01*
X110860103Y-103553271D01*
X110871193Y-103574019D01*
X110957694Y-103735851D01*
X110957695Y-103735854D01*
X111017793Y-103933968D01*
X111038085Y-104140000D01*
X111017793Y-104346032D01*
X110969843Y-104504099D01*
X110957694Y-104544149D01*
X110907619Y-104637833D01*
X110860103Y-104726729D01*
X110728765Y-104886765D01*
X110568729Y-105018103D01*
X110482975Y-105063939D01*
X110386149Y-105115694D01*
X110386146Y-105115695D01*
X110188032Y-105175793D01*
X110085097Y-105185931D01*
X110033631Y-105191000D01*
X109930369Y-105191000D01*
X109878903Y-105185931D01*
X109775968Y-105175793D01*
X109577854Y-105115695D01*
X109577851Y-105115694D01*
X109481025Y-105063939D01*
X109395271Y-105018103D01*
X109235235Y-104886765D01*
X109103897Y-104726729D01*
X109056381Y-104637833D01*
X109006306Y-104544149D01*
X108994157Y-104504099D01*
X108946207Y-104346032D01*
X108925915Y-104140000D01*
X108946207Y-103933968D01*
X109006305Y-103735854D01*
X109006306Y-103735851D01*
X109092807Y-103574019D01*
X109103897Y-103553271D01*
X109235235Y-103393235D01*
X109395271Y-103261897D01*
X109503243Y-103204185D01*
X109577851Y-103164306D01*
X109577854Y-103164305D01*
X109775968Y-103104207D01*
X109878903Y-103094069D01*
X109930369Y-103089000D01*
X110033631Y-103089000D01*
X110085097Y-103094069D01*
X110085097Y-103094069D01*
G37*
G36*
X167421285Y-102884234D02*
G01*
X167517981Y-102903468D01*
X167700151Y-102978926D01*
X167864100Y-103088473D01*
X168003527Y-103227900D01*
X168113074Y-103391849D01*
X168188532Y-103574019D01*
X168227000Y-103767410D01*
X168227000Y-103964590D01*
X168188532Y-104157981D01*
X168113074Y-104340151D01*
X168003527Y-104504100D01*
X167864100Y-104643527D01*
X167700151Y-104753074D01*
X167517981Y-104828532D01*
X167421285Y-104847766D01*
X167324591Y-104867000D01*
X167127409Y-104867000D01*
X167030715Y-104847766D01*
X166934019Y-104828532D01*
X166751849Y-104753074D01*
X166587900Y-104643527D01*
X166448473Y-104504100D01*
X166338926Y-104340151D01*
X166263468Y-104157981D01*
X166225000Y-103964590D01*
X166225000Y-103767410D01*
X166263468Y-103574019D01*
X166338926Y-103391849D01*
X166448473Y-103227900D01*
X166587900Y-103088473D01*
X166751849Y-102978926D01*
X166934019Y-102903468D01*
X167030715Y-102884234D01*
X167127409Y-102865000D01*
X167324591Y-102865000D01*
X167421285Y-102884234D01*
X167421285Y-102884234D01*
G37*
G36*
X159143000Y-104787000D02*
G01*
X157341000Y-104787000D01*
X157341000Y-102985000D01*
X159143000Y-102985000D01*
X159143000Y-104787000D01*
X159143000Y-104787000D01*
G37*
G36*
X167396285Y-100384234D02*
G01*
X167492981Y-100403468D01*
X167675151Y-100478926D01*
X167839100Y-100588473D01*
X167978527Y-100727900D01*
X168088074Y-100891849D01*
X168163532Y-101074019D01*
X168202000Y-101267410D01*
X168202000Y-101464590D01*
X168163532Y-101657981D01*
X168088074Y-101840151D01*
X167978527Y-102004100D01*
X167839100Y-102143527D01*
X167675151Y-102253074D01*
X167492981Y-102328532D01*
X167396285Y-102347766D01*
X167299591Y-102367000D01*
X167102409Y-102367000D01*
X167005715Y-102347766D01*
X166909019Y-102328532D01*
X166726849Y-102253074D01*
X166562900Y-102143527D01*
X166423473Y-102004100D01*
X166313926Y-101840151D01*
X166238468Y-101657981D01*
X166200000Y-101464590D01*
X166200000Y-101267410D01*
X166238468Y-101074019D01*
X166313926Y-100891849D01*
X166423473Y-100727900D01*
X166562900Y-100588473D01*
X166726849Y-100478926D01*
X166909019Y-100403468D01*
X167102409Y-100365000D01*
X167299591Y-100365000D01*
X167396285Y-100384234D01*
X167396285Y-100384234D01*
G37*
G36*
X158352443Y-100451519D02*
G01*
X158418627Y-100458037D01*
X158588466Y-100509557D01*
X158744991Y-100593222D01*
X158780729Y-100622552D01*
X158882186Y-100705814D01*
X158965448Y-100807271D01*
X158994778Y-100843009D01*
X159078443Y-100999534D01*
X159129963Y-101169373D01*
X159147359Y-101346000D01*
X159129963Y-101522627D01*
X159078443Y-101692466D01*
X158994778Y-101848991D01*
X158965448Y-101884729D01*
X158882186Y-101986186D01*
X158780729Y-102069448D01*
X158744991Y-102098778D01*
X158588466Y-102182443D01*
X158418627Y-102233963D01*
X158352443Y-102240481D01*
X158286260Y-102247000D01*
X158197740Y-102247000D01*
X158131557Y-102240481D01*
X158065373Y-102233963D01*
X157895534Y-102182443D01*
X157739009Y-102098778D01*
X157703271Y-102069448D01*
X157601814Y-101986186D01*
X157518552Y-101884729D01*
X157489222Y-101848991D01*
X157405557Y-101692466D01*
X157354037Y-101522627D01*
X157336641Y-101346000D01*
X157354037Y-101169373D01*
X157405557Y-100999534D01*
X157489222Y-100843009D01*
X157518552Y-100807271D01*
X157601814Y-100705814D01*
X157703271Y-100622552D01*
X157739009Y-100593222D01*
X157895534Y-100509557D01*
X158065373Y-100458037D01*
X158131557Y-100451519D01*
X158197740Y-100445000D01*
X158286260Y-100445000D01*
X158352443Y-100451519D01*
X158352443Y-100451519D01*
G37*
G36*
X97625000Y-101435000D02*
G01*
X95923000Y-101435000D01*
X95923000Y-99733000D01*
X97625000Y-99733000D01*
X97625000Y-101435000D01*
X97625000Y-101435000D01*
G37*
G36*
X91942228Y-99765703D02*
G01*
X92097100Y-99829853D01*
X92236481Y-99922985D01*
X92355015Y-100041519D01*
X92448147Y-100180900D01*
X92512297Y-100335772D01*
X92545000Y-100500184D01*
X92545000Y-100667816D01*
X92512297Y-100832228D01*
X92448147Y-100987100D01*
X92355015Y-101126481D01*
X92236481Y-101245015D01*
X92097100Y-101338147D01*
X91942228Y-101402297D01*
X91777816Y-101435000D01*
X91610184Y-101435000D01*
X91445772Y-101402297D01*
X91290900Y-101338147D01*
X91151519Y-101245015D01*
X91032985Y-101126481D01*
X90939853Y-100987100D01*
X90875703Y-100832228D01*
X90843000Y-100667816D01*
X90843000Y-100500184D01*
X90875703Y-100335772D01*
X90939853Y-100180900D01*
X91032985Y-100041519D01*
X91151519Y-99922985D01*
X91290900Y-99829853D01*
X91445772Y-99765703D01*
X91610184Y-99733000D01*
X91777816Y-99733000D01*
X91942228Y-99765703D01*
X91942228Y-99765703D01*
G37*
G36*
X89402228Y-99765703D02*
G01*
X89557100Y-99829853D01*
X89696481Y-99922985D01*
X89815015Y-100041519D01*
X89908147Y-100180900D01*
X89972297Y-100335772D01*
X90005000Y-100500184D01*
X90005000Y-100667816D01*
X89972297Y-100832228D01*
X89908147Y-100987100D01*
X89815015Y-101126481D01*
X89696481Y-101245015D01*
X89557100Y-101338147D01*
X89402228Y-101402297D01*
X89237816Y-101435000D01*
X89070184Y-101435000D01*
X88905772Y-101402297D01*
X88750900Y-101338147D01*
X88611519Y-101245015D01*
X88492985Y-101126481D01*
X88399853Y-100987100D01*
X88335703Y-100832228D01*
X88303000Y-100667816D01*
X88303000Y-100500184D01*
X88335703Y-100335772D01*
X88399853Y-100180900D01*
X88492985Y-100041519D01*
X88611519Y-99922985D01*
X88750900Y-99829853D01*
X88905772Y-99765703D01*
X89070184Y-99733000D01*
X89237816Y-99733000D01*
X89402228Y-99765703D01*
X89402228Y-99765703D01*
G37*
G36*
X94482228Y-99765703D02*
G01*
X94637100Y-99829853D01*
X94776481Y-99922985D01*
X94895015Y-100041519D01*
X94988147Y-100180900D01*
X95052297Y-100335772D01*
X95085000Y-100500184D01*
X95085000Y-100667816D01*
X95052297Y-100832228D01*
X94988147Y-100987100D01*
X94895015Y-101126481D01*
X94776481Y-101245015D01*
X94637100Y-101338147D01*
X94482228Y-101402297D01*
X94317816Y-101435000D01*
X94150184Y-101435000D01*
X93985772Y-101402297D01*
X93830900Y-101338147D01*
X93691519Y-101245015D01*
X93572985Y-101126481D01*
X93479853Y-100987100D01*
X93415703Y-100832228D01*
X93383000Y-100667816D01*
X93383000Y-100500184D01*
X93415703Y-100335772D01*
X93479853Y-100180900D01*
X93572985Y-100041519D01*
X93691519Y-99922985D01*
X93830900Y-99829853D01*
X93985772Y-99765703D01*
X94150184Y-99733000D01*
X94317816Y-99733000D01*
X94482228Y-99765703D01*
X94482228Y-99765703D01*
G37*
G36*
X77072443Y-98419519D02*
G01*
X77138627Y-98426037D01*
X77308466Y-98477557D01*
X77464991Y-98561222D01*
X77480584Y-98574019D01*
X77602186Y-98673814D01*
X77678996Y-98767409D01*
X77714778Y-98811009D01*
X77798443Y-98967534D01*
X77849963Y-99137373D01*
X77867359Y-99314000D01*
X77849963Y-99490627D01*
X77798443Y-99660466D01*
X77714778Y-99816991D01*
X77705306Y-99828532D01*
X77602186Y-99954186D01*
X77500729Y-100037448D01*
X77464991Y-100066778D01*
X77308466Y-100150443D01*
X77138627Y-100201963D01*
X77072442Y-100208482D01*
X77006260Y-100215000D01*
X76917740Y-100215000D01*
X76851558Y-100208482D01*
X76785373Y-100201963D01*
X76615534Y-100150443D01*
X76459009Y-100066778D01*
X76423271Y-100037448D01*
X76321814Y-99954186D01*
X76218694Y-99828532D01*
X76209222Y-99816991D01*
X76125557Y-99660466D01*
X76074037Y-99490627D01*
X76056641Y-99314000D01*
X76074037Y-99137373D01*
X76125557Y-98967534D01*
X76209222Y-98811009D01*
X76245004Y-98767409D01*
X76321814Y-98673814D01*
X76443416Y-98574019D01*
X76459009Y-98561222D01*
X76615534Y-98477557D01*
X76785373Y-98426037D01*
X76851557Y-98419519D01*
X76917740Y-98413000D01*
X77006260Y-98413000D01*
X77072443Y-98419519D01*
X77072443Y-98419519D01*
G37*
G36*
X167411285Y-97884234D02*
G01*
X167507981Y-97903468D01*
X167636795Y-97956825D01*
X167680891Y-97975090D01*
X167690151Y-97978926D01*
X167854100Y-98088473D01*
X167993527Y-98227900D01*
X168103074Y-98391849D01*
X168173231Y-98561221D01*
X168178532Y-98574020D01*
X168217000Y-98767409D01*
X168217000Y-98964591D01*
X168198486Y-99057665D01*
X168178532Y-99157981D01*
X168103074Y-99340151D01*
X167993527Y-99504100D01*
X167854100Y-99643527D01*
X167690151Y-99753074D01*
X167690150Y-99753075D01*
X167690149Y-99753075D01*
X167636795Y-99775175D01*
X167507981Y-99828532D01*
X167411285Y-99847766D01*
X167314591Y-99867000D01*
X167117409Y-99867000D01*
X167020715Y-99847766D01*
X166924019Y-99828532D01*
X166795205Y-99775175D01*
X166741851Y-99753075D01*
X166741850Y-99753075D01*
X166741849Y-99753074D01*
X166577900Y-99643527D01*
X166438473Y-99504100D01*
X166328926Y-99340151D01*
X166253468Y-99157981D01*
X166233514Y-99057665D01*
X166215000Y-98964591D01*
X166215000Y-98767409D01*
X166253468Y-98574020D01*
X166258770Y-98561221D01*
X166328926Y-98391849D01*
X166438473Y-98227900D01*
X166577900Y-98088473D01*
X166741849Y-97978926D01*
X166751110Y-97975090D01*
X166795205Y-97956825D01*
X166924019Y-97903468D01*
X167020715Y-97884234D01*
X167117409Y-97865000D01*
X167314591Y-97865000D01*
X167411285Y-97884234D01*
X167411285Y-97884234D01*
G37*
G36*
X135227225Y-97907983D02*
G01*
X135317890Y-97926017D01*
X135436364Y-97975091D01*
X135542988Y-98046335D01*
X135633665Y-98137012D01*
X135694395Y-98227900D01*
X135704910Y-98243638D01*
X135753983Y-98362110D01*
X135776947Y-98477558D01*
X135779000Y-98487882D01*
X135779000Y-98616118D01*
X135753983Y-98741890D01*
X135704909Y-98860364D01*
X135633665Y-98966988D01*
X135542988Y-99057665D01*
X135436364Y-99128909D01*
X135436363Y-99128910D01*
X135436362Y-99128910D01*
X135317890Y-99177983D01*
X135192119Y-99203000D01*
X135063881Y-99203000D01*
X134938110Y-99177983D01*
X134819638Y-99128910D01*
X134819637Y-99128910D01*
X134819636Y-99128909D01*
X134713012Y-99057665D01*
X134622335Y-98966988D01*
X134551091Y-98860364D01*
X134502017Y-98741890D01*
X134477000Y-98616118D01*
X134477000Y-98487882D01*
X134479054Y-98477558D01*
X134502017Y-98362110D01*
X134551090Y-98243638D01*
X134561606Y-98227900D01*
X134622335Y-98137012D01*
X134713012Y-98046335D01*
X134819636Y-97975091D01*
X134938110Y-97926017D01*
X135028775Y-97907983D01*
X135063881Y-97901000D01*
X135192119Y-97901000D01*
X135227225Y-97907983D01*
X135227225Y-97907983D01*
G37*
G36*
X138219000Y-99103000D02*
G01*
X137117000Y-99103000D01*
X137117000Y-98001000D01*
X138219000Y-98001000D01*
X138219000Y-99103000D01*
X138219000Y-99103000D01*
G37*
G36*
X136587890Y-96656017D02*
G01*
X136668445Y-96689384D01*
X136706364Y-96705091D01*
X136812988Y-96776335D01*
X136903665Y-96867012D01*
X136974909Y-96973636D01*
X137023983Y-97092110D01*
X137049000Y-97217882D01*
X137049000Y-97346118D01*
X137023983Y-97471890D01*
X136974909Y-97590364D01*
X136903665Y-97696988D01*
X136812988Y-97787665D01*
X136706364Y-97858909D01*
X136706363Y-97858910D01*
X136706362Y-97858910D01*
X136587890Y-97907983D01*
X136462119Y-97933000D01*
X136333881Y-97933000D01*
X136208110Y-97907983D01*
X136089638Y-97858910D01*
X136089637Y-97858910D01*
X136089636Y-97858909D01*
X135983012Y-97787665D01*
X135892335Y-97696988D01*
X135821091Y-97590364D01*
X135772017Y-97471890D01*
X135747000Y-97346118D01*
X135747000Y-97217882D01*
X135772017Y-97092110D01*
X135821091Y-96973636D01*
X135892335Y-96867012D01*
X135983012Y-96776335D01*
X136089636Y-96705091D01*
X136127556Y-96689384D01*
X136208110Y-96656017D01*
X136333881Y-96631000D01*
X136462119Y-96631000D01*
X136587890Y-96656017D01*
X136587890Y-96656017D01*
G37*
G36*
X170422162Y-94410368D02*
G01*
X170731724Y-94538593D01*
X170731725Y-94538594D01*
X171010324Y-94724747D01*
X171247253Y-94961676D01*
X171371637Y-95147830D01*
X171433407Y-95240276D01*
X171561632Y-95549838D01*
X171627000Y-95878465D01*
X171627000Y-96213535D01*
X171561632Y-96542162D01*
X171433407Y-96851724D01*
X171433406Y-96851725D01*
X171247253Y-97130324D01*
X171010324Y-97367253D01*
X170853723Y-97471890D01*
X170731724Y-97553407D01*
X170422162Y-97681632D01*
X170093535Y-97747000D01*
X169758465Y-97747000D01*
X169429838Y-97681632D01*
X169120276Y-97553407D01*
X168998277Y-97471890D01*
X168841676Y-97367253D01*
X168604747Y-97130324D01*
X168418594Y-96851725D01*
X168418593Y-96851724D01*
X168290368Y-96542162D01*
X168225000Y-96213535D01*
X168225000Y-95878465D01*
X168290368Y-95549838D01*
X168418593Y-95240276D01*
X168480363Y-95147830D01*
X168604747Y-94961676D01*
X168841676Y-94724747D01*
X169120275Y-94538594D01*
X169120276Y-94538593D01*
X169429838Y-94410368D01*
X169758465Y-94345000D01*
X170093535Y-94345000D01*
X170422162Y-94410368D01*
X170422162Y-94410368D01*
G37*
G36*
X77863000Y-97675000D02*
G01*
X76061000Y-97675000D01*
X76061000Y-95873000D01*
X77863000Y-95873000D01*
X77863000Y-97675000D01*
X77863000Y-97675000D01*
G37*
G36*
X129575000Y-96809000D02*
G01*
X127473000Y-96809000D01*
X127473000Y-94707000D01*
X129575000Y-94707000D01*
X129575000Y-96809000D01*
X129575000Y-96809000D01*
G37*
G36*
X118830564Y-94747389D02*
G01*
X119021833Y-94826615D01*
X119021835Y-94826616D01*
X119193973Y-94941635D01*
X119340365Y-95088027D01*
X119442095Y-95240276D01*
X119455385Y-95260167D01*
X119534611Y-95451436D01*
X119575000Y-95654484D01*
X119575000Y-95861516D01*
X119534611Y-96064564D01*
X119472906Y-96213534D01*
X119455384Y-96255835D01*
X119340365Y-96427973D01*
X119193973Y-96574365D01*
X119021835Y-96689384D01*
X119021834Y-96689385D01*
X119021833Y-96689385D01*
X118830564Y-96768611D01*
X118627516Y-96809000D01*
X118420484Y-96809000D01*
X118217436Y-96768611D01*
X118026167Y-96689385D01*
X118026166Y-96689385D01*
X118026165Y-96689384D01*
X117854027Y-96574365D01*
X117707635Y-96427973D01*
X117592616Y-96255835D01*
X117575094Y-96213534D01*
X117513389Y-96064564D01*
X117473000Y-95861516D01*
X117473000Y-95654484D01*
X117513389Y-95451436D01*
X117592615Y-95260167D01*
X117605906Y-95240276D01*
X117707635Y-95088027D01*
X117854027Y-94941635D01*
X118026165Y-94826616D01*
X118026167Y-94826615D01*
X118217436Y-94747389D01*
X118420484Y-94707000D01*
X118627516Y-94707000D01*
X118830564Y-94747389D01*
X118830564Y-94747389D01*
G37*
G36*
X79519331Y-87422211D02*
G01*
X79847092Y-87557974D01*
X80142070Y-87755072D01*
X80392928Y-88005930D01*
X80590026Y-88300908D01*
X80725789Y-88628669D01*
X80795000Y-88976616D01*
X80795000Y-89331384D01*
X80725789Y-89679331D01*
X80590026Y-90007092D01*
X80392928Y-90302070D01*
X80142070Y-90552928D01*
X79847092Y-90750026D01*
X79519331Y-90885789D01*
X79171384Y-90955000D01*
X78816616Y-90955000D01*
X78468669Y-90885789D01*
X78140908Y-90750026D01*
X77845930Y-90552928D01*
X77595072Y-90302070D01*
X77397974Y-90007092D01*
X77262211Y-89679331D01*
X77193000Y-89331384D01*
X77193000Y-88976616D01*
X77262211Y-88628669D01*
X77397974Y-88300908D01*
X77595072Y-88005930D01*
X77845930Y-87755072D01*
X78140908Y-87557974D01*
X78468669Y-87422211D01*
X78816616Y-87353000D01*
X79171384Y-87353000D01*
X79519331Y-87422211D01*
X79519331Y-87422211D01*
G37*
G36*
X182389331Y-87422211D02*
G01*
X182717092Y-87557974D01*
X183012070Y-87755072D01*
X183262928Y-88005930D01*
X183460026Y-88300908D01*
X183595789Y-88628669D01*
X183665000Y-88976616D01*
X183665000Y-89331384D01*
X183595789Y-89679331D01*
X183460026Y-90007092D01*
X183262928Y-90302070D01*
X183012070Y-90552928D01*
X182717092Y-90750026D01*
X182389331Y-90885789D01*
X182041384Y-90955000D01*
X181686616Y-90955000D01*
X181338669Y-90885789D01*
X181010908Y-90750026D01*
X180715930Y-90552928D01*
X180465072Y-90302070D01*
X180267974Y-90007092D01*
X180132211Y-89679331D01*
X180063000Y-89331384D01*
X180063000Y-88976616D01*
X180132211Y-88628669D01*
X180267974Y-88300908D01*
X180465072Y-88005930D01*
X180715930Y-87755072D01*
X181010908Y-87557974D01*
X181338669Y-87422211D01*
X181686616Y-87353000D01*
X182041384Y-87353000D01*
X182389331Y-87422211D01*
X182389331Y-87422211D01*
G37*
G36*
X89772443Y-85719519D02*
G01*
X89838627Y-85726037D01*
X90008466Y-85777557D01*
X90164991Y-85861222D01*
X90200729Y-85890552D01*
X90302186Y-85973814D01*
X90385448Y-86075271D01*
X90414778Y-86111009D01*
X90498443Y-86267534D01*
X90549963Y-86437373D01*
X90567359Y-86614000D01*
X90549963Y-86790627D01*
X90498443Y-86960466D01*
X90414778Y-87116991D01*
X90385448Y-87152729D01*
X90302186Y-87254186D01*
X90200729Y-87337448D01*
X90164991Y-87366778D01*
X90008466Y-87450443D01*
X89838627Y-87501963D01*
X89772443Y-87508481D01*
X89706260Y-87515000D01*
X89617740Y-87515000D01*
X89551557Y-87508481D01*
X89485373Y-87501963D01*
X89315534Y-87450443D01*
X89159009Y-87366778D01*
X89123271Y-87337448D01*
X89021814Y-87254186D01*
X88938552Y-87152729D01*
X88909222Y-87116991D01*
X88825557Y-86960466D01*
X88774037Y-86790627D01*
X88756641Y-86614000D01*
X88774037Y-86437373D01*
X88825557Y-86267534D01*
X88909222Y-86111009D01*
X88938552Y-86075271D01*
X89021814Y-85973814D01*
X89123271Y-85890552D01*
X89159009Y-85861222D01*
X89315534Y-85777557D01*
X89485373Y-85726037D01*
X89551557Y-85719519D01*
X89617740Y-85713000D01*
X89706260Y-85713000D01*
X89772443Y-85719519D01*
X89772443Y-85719519D01*
G37*
G36*
X88023000Y-87515000D02*
G01*
X86221000Y-87515000D01*
X86221000Y-85713000D01*
X88023000Y-85713000D01*
X88023000Y-87515000D01*
X88023000Y-87515000D01*
G37*
G36*
X121805000Y-87261000D02*
G01*
X120003000Y-87261000D01*
X120003000Y-85459000D01*
X121805000Y-85459000D01*
X121805000Y-87261000D01*
X121805000Y-87261000D01*
G37*
G36*
X123554442Y-85465518D02*
G01*
X123620627Y-85472037D01*
X123790466Y-85523557D01*
X123946991Y-85607222D01*
X123982729Y-85636552D01*
X124084186Y-85719814D01*
X124167448Y-85821271D01*
X124196778Y-85857009D01*
X124280443Y-86013534D01*
X124331963Y-86183373D01*
X124349359Y-86360000D01*
X124331963Y-86536627D01*
X124280443Y-86706466D01*
X124196778Y-86862991D01*
X124167448Y-86898729D01*
X124084186Y-87000186D01*
X123982729Y-87083448D01*
X123946991Y-87112778D01*
X123790466Y-87196443D01*
X123620627Y-87247963D01*
X123557453Y-87254185D01*
X123488260Y-87261000D01*
X123399740Y-87261000D01*
X123330547Y-87254185D01*
X123267373Y-87247963D01*
X123097534Y-87196443D01*
X122941009Y-87112778D01*
X122905271Y-87083448D01*
X122803814Y-87000186D01*
X122720552Y-86898729D01*
X122691222Y-86862991D01*
X122607557Y-86706466D01*
X122556037Y-86536627D01*
X122538641Y-86360000D01*
X122556037Y-86183373D01*
X122607557Y-86013534D01*
X122691222Y-85857009D01*
X122720552Y-85821271D01*
X122803814Y-85719814D01*
X122905271Y-85636552D01*
X122941009Y-85607222D01*
X123097534Y-85523557D01*
X123267373Y-85472037D01*
X123333558Y-85465518D01*
X123399740Y-85459000D01*
X123488260Y-85459000D01*
X123554442Y-85465518D01*
X123554442Y-85465518D01*
G37*
M02*
