G04 #@! TF.GenerationSoftware,KiCad,Pcbnew,5.1.4-e60b266~84~ubuntu18.04.1*
G04 #@! TF.CreationDate,2019-09-29T22:34:52+02:00*
G04 #@! TF.ProjectId,Circuit,43697263-7569-4742-9e6b-696361645f70,rev?*
G04 #@! TF.SameCoordinates,Original*
G04 #@! TF.FileFunction,Copper,L2,Bot*
G04 #@! TF.FilePolarity,Positive*
%FSLAX46Y46*%
G04 Gerber Fmt 4.6, Leading zero omitted, Abs format (unit mm)*
G04 Created by KiCad (PCBNEW 5.1.4-e60b266~84~ubuntu18.04.1) date 2019-09-29 22:34:52*
%MOMM*%
%LPD*%
G04 APERTURE LIST*
G04 #@! TA.AperFunction,ComponentPad*
%ADD10O,1.700000X1.700000*%
G04 #@! TD*
G04 #@! TA.AperFunction,ComponentPad*
%ADD11R,1.700000X1.700000*%
G04 #@! TD*
G04 #@! TA.AperFunction,ComponentPad*
%ADD12C,2.010000*%
G04 #@! TD*
G04 #@! TA.AperFunction,ComponentPad*
%ADD13R,2.000000X2.000000*%
G04 #@! TD*
G04 #@! TA.AperFunction,ComponentPad*
%ADD14C,2.000000*%
G04 #@! TD*
G04 #@! TA.AperFunction,ComponentPad*
%ADD15C,3.300000*%
G04 #@! TD*
G04 #@! TA.AperFunction,ComponentPad*
%ADD16C,1.900000*%
G04 #@! TD*
G04 #@! TA.AperFunction,ComponentPad*
%ADD17O,2.000000X2.000000*%
G04 #@! TD*
G04 #@! TA.AperFunction,ComponentPad*
%ADD18R,1.000000X1.000000*%
G04 #@! TD*
G04 #@! TA.AperFunction,ComponentPad*
%ADD19C,1.200000*%
G04 #@! TD*
G04 #@! TA.AperFunction,ComponentPad*
%ADD20R,1.600000X1.600000*%
G04 #@! TD*
G04 #@! TA.AperFunction,ComponentPad*
%ADD21C,1.600000*%
G04 #@! TD*
G04 #@! TA.AperFunction,ViaPad*
%ADD22C,0.800000*%
G04 #@! TD*
G04 #@! TA.AperFunction,Conductor*
%ADD23C,0.254000*%
G04 #@! TD*
G04 APERTURE END LIST*
D10*
G04 #@! TO.P,J7,2*
G04 #@! TO.N,Net-(C1-Pad1)*
X89662000Y-86614000D03*
D11*
G04 #@! TO.P,J7,1*
X87122000Y-86614000D03*
G04 #@! TD*
D12*
G04 #@! TO.P,F1,2*
G04 #@! TO.N,Net-(C1-Pad1)*
X76270000Y-109240000D03*
G04 #@! TO.P,F1,1*
G04 #@! TO.N,+12V*
X77470000Y-104140000D03*
G04 #@! TD*
D10*
G04 #@! TO.P,J5,2*
G04 #@! TO.N,Net-(J1-Pad1)*
X149606000Y-119126000D03*
D11*
G04 #@! TO.P,J5,1*
X147066000Y-119126000D03*
G04 #@! TD*
D10*
G04 #@! TO.P,J6,2*
G04 #@! TO.N,GND*
X123444000Y-86360000D03*
D11*
G04 #@! TO.P,J6,1*
X120904000Y-86360000D03*
G04 #@! TD*
D10*
G04 #@! TO.P,J4,2*
G04 #@! TO.N,/D-*
X158242000Y-101346000D03*
D11*
G04 #@! TO.P,J4,1*
G04 #@! TO.N,/D+*
X158242000Y-103886000D03*
G04 #@! TD*
D10*
G04 #@! TO.P,J3,2*
G04 #@! TO.N,+5V*
X118364000Y-119126000D03*
D11*
G04 #@! TO.P,J3,1*
X120904000Y-119126000D03*
G04 #@! TD*
D10*
G04 #@! TO.P,J2,2*
G04 #@! TO.N,+12V*
X76962000Y-99314000D03*
D11*
G04 #@! TO.P,J2,1*
X76962000Y-96774000D03*
G04 #@! TD*
D13*
G04 #@! TO.P,D2,1*
G04 #@! TO.N,Net-(D2-Pad1)*
X128524000Y-95758000D03*
D14*
G04 #@! TO.P,D2,2*
G04 #@! TO.N,GND*
X118524000Y-95758000D03*
G04 #@! TD*
D15*
G04 #@! TO.P,J1,SH*
G04 #@! TO.N,Net-(J1-PadSH)*
X169926000Y-96046000D03*
X169926000Y-109186000D03*
D16*
G04 #@! TO.P,J1,1*
G04 #@! TO.N,Net-(J1-Pad1)*
X167216000Y-98866000D03*
G04 #@! TO.P,J1,2*
G04 #@! TO.N,/D-*
X167201000Y-101366000D03*
G04 #@! TO.P,J1,3*
G04 #@! TO.N,/D+*
X167226000Y-103866000D03*
G04 #@! TO.P,J1,4*
G04 #@! TO.N,GND*
X167216000Y-106366000D03*
G04 #@! TD*
D14*
G04 #@! TO.P,L1,1*
G04 #@! TO.N,Net-(C6-Pad2)*
X102362000Y-104140000D03*
D17*
G04 #@! TO.P,L1,2*
G04 #@! TO.N,+5V*
X109982000Y-104140000D03*
G04 #@! TD*
D18*
G04 #@! TO.P,Q2,1*
G04 #@! TO.N,GND*
X137668000Y-98552000D03*
D19*
G04 #@! TO.P,Q2,2*
G04 #@! TO.N,Net-(D2-Pad1)*
X136398000Y-97282000D03*
G04 #@! TO.P,Q2,3*
G04 #@! TO.N,Net-(Q1-Pad1)*
X135128000Y-98552000D03*
G04 #@! TD*
D20*
G04 #@! TO.P,U1,1*
G04 #@! TO.N,GND*
X96774000Y-100584000D03*
D21*
G04 #@! TO.P,U1,2*
G04 #@! TO.N,Net-(C5-Pad1)*
X94234000Y-100584000D03*
G04 #@! TO.P,U1,3*
G04 #@! TO.N,Net-(C2-Pad1)*
X91694000Y-100584000D03*
G04 #@! TO.P,U1,4*
G04 #@! TO.N,Net-(C6-Pad2)*
X89154000Y-100584000D03*
G04 #@! TO.P,U1,5*
G04 #@! TO.N,Net-(C1-Pad1)*
X89154000Y-108204000D03*
G04 #@! TO.P,U1,6*
G04 #@! TO.N,Net-(C6-Pad1)*
X91694000Y-108204000D03*
G04 #@! TO.P,U1,7*
G04 #@! TO.N,Net-(R2-Pad1)*
X94234000Y-108204000D03*
G04 #@! TO.P,U1,8*
G04 #@! TO.N,Net-(R3-Pad2)*
X96774000Y-108204000D03*
G04 #@! TD*
D22*
G04 #@! TO.N,GND*
X101092000Y-92964000D03*
X101092000Y-96774000D03*
X85598000Y-118110000D03*
X99060000Y-118364000D03*
X110236000Y-118110000D03*
X120904000Y-110490000D03*
X115824000Y-86360000D03*
X127508000Y-86360000D03*
X162052000Y-106426000D03*
G04 #@! TD*
D23*
G04 #@! TO.N,GND*
G36*
X119699506Y-84979463D02*
G01*
X119602815Y-85058815D01*
X119523463Y-85155506D01*
X119464498Y-85265820D01*
X119428188Y-85385518D01*
X119415928Y-85510000D01*
X119419000Y-86074250D01*
X119577750Y-86233000D01*
X120777000Y-86233000D01*
X120777000Y-86213000D01*
X121031000Y-86213000D01*
X121031000Y-86233000D01*
X123317000Y-86233000D01*
X123317000Y-86213000D01*
X123571000Y-86213000D01*
X123571000Y-86233000D01*
X124764814Y-86233000D01*
X124885481Y-86003109D01*
X124788157Y-85728748D01*
X124639178Y-85478645D01*
X124444269Y-85262412D01*
X124210920Y-85088359D01*
X123948099Y-84963175D01*
X123947522Y-84963000D01*
X185277603Y-84963000D01*
X185442625Y-85050744D01*
X185547000Y-85135870D01*
X185547000Y-119842627D01*
X185453514Y-119919965D01*
X185277751Y-120015000D01*
X150797477Y-120015000D01*
X150846706Y-119955014D01*
X150984599Y-119697034D01*
X151069513Y-119417111D01*
X151098185Y-119126000D01*
X151069513Y-118834889D01*
X150984599Y-118554966D01*
X150846706Y-118296986D01*
X150661134Y-118070866D01*
X150435014Y-117885294D01*
X150177034Y-117747401D01*
X149897111Y-117662487D01*
X149678950Y-117641000D01*
X149533050Y-117641000D01*
X149314889Y-117662487D01*
X149034966Y-117747401D01*
X148776986Y-117885294D01*
X148550866Y-118070866D01*
X148526393Y-118100687D01*
X148505502Y-118031820D01*
X148446537Y-117921506D01*
X148367185Y-117824815D01*
X148270494Y-117745463D01*
X148160180Y-117686498D01*
X148040482Y-117650188D01*
X147916000Y-117637928D01*
X146216000Y-117637928D01*
X146091518Y-117650188D01*
X145971820Y-117686498D01*
X145861506Y-117745463D01*
X145764815Y-117824815D01*
X145685463Y-117921506D01*
X145626498Y-118031820D01*
X145590188Y-118151518D01*
X145577928Y-118276000D01*
X145577928Y-119976000D01*
X145581769Y-120015000D01*
X122388231Y-120015000D01*
X122392072Y-119976000D01*
X122392072Y-118276000D01*
X122379812Y-118151518D01*
X122343502Y-118031820D01*
X122284537Y-117921506D01*
X122205185Y-117824815D01*
X122108494Y-117745463D01*
X121998180Y-117686498D01*
X121878482Y-117650188D01*
X121754000Y-117637928D01*
X120054000Y-117637928D01*
X119929518Y-117650188D01*
X119809820Y-117686498D01*
X119699506Y-117745463D01*
X119602815Y-117824815D01*
X119523463Y-117921506D01*
X119464498Y-118031820D01*
X119443607Y-118100687D01*
X119419134Y-118070866D01*
X119193014Y-117885294D01*
X118935034Y-117747401D01*
X118655111Y-117662487D01*
X118436950Y-117641000D01*
X118291050Y-117641000D01*
X118072889Y-117662487D01*
X117792966Y-117747401D01*
X117534986Y-117885294D01*
X117308866Y-118070866D01*
X117123294Y-118296986D01*
X116985401Y-118554966D01*
X116900487Y-118834889D01*
X116871815Y-119126000D01*
X116900487Y-119417111D01*
X116985401Y-119697034D01*
X117123294Y-119955014D01*
X117172523Y-120015000D01*
X76073000Y-120015000D01*
X76073000Y-115589098D01*
X76609000Y-115589098D01*
X76609000Y-116058902D01*
X76700654Y-116519679D01*
X76880440Y-116953721D01*
X77141450Y-117344349D01*
X77473651Y-117676550D01*
X77864279Y-117937560D01*
X78298321Y-118117346D01*
X78759098Y-118209000D01*
X79228902Y-118209000D01*
X79689679Y-118117346D01*
X80123721Y-117937560D01*
X80514349Y-117676550D01*
X80846550Y-117344349D01*
X81107560Y-116953721D01*
X81287346Y-116519679D01*
X81379000Y-116058902D01*
X81379000Y-115589098D01*
X179479000Y-115589098D01*
X179479000Y-116058902D01*
X179570654Y-116519679D01*
X179750440Y-116953721D01*
X180011450Y-117344349D01*
X180343651Y-117676550D01*
X180734279Y-117937560D01*
X181168321Y-118117346D01*
X181629098Y-118209000D01*
X182098902Y-118209000D01*
X182559679Y-118117346D01*
X182993721Y-117937560D01*
X183384349Y-117676550D01*
X183716550Y-117344349D01*
X183977560Y-116953721D01*
X184157346Y-116519679D01*
X184249000Y-116058902D01*
X184249000Y-115589098D01*
X184157346Y-115128321D01*
X183977560Y-114694279D01*
X183716550Y-114303651D01*
X183384349Y-113971450D01*
X182993721Y-113710440D01*
X182559679Y-113530654D01*
X182098902Y-113439000D01*
X181629098Y-113439000D01*
X181168321Y-113530654D01*
X180734279Y-113710440D01*
X180343651Y-113971450D01*
X180011450Y-114303651D01*
X179750440Y-114694279D01*
X179570654Y-115128321D01*
X179479000Y-115589098D01*
X81379000Y-115589098D01*
X81287346Y-115128321D01*
X81107560Y-114694279D01*
X80846550Y-114303651D01*
X80514349Y-113971450D01*
X80123721Y-113710440D01*
X79689679Y-113530654D01*
X79228902Y-113439000D01*
X78759098Y-113439000D01*
X78298321Y-113530654D01*
X77864279Y-113710440D01*
X77473651Y-113971450D01*
X77141450Y-114303651D01*
X76880440Y-114694279D01*
X76700654Y-115128321D01*
X76609000Y-115589098D01*
X76073000Y-115589098D01*
X76073000Y-110872944D01*
X76108474Y-110880000D01*
X76431526Y-110880000D01*
X76748370Y-110816975D01*
X77046831Y-110693349D01*
X77315439Y-110513871D01*
X77543871Y-110285439D01*
X77723349Y-110016831D01*
X77846975Y-109718370D01*
X77910000Y-109401526D01*
X77910000Y-109078474D01*
X77846975Y-108761630D01*
X77723349Y-108463169D01*
X77543871Y-108194561D01*
X77411975Y-108062665D01*
X87719000Y-108062665D01*
X87719000Y-108345335D01*
X87774147Y-108622574D01*
X87882320Y-108883727D01*
X88039363Y-109118759D01*
X88239241Y-109318637D01*
X88474273Y-109475680D01*
X88735426Y-109583853D01*
X89012665Y-109639000D01*
X89295335Y-109639000D01*
X89572574Y-109583853D01*
X89833727Y-109475680D01*
X90068759Y-109318637D01*
X90268637Y-109118759D01*
X90424000Y-108886241D01*
X90579363Y-109118759D01*
X90779241Y-109318637D01*
X91014273Y-109475680D01*
X91275426Y-109583853D01*
X91552665Y-109639000D01*
X91835335Y-109639000D01*
X92112574Y-109583853D01*
X92373727Y-109475680D01*
X92608759Y-109318637D01*
X92808637Y-109118759D01*
X92964000Y-108886241D01*
X93119363Y-109118759D01*
X93319241Y-109318637D01*
X93554273Y-109475680D01*
X93815426Y-109583853D01*
X94092665Y-109639000D01*
X94375335Y-109639000D01*
X94652574Y-109583853D01*
X94913727Y-109475680D01*
X95148759Y-109318637D01*
X95348637Y-109118759D01*
X95504000Y-108886241D01*
X95659363Y-109118759D01*
X95859241Y-109318637D01*
X96094273Y-109475680D01*
X96355426Y-109583853D01*
X96632665Y-109639000D01*
X96915335Y-109639000D01*
X97192574Y-109583853D01*
X97453727Y-109475680D01*
X97688759Y-109318637D01*
X97888637Y-109118759D01*
X97994083Y-108960947D01*
X167641000Y-108960947D01*
X167641000Y-109411053D01*
X167728811Y-109852510D01*
X167901059Y-110268353D01*
X168151125Y-110642603D01*
X168469397Y-110960875D01*
X168843647Y-111210941D01*
X169259490Y-111383189D01*
X169700947Y-111471000D01*
X170151053Y-111471000D01*
X170592510Y-111383189D01*
X171008353Y-111210941D01*
X171382603Y-110960875D01*
X171700875Y-110642603D01*
X171950941Y-110268353D01*
X172123189Y-109852510D01*
X172211000Y-109411053D01*
X172211000Y-108960947D01*
X172123189Y-108519490D01*
X171950941Y-108103647D01*
X171700875Y-107729397D01*
X171382603Y-107411125D01*
X171008353Y-107161059D01*
X170592510Y-106988811D01*
X170151053Y-106901000D01*
X169700947Y-106901000D01*
X169259490Y-106988811D01*
X168843647Y-107161059D01*
X168469397Y-107411125D01*
X168151125Y-107729397D01*
X167901059Y-108103647D01*
X167728811Y-108519490D01*
X167641000Y-108960947D01*
X97994083Y-108960947D01*
X98045680Y-108883727D01*
X98153853Y-108622574D01*
X98209000Y-108345335D01*
X98209000Y-108062665D01*
X98153853Y-107785426D01*
X98045680Y-107524273D01*
X98006578Y-107465752D01*
X166295853Y-107465752D01*
X166385579Y-107725042D01*
X166666671Y-107860935D01*
X166968873Y-107939379D01*
X167280573Y-107957359D01*
X167589791Y-107914184D01*
X167884644Y-107811513D01*
X168046421Y-107725042D01*
X168136147Y-107465752D01*
X167216000Y-106545605D01*
X166295853Y-107465752D01*
X98006578Y-107465752D01*
X97888637Y-107289241D01*
X97688759Y-107089363D01*
X97453727Y-106932320D01*
X97192574Y-106824147D01*
X96915335Y-106769000D01*
X96632665Y-106769000D01*
X96355426Y-106824147D01*
X96094273Y-106932320D01*
X95859241Y-107089363D01*
X95659363Y-107289241D01*
X95504000Y-107521759D01*
X95348637Y-107289241D01*
X95148759Y-107089363D01*
X94913727Y-106932320D01*
X94652574Y-106824147D01*
X94375335Y-106769000D01*
X94092665Y-106769000D01*
X93815426Y-106824147D01*
X93554273Y-106932320D01*
X93319241Y-107089363D01*
X93119363Y-107289241D01*
X92964000Y-107521759D01*
X92808637Y-107289241D01*
X92608759Y-107089363D01*
X92373727Y-106932320D01*
X92112574Y-106824147D01*
X91835335Y-106769000D01*
X91552665Y-106769000D01*
X91275426Y-106824147D01*
X91014273Y-106932320D01*
X90779241Y-107089363D01*
X90579363Y-107289241D01*
X90424000Y-107521759D01*
X90268637Y-107289241D01*
X90068759Y-107089363D01*
X89833727Y-106932320D01*
X89572574Y-106824147D01*
X89295335Y-106769000D01*
X89012665Y-106769000D01*
X88735426Y-106824147D01*
X88474273Y-106932320D01*
X88239241Y-107089363D01*
X88039363Y-107289241D01*
X87882320Y-107524273D01*
X87774147Y-107785426D01*
X87719000Y-108062665D01*
X77411975Y-108062665D01*
X77315439Y-107966129D01*
X77046831Y-107786651D01*
X76748370Y-107663025D01*
X76431526Y-107600000D01*
X76108474Y-107600000D01*
X76073000Y-107607056D01*
X76073000Y-106430573D01*
X165624641Y-106430573D01*
X165667816Y-106739791D01*
X165770487Y-107034644D01*
X165856958Y-107196421D01*
X166116248Y-107286147D01*
X167036395Y-106366000D01*
X167395605Y-106366000D01*
X168315752Y-107286147D01*
X168575042Y-107196421D01*
X168710935Y-106915329D01*
X168789379Y-106613127D01*
X168807359Y-106301427D01*
X168764184Y-105992209D01*
X168661513Y-105697356D01*
X168575042Y-105535579D01*
X168315752Y-105445853D01*
X167395605Y-106366000D01*
X167036395Y-106366000D01*
X166116248Y-105445853D01*
X165856958Y-105535579D01*
X165721065Y-105816671D01*
X165642621Y-106118873D01*
X165624641Y-106430573D01*
X76073000Y-106430573D01*
X76073000Y-105001163D01*
X76196129Y-105185439D01*
X76424561Y-105413871D01*
X76693169Y-105593349D01*
X76991630Y-105716975D01*
X77308474Y-105780000D01*
X77631526Y-105780000D01*
X77948370Y-105716975D01*
X78246831Y-105593349D01*
X78515439Y-105413871D01*
X78743871Y-105185439D01*
X78923349Y-104916831D01*
X79046975Y-104618370D01*
X79110000Y-104301526D01*
X79110000Y-103978967D01*
X100727000Y-103978967D01*
X100727000Y-104301033D01*
X100789832Y-104616912D01*
X100913082Y-104914463D01*
X101092013Y-105182252D01*
X101319748Y-105409987D01*
X101587537Y-105588918D01*
X101885088Y-105712168D01*
X102200967Y-105775000D01*
X102523033Y-105775000D01*
X102838912Y-105712168D01*
X103136463Y-105588918D01*
X103404252Y-105409987D01*
X103631987Y-105182252D01*
X103810918Y-104914463D01*
X103934168Y-104616912D01*
X103997000Y-104301033D01*
X103997000Y-104140000D01*
X108339089Y-104140000D01*
X108370657Y-104460516D01*
X108464148Y-104768715D01*
X108615969Y-105052752D01*
X108820286Y-105301714D01*
X109069248Y-105506031D01*
X109353285Y-105657852D01*
X109661484Y-105751343D01*
X109901678Y-105775000D01*
X110062322Y-105775000D01*
X110302516Y-105751343D01*
X110610715Y-105657852D01*
X110894752Y-105506031D01*
X111143714Y-105301714D01*
X111348031Y-105052752D01*
X111499852Y-104768715D01*
X111593343Y-104460516D01*
X111624911Y-104140000D01*
X111593343Y-103819484D01*
X111499852Y-103511285D01*
X111348031Y-103227248D01*
X111143714Y-102978286D01*
X110894752Y-102773969D01*
X110610715Y-102622148D01*
X110302516Y-102528657D01*
X110062322Y-102505000D01*
X109901678Y-102505000D01*
X109661484Y-102528657D01*
X109353285Y-102622148D01*
X109069248Y-102773969D01*
X108820286Y-102978286D01*
X108615969Y-103227248D01*
X108464148Y-103511285D01*
X108370657Y-103819484D01*
X108339089Y-104140000D01*
X103997000Y-104140000D01*
X103997000Y-103978967D01*
X103934168Y-103663088D01*
X103810918Y-103365537D01*
X103631987Y-103097748D01*
X103404252Y-102870013D01*
X103136463Y-102691082D01*
X102838912Y-102567832D01*
X102523033Y-102505000D01*
X102200967Y-102505000D01*
X101885088Y-102567832D01*
X101587537Y-102691082D01*
X101319748Y-102870013D01*
X101092013Y-103097748D01*
X100913082Y-103365537D01*
X100789832Y-103663088D01*
X100727000Y-103978967D01*
X79110000Y-103978967D01*
X79110000Y-103978474D01*
X79046975Y-103661630D01*
X78923349Y-103363169D01*
X78743871Y-103094561D01*
X78515439Y-102866129D01*
X78246831Y-102686651D01*
X77948370Y-102563025D01*
X77631526Y-102500000D01*
X77308474Y-102500000D01*
X76991630Y-102563025D01*
X76693169Y-102686651D01*
X76424561Y-102866129D01*
X76196129Y-103094561D01*
X76073000Y-103278837D01*
X76073000Y-100505477D01*
X76132986Y-100554706D01*
X76390966Y-100692599D01*
X76670889Y-100777513D01*
X76889050Y-100799000D01*
X77034950Y-100799000D01*
X77253111Y-100777513D01*
X77533034Y-100692599D01*
X77791014Y-100554706D01*
X77927536Y-100442665D01*
X87719000Y-100442665D01*
X87719000Y-100725335D01*
X87774147Y-101002574D01*
X87882320Y-101263727D01*
X88039363Y-101498759D01*
X88239241Y-101698637D01*
X88474273Y-101855680D01*
X88735426Y-101963853D01*
X89012665Y-102019000D01*
X89295335Y-102019000D01*
X89572574Y-101963853D01*
X89833727Y-101855680D01*
X90068759Y-101698637D01*
X90268637Y-101498759D01*
X90424000Y-101266241D01*
X90579363Y-101498759D01*
X90779241Y-101698637D01*
X91014273Y-101855680D01*
X91275426Y-101963853D01*
X91552665Y-102019000D01*
X91835335Y-102019000D01*
X92112574Y-101963853D01*
X92373727Y-101855680D01*
X92608759Y-101698637D01*
X92808637Y-101498759D01*
X92964000Y-101266241D01*
X93119363Y-101498759D01*
X93319241Y-101698637D01*
X93554273Y-101855680D01*
X93815426Y-101963853D01*
X94092665Y-102019000D01*
X94375335Y-102019000D01*
X94652574Y-101963853D01*
X94913727Y-101855680D01*
X95148759Y-101698637D01*
X95347357Y-101500039D01*
X95348188Y-101508482D01*
X95384498Y-101628180D01*
X95443463Y-101738494D01*
X95522815Y-101835185D01*
X95619506Y-101914537D01*
X95729820Y-101973502D01*
X95849518Y-102009812D01*
X95974000Y-102022072D01*
X96488250Y-102019000D01*
X96647000Y-101860250D01*
X96647000Y-100711000D01*
X96901000Y-100711000D01*
X96901000Y-101860250D01*
X97059750Y-102019000D01*
X97574000Y-102022072D01*
X97698482Y-102009812D01*
X97818180Y-101973502D01*
X97928494Y-101914537D01*
X98025185Y-101835185D01*
X98104537Y-101738494D01*
X98163502Y-101628180D01*
X98199812Y-101508482D01*
X98212072Y-101384000D01*
X98211845Y-101346000D01*
X156749815Y-101346000D01*
X156778487Y-101637111D01*
X156863401Y-101917034D01*
X157001294Y-102175014D01*
X157186866Y-102401134D01*
X157216687Y-102425607D01*
X157147820Y-102446498D01*
X157037506Y-102505463D01*
X156940815Y-102584815D01*
X156861463Y-102681506D01*
X156802498Y-102791820D01*
X156766188Y-102911518D01*
X156753928Y-103036000D01*
X156753928Y-104736000D01*
X156766188Y-104860482D01*
X156802498Y-104980180D01*
X156861463Y-105090494D01*
X156940815Y-105187185D01*
X157037506Y-105266537D01*
X157147820Y-105325502D01*
X157267518Y-105361812D01*
X157392000Y-105374072D01*
X159092000Y-105374072D01*
X159216482Y-105361812D01*
X159336180Y-105325502D01*
X159446494Y-105266537D01*
X159543185Y-105187185D01*
X159622537Y-105090494D01*
X159681502Y-104980180D01*
X159717812Y-104860482D01*
X159730072Y-104736000D01*
X159730072Y-103036000D01*
X159717812Y-102911518D01*
X159681502Y-102791820D01*
X159622537Y-102681506D01*
X159543185Y-102584815D01*
X159446494Y-102505463D01*
X159336180Y-102446498D01*
X159267313Y-102425607D01*
X159297134Y-102401134D01*
X159482706Y-102175014D01*
X159620599Y-101917034D01*
X159705513Y-101637111D01*
X159734185Y-101346000D01*
X159720780Y-101209891D01*
X165616000Y-101209891D01*
X165616000Y-101522109D01*
X165676911Y-101828327D01*
X165796391Y-102116779D01*
X165969850Y-102376379D01*
X166190621Y-102597150D01*
X166231332Y-102624352D01*
X166215621Y-102634850D01*
X165994850Y-102855621D01*
X165821391Y-103115221D01*
X165701911Y-103403673D01*
X165641000Y-103709891D01*
X165641000Y-104022109D01*
X165701911Y-104328327D01*
X165821391Y-104616779D01*
X165994850Y-104876379D01*
X166215621Y-105097150D01*
X166328312Y-105172448D01*
X166295853Y-105266248D01*
X167216000Y-106186395D01*
X168136147Y-105266248D01*
X168107444Y-105183302D01*
X168236379Y-105097150D01*
X168457150Y-104876379D01*
X168630609Y-104616779D01*
X168750089Y-104328327D01*
X168811000Y-104022109D01*
X168811000Y-103709891D01*
X168750089Y-103403673D01*
X168630609Y-103115221D01*
X168457150Y-102855621D01*
X168236379Y-102634850D01*
X168195668Y-102607648D01*
X168211379Y-102597150D01*
X168432150Y-102376379D01*
X168605609Y-102116779D01*
X168725089Y-101828327D01*
X168786000Y-101522109D01*
X168786000Y-101209891D01*
X168725089Y-100903673D01*
X168605609Y-100615221D01*
X168432150Y-100355621D01*
X168211379Y-100134850D01*
X168190668Y-100121011D01*
X168226379Y-100097150D01*
X168447150Y-99876379D01*
X168620609Y-99616779D01*
X168740089Y-99328327D01*
X168801000Y-99022109D01*
X168801000Y-98709891D01*
X168740089Y-98403673D01*
X168620609Y-98115221D01*
X168447150Y-97855621D01*
X168226379Y-97634850D01*
X167966779Y-97461391D01*
X167678327Y-97341911D01*
X167372109Y-97281000D01*
X167059891Y-97281000D01*
X166753673Y-97341911D01*
X166465221Y-97461391D01*
X166205621Y-97634850D01*
X165984850Y-97855621D01*
X165811391Y-98115221D01*
X165691911Y-98403673D01*
X165631000Y-98709891D01*
X165631000Y-99022109D01*
X165691911Y-99328327D01*
X165811391Y-99616779D01*
X165984850Y-99876379D01*
X166205621Y-100097150D01*
X166226332Y-100110989D01*
X166190621Y-100134850D01*
X165969850Y-100355621D01*
X165796391Y-100615221D01*
X165676911Y-100903673D01*
X165616000Y-101209891D01*
X159720780Y-101209891D01*
X159705513Y-101054889D01*
X159620599Y-100774966D01*
X159482706Y-100516986D01*
X159297134Y-100290866D01*
X159071014Y-100105294D01*
X158813034Y-99967401D01*
X158533111Y-99882487D01*
X158314950Y-99861000D01*
X158169050Y-99861000D01*
X157950889Y-99882487D01*
X157670966Y-99967401D01*
X157412986Y-100105294D01*
X157186866Y-100290866D01*
X157001294Y-100516986D01*
X156863401Y-100774966D01*
X156778487Y-101054889D01*
X156749815Y-101346000D01*
X98211845Y-101346000D01*
X98209000Y-100869750D01*
X98050250Y-100711000D01*
X96901000Y-100711000D01*
X96647000Y-100711000D01*
X96627000Y-100711000D01*
X96627000Y-100457000D01*
X96647000Y-100457000D01*
X96647000Y-99307750D01*
X96901000Y-99307750D01*
X96901000Y-100457000D01*
X98050250Y-100457000D01*
X98209000Y-100298250D01*
X98212072Y-99784000D01*
X98199812Y-99659518D01*
X98163502Y-99539820D01*
X98104537Y-99429506D01*
X98025185Y-99332815D01*
X97928494Y-99253463D01*
X97818180Y-99194498D01*
X97698482Y-99158188D01*
X97574000Y-99145928D01*
X97059750Y-99149000D01*
X96901000Y-99307750D01*
X96647000Y-99307750D01*
X96488250Y-99149000D01*
X95974000Y-99145928D01*
X95849518Y-99158188D01*
X95729820Y-99194498D01*
X95619506Y-99253463D01*
X95522815Y-99332815D01*
X95443463Y-99429506D01*
X95384498Y-99539820D01*
X95348188Y-99659518D01*
X95347357Y-99667961D01*
X95148759Y-99469363D01*
X94913727Y-99312320D01*
X94652574Y-99204147D01*
X94375335Y-99149000D01*
X94092665Y-99149000D01*
X93815426Y-99204147D01*
X93554273Y-99312320D01*
X93319241Y-99469363D01*
X93119363Y-99669241D01*
X92964000Y-99901759D01*
X92808637Y-99669241D01*
X92608759Y-99469363D01*
X92373727Y-99312320D01*
X92112574Y-99204147D01*
X91835335Y-99149000D01*
X91552665Y-99149000D01*
X91275426Y-99204147D01*
X91014273Y-99312320D01*
X90779241Y-99469363D01*
X90579363Y-99669241D01*
X90424000Y-99901759D01*
X90268637Y-99669241D01*
X90068759Y-99469363D01*
X89833727Y-99312320D01*
X89572574Y-99204147D01*
X89295335Y-99149000D01*
X89012665Y-99149000D01*
X88735426Y-99204147D01*
X88474273Y-99312320D01*
X88239241Y-99469363D01*
X88039363Y-99669241D01*
X87882320Y-99904273D01*
X87774147Y-100165426D01*
X87719000Y-100442665D01*
X77927536Y-100442665D01*
X78017134Y-100369134D01*
X78202706Y-100143014D01*
X78340599Y-99885034D01*
X78425513Y-99605111D01*
X78454185Y-99314000D01*
X78425513Y-99022889D01*
X78340599Y-98742966D01*
X78202706Y-98484986D01*
X78157879Y-98430363D01*
X133893000Y-98430363D01*
X133893000Y-98673637D01*
X133940460Y-98912236D01*
X134033557Y-99136992D01*
X134168713Y-99339267D01*
X134340733Y-99511287D01*
X134543008Y-99646443D01*
X134767764Y-99739540D01*
X135006363Y-99787000D01*
X135249637Y-99787000D01*
X135488236Y-99739540D01*
X135712992Y-99646443D01*
X135915267Y-99511287D01*
X136087287Y-99339267D01*
X136222443Y-99136992D01*
X136257647Y-99052000D01*
X136529928Y-99052000D01*
X136542188Y-99176482D01*
X136578498Y-99296180D01*
X136637463Y-99406494D01*
X136716815Y-99503185D01*
X136813506Y-99582537D01*
X136923820Y-99641502D01*
X137043518Y-99677812D01*
X137168000Y-99690072D01*
X137382250Y-99687000D01*
X137541000Y-99528250D01*
X137541000Y-98679000D01*
X137795000Y-98679000D01*
X137795000Y-99528250D01*
X137953750Y-99687000D01*
X138168000Y-99690072D01*
X138292482Y-99677812D01*
X138412180Y-99641502D01*
X138522494Y-99582537D01*
X138619185Y-99503185D01*
X138698537Y-99406494D01*
X138757502Y-99296180D01*
X138793812Y-99176482D01*
X138806072Y-99052000D01*
X138803000Y-98837750D01*
X138644250Y-98679000D01*
X137795000Y-98679000D01*
X137541000Y-98679000D01*
X136691750Y-98679000D01*
X136533000Y-98837750D01*
X136529928Y-99052000D01*
X136257647Y-99052000D01*
X136315540Y-98912236D01*
X136363000Y-98673637D01*
X136363000Y-98517000D01*
X136519637Y-98517000D01*
X136758236Y-98469540D01*
X136865765Y-98425000D01*
X137541000Y-98425000D01*
X137541000Y-97749765D01*
X137585540Y-97642236D01*
X137598764Y-97575750D01*
X137795000Y-97575750D01*
X137795000Y-98425000D01*
X138644250Y-98425000D01*
X138803000Y-98266250D01*
X138806072Y-98052000D01*
X138793812Y-97927518D01*
X138757502Y-97807820D01*
X138698537Y-97697506D01*
X138619185Y-97600815D01*
X138522494Y-97521463D01*
X138412180Y-97462498D01*
X138292482Y-97426188D01*
X138168000Y-97413928D01*
X137953750Y-97417000D01*
X137795000Y-97575750D01*
X137598764Y-97575750D01*
X137633000Y-97403637D01*
X137633000Y-97160363D01*
X137585540Y-96921764D01*
X137492443Y-96697008D01*
X137357287Y-96494733D01*
X137185267Y-96322713D01*
X136982992Y-96187557D01*
X136758236Y-96094460D01*
X136519637Y-96047000D01*
X136276363Y-96047000D01*
X136037764Y-96094460D01*
X135813008Y-96187557D01*
X135610733Y-96322713D01*
X135438713Y-96494733D01*
X135303557Y-96697008D01*
X135210460Y-96921764D01*
X135163000Y-97160363D01*
X135163000Y-97317000D01*
X135006363Y-97317000D01*
X134767764Y-97364460D01*
X134543008Y-97457557D01*
X134340733Y-97592713D01*
X134168713Y-97764733D01*
X134033557Y-97967008D01*
X133940460Y-98191764D01*
X133893000Y-98430363D01*
X78157879Y-98430363D01*
X78017134Y-98258866D01*
X77987313Y-98234393D01*
X78056180Y-98213502D01*
X78166494Y-98154537D01*
X78263185Y-98075185D01*
X78342537Y-97978494D01*
X78401502Y-97868180D01*
X78437812Y-97748482D01*
X78450072Y-97624000D01*
X78450072Y-96893413D01*
X117568192Y-96893413D01*
X117663956Y-97157814D01*
X117953571Y-97298704D01*
X118265108Y-97380384D01*
X118586595Y-97399718D01*
X118905675Y-97355961D01*
X119210088Y-97250795D01*
X119384044Y-97157814D01*
X119479808Y-96893413D01*
X118524000Y-95937605D01*
X117568192Y-96893413D01*
X78450072Y-96893413D01*
X78450072Y-95924000D01*
X78439888Y-95820595D01*
X116882282Y-95820595D01*
X116926039Y-96139675D01*
X117031205Y-96444088D01*
X117124186Y-96618044D01*
X117388587Y-96713808D01*
X118344395Y-95758000D01*
X118703605Y-95758000D01*
X119659413Y-96713808D01*
X119923814Y-96618044D01*
X120064704Y-96328429D01*
X120146384Y-96016892D01*
X120165718Y-95695405D01*
X120121961Y-95376325D01*
X120016795Y-95071912D01*
X119923814Y-94897956D01*
X119659413Y-94802192D01*
X118703605Y-95758000D01*
X118344395Y-95758000D01*
X117388587Y-94802192D01*
X117124186Y-94897956D01*
X116983296Y-95187571D01*
X116901616Y-95499108D01*
X116882282Y-95820595D01*
X78439888Y-95820595D01*
X78437812Y-95799518D01*
X78401502Y-95679820D01*
X78342537Y-95569506D01*
X78263185Y-95472815D01*
X78166494Y-95393463D01*
X78056180Y-95334498D01*
X77936482Y-95298188D01*
X77812000Y-95285928D01*
X76112000Y-95285928D01*
X76073000Y-95289769D01*
X76073000Y-94622587D01*
X117568192Y-94622587D01*
X118524000Y-95578395D01*
X119344395Y-94758000D01*
X126885928Y-94758000D01*
X126885928Y-96758000D01*
X126898188Y-96882482D01*
X126934498Y-97002180D01*
X126993463Y-97112494D01*
X127072815Y-97209185D01*
X127169506Y-97288537D01*
X127279820Y-97347502D01*
X127399518Y-97383812D01*
X127524000Y-97396072D01*
X129524000Y-97396072D01*
X129648482Y-97383812D01*
X129768180Y-97347502D01*
X129878494Y-97288537D01*
X129975185Y-97209185D01*
X130054537Y-97112494D01*
X130113502Y-97002180D01*
X130149812Y-96882482D01*
X130162072Y-96758000D01*
X130162072Y-95820947D01*
X167641000Y-95820947D01*
X167641000Y-96271053D01*
X167728811Y-96712510D01*
X167901059Y-97128353D01*
X168151125Y-97502603D01*
X168469397Y-97820875D01*
X168843647Y-98070941D01*
X169259490Y-98243189D01*
X169700947Y-98331000D01*
X170151053Y-98331000D01*
X170592510Y-98243189D01*
X171008353Y-98070941D01*
X171382603Y-97820875D01*
X171700875Y-97502603D01*
X171950941Y-97128353D01*
X172123189Y-96712510D01*
X172211000Y-96271053D01*
X172211000Y-95820947D01*
X172123189Y-95379490D01*
X171950941Y-94963647D01*
X171700875Y-94589397D01*
X171382603Y-94271125D01*
X171008353Y-94021059D01*
X170592510Y-93848811D01*
X170151053Y-93761000D01*
X169700947Y-93761000D01*
X169259490Y-93848811D01*
X168843647Y-94021059D01*
X168469397Y-94271125D01*
X168151125Y-94589397D01*
X167901059Y-94963647D01*
X167728811Y-95379490D01*
X167641000Y-95820947D01*
X130162072Y-95820947D01*
X130162072Y-94758000D01*
X130149812Y-94633518D01*
X130113502Y-94513820D01*
X130054537Y-94403506D01*
X129975185Y-94306815D01*
X129878494Y-94227463D01*
X129768180Y-94168498D01*
X129648482Y-94132188D01*
X129524000Y-94119928D01*
X127524000Y-94119928D01*
X127399518Y-94132188D01*
X127279820Y-94168498D01*
X127169506Y-94227463D01*
X127072815Y-94306815D01*
X126993463Y-94403506D01*
X126934498Y-94513820D01*
X126898188Y-94633518D01*
X126885928Y-94758000D01*
X119344395Y-94758000D01*
X119479808Y-94622587D01*
X119384044Y-94358186D01*
X119094429Y-94217296D01*
X118782892Y-94135616D01*
X118461405Y-94116282D01*
X118142325Y-94160039D01*
X117837912Y-94265205D01*
X117663956Y-94358186D01*
X117568192Y-94622587D01*
X76073000Y-94622587D01*
X76073000Y-88919098D01*
X76609000Y-88919098D01*
X76609000Y-89388902D01*
X76700654Y-89849679D01*
X76880440Y-90283721D01*
X77141450Y-90674349D01*
X77473651Y-91006550D01*
X77864279Y-91267560D01*
X78298321Y-91447346D01*
X78759098Y-91539000D01*
X79228902Y-91539000D01*
X79689679Y-91447346D01*
X80123721Y-91267560D01*
X80514349Y-91006550D01*
X80846550Y-90674349D01*
X81107560Y-90283721D01*
X81287346Y-89849679D01*
X81379000Y-89388902D01*
X81379000Y-88919098D01*
X179479000Y-88919098D01*
X179479000Y-89388902D01*
X179570654Y-89849679D01*
X179750440Y-90283721D01*
X180011450Y-90674349D01*
X180343651Y-91006550D01*
X180734279Y-91267560D01*
X181168321Y-91447346D01*
X181629098Y-91539000D01*
X182098902Y-91539000D01*
X182559679Y-91447346D01*
X182993721Y-91267560D01*
X183384349Y-91006550D01*
X183716550Y-90674349D01*
X183977560Y-90283721D01*
X184157346Y-89849679D01*
X184249000Y-89388902D01*
X184249000Y-88919098D01*
X184157346Y-88458321D01*
X183977560Y-88024279D01*
X183716550Y-87633651D01*
X183384349Y-87301450D01*
X182993721Y-87040440D01*
X182559679Y-86860654D01*
X182098902Y-86769000D01*
X181629098Y-86769000D01*
X181168321Y-86860654D01*
X180734279Y-87040440D01*
X180343651Y-87301450D01*
X180011450Y-87633651D01*
X179750440Y-88024279D01*
X179570654Y-88458321D01*
X179479000Y-88919098D01*
X81379000Y-88919098D01*
X81287346Y-88458321D01*
X81107560Y-88024279D01*
X80846550Y-87633651D01*
X80514349Y-87301450D01*
X80123721Y-87040440D01*
X79689679Y-86860654D01*
X79228902Y-86769000D01*
X78759098Y-86769000D01*
X78298321Y-86860654D01*
X77864279Y-87040440D01*
X77473651Y-87301450D01*
X77141450Y-87633651D01*
X76880440Y-88024279D01*
X76700654Y-88458321D01*
X76609000Y-88919098D01*
X76073000Y-88919098D01*
X76073000Y-85764000D01*
X85633928Y-85764000D01*
X85633928Y-87464000D01*
X85646188Y-87588482D01*
X85682498Y-87708180D01*
X85741463Y-87818494D01*
X85820815Y-87915185D01*
X85917506Y-87994537D01*
X86027820Y-88053502D01*
X86147518Y-88089812D01*
X86272000Y-88102072D01*
X87972000Y-88102072D01*
X88096482Y-88089812D01*
X88216180Y-88053502D01*
X88326494Y-87994537D01*
X88423185Y-87915185D01*
X88502537Y-87818494D01*
X88561502Y-87708180D01*
X88582393Y-87639313D01*
X88606866Y-87669134D01*
X88832986Y-87854706D01*
X89090966Y-87992599D01*
X89370889Y-88077513D01*
X89589050Y-88099000D01*
X89734950Y-88099000D01*
X89953111Y-88077513D01*
X90233034Y-87992599D01*
X90491014Y-87854706D01*
X90717134Y-87669134D01*
X90902706Y-87443014D01*
X91027254Y-87210000D01*
X119415928Y-87210000D01*
X119428188Y-87334482D01*
X119464498Y-87454180D01*
X119523463Y-87564494D01*
X119602815Y-87661185D01*
X119699506Y-87740537D01*
X119809820Y-87799502D01*
X119929518Y-87835812D01*
X120054000Y-87848072D01*
X120618250Y-87845000D01*
X120777000Y-87686250D01*
X120777000Y-86487000D01*
X121031000Y-86487000D01*
X121031000Y-87686250D01*
X121189750Y-87845000D01*
X121754000Y-87848072D01*
X121878482Y-87835812D01*
X121998180Y-87799502D01*
X122108494Y-87740537D01*
X122205185Y-87661185D01*
X122284537Y-87564494D01*
X122343502Y-87454180D01*
X122367966Y-87373534D01*
X122443731Y-87457588D01*
X122677080Y-87631641D01*
X122939901Y-87756825D01*
X123087110Y-87801476D01*
X123317000Y-87680155D01*
X123317000Y-86487000D01*
X123571000Y-86487000D01*
X123571000Y-87680155D01*
X123800890Y-87801476D01*
X123948099Y-87756825D01*
X124210920Y-87631641D01*
X124444269Y-87457588D01*
X124639178Y-87241355D01*
X124788157Y-86991252D01*
X124885481Y-86716891D01*
X124764814Y-86487000D01*
X123571000Y-86487000D01*
X123317000Y-86487000D01*
X121031000Y-86487000D01*
X120777000Y-86487000D01*
X119577750Y-86487000D01*
X119419000Y-86645750D01*
X119415928Y-87210000D01*
X91027254Y-87210000D01*
X91040599Y-87185034D01*
X91125513Y-86905111D01*
X91154185Y-86614000D01*
X91125513Y-86322889D01*
X91040599Y-86042966D01*
X90902706Y-85784986D01*
X90717134Y-85558866D01*
X90491014Y-85373294D01*
X90233034Y-85235401D01*
X89953111Y-85150487D01*
X89734950Y-85129000D01*
X89589050Y-85129000D01*
X89370889Y-85150487D01*
X89090966Y-85235401D01*
X88832986Y-85373294D01*
X88606866Y-85558866D01*
X88582393Y-85588687D01*
X88561502Y-85519820D01*
X88502537Y-85409506D01*
X88423185Y-85312815D01*
X88326494Y-85233463D01*
X88216180Y-85174498D01*
X88096482Y-85138188D01*
X87972000Y-85125928D01*
X86272000Y-85125928D01*
X86147518Y-85138188D01*
X86027820Y-85174498D01*
X85917506Y-85233463D01*
X85820815Y-85312815D01*
X85741463Y-85409506D01*
X85682498Y-85519820D01*
X85646188Y-85639518D01*
X85633928Y-85764000D01*
X76073000Y-85764000D01*
X76073000Y-84963000D01*
X119730306Y-84963000D01*
X119699506Y-84979463D01*
X119699506Y-84979463D01*
G37*
X119699506Y-84979463D02*
X119602815Y-85058815D01*
X119523463Y-85155506D01*
X119464498Y-85265820D01*
X119428188Y-85385518D01*
X119415928Y-85510000D01*
X119419000Y-86074250D01*
X119577750Y-86233000D01*
X120777000Y-86233000D01*
X120777000Y-86213000D01*
X121031000Y-86213000D01*
X121031000Y-86233000D01*
X123317000Y-86233000D01*
X123317000Y-86213000D01*
X123571000Y-86213000D01*
X123571000Y-86233000D01*
X124764814Y-86233000D01*
X124885481Y-86003109D01*
X124788157Y-85728748D01*
X124639178Y-85478645D01*
X124444269Y-85262412D01*
X124210920Y-85088359D01*
X123948099Y-84963175D01*
X123947522Y-84963000D01*
X185277603Y-84963000D01*
X185442625Y-85050744D01*
X185547000Y-85135870D01*
X185547000Y-119842627D01*
X185453514Y-119919965D01*
X185277751Y-120015000D01*
X150797477Y-120015000D01*
X150846706Y-119955014D01*
X150984599Y-119697034D01*
X151069513Y-119417111D01*
X151098185Y-119126000D01*
X151069513Y-118834889D01*
X150984599Y-118554966D01*
X150846706Y-118296986D01*
X150661134Y-118070866D01*
X150435014Y-117885294D01*
X150177034Y-117747401D01*
X149897111Y-117662487D01*
X149678950Y-117641000D01*
X149533050Y-117641000D01*
X149314889Y-117662487D01*
X149034966Y-117747401D01*
X148776986Y-117885294D01*
X148550866Y-118070866D01*
X148526393Y-118100687D01*
X148505502Y-118031820D01*
X148446537Y-117921506D01*
X148367185Y-117824815D01*
X148270494Y-117745463D01*
X148160180Y-117686498D01*
X148040482Y-117650188D01*
X147916000Y-117637928D01*
X146216000Y-117637928D01*
X146091518Y-117650188D01*
X145971820Y-117686498D01*
X145861506Y-117745463D01*
X145764815Y-117824815D01*
X145685463Y-117921506D01*
X145626498Y-118031820D01*
X145590188Y-118151518D01*
X145577928Y-118276000D01*
X145577928Y-119976000D01*
X145581769Y-120015000D01*
X122388231Y-120015000D01*
X122392072Y-119976000D01*
X122392072Y-118276000D01*
X122379812Y-118151518D01*
X122343502Y-118031820D01*
X122284537Y-117921506D01*
X122205185Y-117824815D01*
X122108494Y-117745463D01*
X121998180Y-117686498D01*
X121878482Y-117650188D01*
X121754000Y-117637928D01*
X120054000Y-117637928D01*
X119929518Y-117650188D01*
X119809820Y-117686498D01*
X119699506Y-117745463D01*
X119602815Y-117824815D01*
X119523463Y-117921506D01*
X119464498Y-118031820D01*
X119443607Y-118100687D01*
X119419134Y-118070866D01*
X119193014Y-117885294D01*
X118935034Y-117747401D01*
X118655111Y-117662487D01*
X118436950Y-117641000D01*
X118291050Y-117641000D01*
X118072889Y-117662487D01*
X117792966Y-117747401D01*
X117534986Y-117885294D01*
X117308866Y-118070866D01*
X117123294Y-118296986D01*
X116985401Y-118554966D01*
X116900487Y-118834889D01*
X116871815Y-119126000D01*
X116900487Y-119417111D01*
X116985401Y-119697034D01*
X117123294Y-119955014D01*
X117172523Y-120015000D01*
X76073000Y-120015000D01*
X76073000Y-115589098D01*
X76609000Y-115589098D01*
X76609000Y-116058902D01*
X76700654Y-116519679D01*
X76880440Y-116953721D01*
X77141450Y-117344349D01*
X77473651Y-117676550D01*
X77864279Y-117937560D01*
X78298321Y-118117346D01*
X78759098Y-118209000D01*
X79228902Y-118209000D01*
X79689679Y-118117346D01*
X80123721Y-117937560D01*
X80514349Y-117676550D01*
X80846550Y-117344349D01*
X81107560Y-116953721D01*
X81287346Y-116519679D01*
X81379000Y-116058902D01*
X81379000Y-115589098D01*
X179479000Y-115589098D01*
X179479000Y-116058902D01*
X179570654Y-116519679D01*
X179750440Y-116953721D01*
X180011450Y-117344349D01*
X180343651Y-117676550D01*
X180734279Y-117937560D01*
X181168321Y-118117346D01*
X181629098Y-118209000D01*
X182098902Y-118209000D01*
X182559679Y-118117346D01*
X182993721Y-117937560D01*
X183384349Y-117676550D01*
X183716550Y-117344349D01*
X183977560Y-116953721D01*
X184157346Y-116519679D01*
X184249000Y-116058902D01*
X184249000Y-115589098D01*
X184157346Y-115128321D01*
X183977560Y-114694279D01*
X183716550Y-114303651D01*
X183384349Y-113971450D01*
X182993721Y-113710440D01*
X182559679Y-113530654D01*
X182098902Y-113439000D01*
X181629098Y-113439000D01*
X181168321Y-113530654D01*
X180734279Y-113710440D01*
X180343651Y-113971450D01*
X180011450Y-114303651D01*
X179750440Y-114694279D01*
X179570654Y-115128321D01*
X179479000Y-115589098D01*
X81379000Y-115589098D01*
X81287346Y-115128321D01*
X81107560Y-114694279D01*
X80846550Y-114303651D01*
X80514349Y-113971450D01*
X80123721Y-113710440D01*
X79689679Y-113530654D01*
X79228902Y-113439000D01*
X78759098Y-113439000D01*
X78298321Y-113530654D01*
X77864279Y-113710440D01*
X77473651Y-113971450D01*
X77141450Y-114303651D01*
X76880440Y-114694279D01*
X76700654Y-115128321D01*
X76609000Y-115589098D01*
X76073000Y-115589098D01*
X76073000Y-110872944D01*
X76108474Y-110880000D01*
X76431526Y-110880000D01*
X76748370Y-110816975D01*
X77046831Y-110693349D01*
X77315439Y-110513871D01*
X77543871Y-110285439D01*
X77723349Y-110016831D01*
X77846975Y-109718370D01*
X77910000Y-109401526D01*
X77910000Y-109078474D01*
X77846975Y-108761630D01*
X77723349Y-108463169D01*
X77543871Y-108194561D01*
X77411975Y-108062665D01*
X87719000Y-108062665D01*
X87719000Y-108345335D01*
X87774147Y-108622574D01*
X87882320Y-108883727D01*
X88039363Y-109118759D01*
X88239241Y-109318637D01*
X88474273Y-109475680D01*
X88735426Y-109583853D01*
X89012665Y-109639000D01*
X89295335Y-109639000D01*
X89572574Y-109583853D01*
X89833727Y-109475680D01*
X90068759Y-109318637D01*
X90268637Y-109118759D01*
X90424000Y-108886241D01*
X90579363Y-109118759D01*
X90779241Y-109318637D01*
X91014273Y-109475680D01*
X91275426Y-109583853D01*
X91552665Y-109639000D01*
X91835335Y-109639000D01*
X92112574Y-109583853D01*
X92373727Y-109475680D01*
X92608759Y-109318637D01*
X92808637Y-109118759D01*
X92964000Y-108886241D01*
X93119363Y-109118759D01*
X93319241Y-109318637D01*
X93554273Y-109475680D01*
X93815426Y-109583853D01*
X94092665Y-109639000D01*
X94375335Y-109639000D01*
X94652574Y-109583853D01*
X94913727Y-109475680D01*
X95148759Y-109318637D01*
X95348637Y-109118759D01*
X95504000Y-108886241D01*
X95659363Y-109118759D01*
X95859241Y-109318637D01*
X96094273Y-109475680D01*
X96355426Y-109583853D01*
X96632665Y-109639000D01*
X96915335Y-109639000D01*
X97192574Y-109583853D01*
X97453727Y-109475680D01*
X97688759Y-109318637D01*
X97888637Y-109118759D01*
X97994083Y-108960947D01*
X167641000Y-108960947D01*
X167641000Y-109411053D01*
X167728811Y-109852510D01*
X167901059Y-110268353D01*
X168151125Y-110642603D01*
X168469397Y-110960875D01*
X168843647Y-111210941D01*
X169259490Y-111383189D01*
X169700947Y-111471000D01*
X170151053Y-111471000D01*
X170592510Y-111383189D01*
X171008353Y-111210941D01*
X171382603Y-110960875D01*
X171700875Y-110642603D01*
X171950941Y-110268353D01*
X172123189Y-109852510D01*
X172211000Y-109411053D01*
X172211000Y-108960947D01*
X172123189Y-108519490D01*
X171950941Y-108103647D01*
X171700875Y-107729397D01*
X171382603Y-107411125D01*
X171008353Y-107161059D01*
X170592510Y-106988811D01*
X170151053Y-106901000D01*
X169700947Y-106901000D01*
X169259490Y-106988811D01*
X168843647Y-107161059D01*
X168469397Y-107411125D01*
X168151125Y-107729397D01*
X167901059Y-108103647D01*
X167728811Y-108519490D01*
X167641000Y-108960947D01*
X97994083Y-108960947D01*
X98045680Y-108883727D01*
X98153853Y-108622574D01*
X98209000Y-108345335D01*
X98209000Y-108062665D01*
X98153853Y-107785426D01*
X98045680Y-107524273D01*
X98006578Y-107465752D01*
X166295853Y-107465752D01*
X166385579Y-107725042D01*
X166666671Y-107860935D01*
X166968873Y-107939379D01*
X167280573Y-107957359D01*
X167589791Y-107914184D01*
X167884644Y-107811513D01*
X168046421Y-107725042D01*
X168136147Y-107465752D01*
X167216000Y-106545605D01*
X166295853Y-107465752D01*
X98006578Y-107465752D01*
X97888637Y-107289241D01*
X97688759Y-107089363D01*
X97453727Y-106932320D01*
X97192574Y-106824147D01*
X96915335Y-106769000D01*
X96632665Y-106769000D01*
X96355426Y-106824147D01*
X96094273Y-106932320D01*
X95859241Y-107089363D01*
X95659363Y-107289241D01*
X95504000Y-107521759D01*
X95348637Y-107289241D01*
X95148759Y-107089363D01*
X94913727Y-106932320D01*
X94652574Y-106824147D01*
X94375335Y-106769000D01*
X94092665Y-106769000D01*
X93815426Y-106824147D01*
X93554273Y-106932320D01*
X93319241Y-107089363D01*
X93119363Y-107289241D01*
X92964000Y-107521759D01*
X92808637Y-107289241D01*
X92608759Y-107089363D01*
X92373727Y-106932320D01*
X92112574Y-106824147D01*
X91835335Y-106769000D01*
X91552665Y-106769000D01*
X91275426Y-106824147D01*
X91014273Y-106932320D01*
X90779241Y-107089363D01*
X90579363Y-107289241D01*
X90424000Y-107521759D01*
X90268637Y-107289241D01*
X90068759Y-107089363D01*
X89833727Y-106932320D01*
X89572574Y-106824147D01*
X89295335Y-106769000D01*
X89012665Y-106769000D01*
X88735426Y-106824147D01*
X88474273Y-106932320D01*
X88239241Y-107089363D01*
X88039363Y-107289241D01*
X87882320Y-107524273D01*
X87774147Y-107785426D01*
X87719000Y-108062665D01*
X77411975Y-108062665D01*
X77315439Y-107966129D01*
X77046831Y-107786651D01*
X76748370Y-107663025D01*
X76431526Y-107600000D01*
X76108474Y-107600000D01*
X76073000Y-107607056D01*
X76073000Y-106430573D01*
X165624641Y-106430573D01*
X165667816Y-106739791D01*
X165770487Y-107034644D01*
X165856958Y-107196421D01*
X166116248Y-107286147D01*
X167036395Y-106366000D01*
X167395605Y-106366000D01*
X168315752Y-107286147D01*
X168575042Y-107196421D01*
X168710935Y-106915329D01*
X168789379Y-106613127D01*
X168807359Y-106301427D01*
X168764184Y-105992209D01*
X168661513Y-105697356D01*
X168575042Y-105535579D01*
X168315752Y-105445853D01*
X167395605Y-106366000D01*
X167036395Y-106366000D01*
X166116248Y-105445853D01*
X165856958Y-105535579D01*
X165721065Y-105816671D01*
X165642621Y-106118873D01*
X165624641Y-106430573D01*
X76073000Y-106430573D01*
X76073000Y-105001163D01*
X76196129Y-105185439D01*
X76424561Y-105413871D01*
X76693169Y-105593349D01*
X76991630Y-105716975D01*
X77308474Y-105780000D01*
X77631526Y-105780000D01*
X77948370Y-105716975D01*
X78246831Y-105593349D01*
X78515439Y-105413871D01*
X78743871Y-105185439D01*
X78923349Y-104916831D01*
X79046975Y-104618370D01*
X79110000Y-104301526D01*
X79110000Y-103978967D01*
X100727000Y-103978967D01*
X100727000Y-104301033D01*
X100789832Y-104616912D01*
X100913082Y-104914463D01*
X101092013Y-105182252D01*
X101319748Y-105409987D01*
X101587537Y-105588918D01*
X101885088Y-105712168D01*
X102200967Y-105775000D01*
X102523033Y-105775000D01*
X102838912Y-105712168D01*
X103136463Y-105588918D01*
X103404252Y-105409987D01*
X103631987Y-105182252D01*
X103810918Y-104914463D01*
X103934168Y-104616912D01*
X103997000Y-104301033D01*
X103997000Y-104140000D01*
X108339089Y-104140000D01*
X108370657Y-104460516D01*
X108464148Y-104768715D01*
X108615969Y-105052752D01*
X108820286Y-105301714D01*
X109069248Y-105506031D01*
X109353285Y-105657852D01*
X109661484Y-105751343D01*
X109901678Y-105775000D01*
X110062322Y-105775000D01*
X110302516Y-105751343D01*
X110610715Y-105657852D01*
X110894752Y-105506031D01*
X111143714Y-105301714D01*
X111348031Y-105052752D01*
X111499852Y-104768715D01*
X111593343Y-104460516D01*
X111624911Y-104140000D01*
X111593343Y-103819484D01*
X111499852Y-103511285D01*
X111348031Y-103227248D01*
X111143714Y-102978286D01*
X110894752Y-102773969D01*
X110610715Y-102622148D01*
X110302516Y-102528657D01*
X110062322Y-102505000D01*
X109901678Y-102505000D01*
X109661484Y-102528657D01*
X109353285Y-102622148D01*
X109069248Y-102773969D01*
X108820286Y-102978286D01*
X108615969Y-103227248D01*
X108464148Y-103511285D01*
X108370657Y-103819484D01*
X108339089Y-104140000D01*
X103997000Y-104140000D01*
X103997000Y-103978967D01*
X103934168Y-103663088D01*
X103810918Y-103365537D01*
X103631987Y-103097748D01*
X103404252Y-102870013D01*
X103136463Y-102691082D01*
X102838912Y-102567832D01*
X102523033Y-102505000D01*
X102200967Y-102505000D01*
X101885088Y-102567832D01*
X101587537Y-102691082D01*
X101319748Y-102870013D01*
X101092013Y-103097748D01*
X100913082Y-103365537D01*
X100789832Y-103663088D01*
X100727000Y-103978967D01*
X79110000Y-103978967D01*
X79110000Y-103978474D01*
X79046975Y-103661630D01*
X78923349Y-103363169D01*
X78743871Y-103094561D01*
X78515439Y-102866129D01*
X78246831Y-102686651D01*
X77948370Y-102563025D01*
X77631526Y-102500000D01*
X77308474Y-102500000D01*
X76991630Y-102563025D01*
X76693169Y-102686651D01*
X76424561Y-102866129D01*
X76196129Y-103094561D01*
X76073000Y-103278837D01*
X76073000Y-100505477D01*
X76132986Y-100554706D01*
X76390966Y-100692599D01*
X76670889Y-100777513D01*
X76889050Y-100799000D01*
X77034950Y-100799000D01*
X77253111Y-100777513D01*
X77533034Y-100692599D01*
X77791014Y-100554706D01*
X77927536Y-100442665D01*
X87719000Y-100442665D01*
X87719000Y-100725335D01*
X87774147Y-101002574D01*
X87882320Y-101263727D01*
X88039363Y-101498759D01*
X88239241Y-101698637D01*
X88474273Y-101855680D01*
X88735426Y-101963853D01*
X89012665Y-102019000D01*
X89295335Y-102019000D01*
X89572574Y-101963853D01*
X89833727Y-101855680D01*
X90068759Y-101698637D01*
X90268637Y-101498759D01*
X90424000Y-101266241D01*
X90579363Y-101498759D01*
X90779241Y-101698637D01*
X91014273Y-101855680D01*
X91275426Y-101963853D01*
X91552665Y-102019000D01*
X91835335Y-102019000D01*
X92112574Y-101963853D01*
X92373727Y-101855680D01*
X92608759Y-101698637D01*
X92808637Y-101498759D01*
X92964000Y-101266241D01*
X93119363Y-101498759D01*
X93319241Y-101698637D01*
X93554273Y-101855680D01*
X93815426Y-101963853D01*
X94092665Y-102019000D01*
X94375335Y-102019000D01*
X94652574Y-101963853D01*
X94913727Y-101855680D01*
X95148759Y-101698637D01*
X95347357Y-101500039D01*
X95348188Y-101508482D01*
X95384498Y-101628180D01*
X95443463Y-101738494D01*
X95522815Y-101835185D01*
X95619506Y-101914537D01*
X95729820Y-101973502D01*
X95849518Y-102009812D01*
X95974000Y-102022072D01*
X96488250Y-102019000D01*
X96647000Y-101860250D01*
X96647000Y-100711000D01*
X96901000Y-100711000D01*
X96901000Y-101860250D01*
X97059750Y-102019000D01*
X97574000Y-102022072D01*
X97698482Y-102009812D01*
X97818180Y-101973502D01*
X97928494Y-101914537D01*
X98025185Y-101835185D01*
X98104537Y-101738494D01*
X98163502Y-101628180D01*
X98199812Y-101508482D01*
X98212072Y-101384000D01*
X98211845Y-101346000D01*
X156749815Y-101346000D01*
X156778487Y-101637111D01*
X156863401Y-101917034D01*
X157001294Y-102175014D01*
X157186866Y-102401134D01*
X157216687Y-102425607D01*
X157147820Y-102446498D01*
X157037506Y-102505463D01*
X156940815Y-102584815D01*
X156861463Y-102681506D01*
X156802498Y-102791820D01*
X156766188Y-102911518D01*
X156753928Y-103036000D01*
X156753928Y-104736000D01*
X156766188Y-104860482D01*
X156802498Y-104980180D01*
X156861463Y-105090494D01*
X156940815Y-105187185D01*
X157037506Y-105266537D01*
X157147820Y-105325502D01*
X157267518Y-105361812D01*
X157392000Y-105374072D01*
X159092000Y-105374072D01*
X159216482Y-105361812D01*
X159336180Y-105325502D01*
X159446494Y-105266537D01*
X159543185Y-105187185D01*
X159622537Y-105090494D01*
X159681502Y-104980180D01*
X159717812Y-104860482D01*
X159730072Y-104736000D01*
X159730072Y-103036000D01*
X159717812Y-102911518D01*
X159681502Y-102791820D01*
X159622537Y-102681506D01*
X159543185Y-102584815D01*
X159446494Y-102505463D01*
X159336180Y-102446498D01*
X159267313Y-102425607D01*
X159297134Y-102401134D01*
X159482706Y-102175014D01*
X159620599Y-101917034D01*
X159705513Y-101637111D01*
X159734185Y-101346000D01*
X159720780Y-101209891D01*
X165616000Y-101209891D01*
X165616000Y-101522109D01*
X165676911Y-101828327D01*
X165796391Y-102116779D01*
X165969850Y-102376379D01*
X166190621Y-102597150D01*
X166231332Y-102624352D01*
X166215621Y-102634850D01*
X165994850Y-102855621D01*
X165821391Y-103115221D01*
X165701911Y-103403673D01*
X165641000Y-103709891D01*
X165641000Y-104022109D01*
X165701911Y-104328327D01*
X165821391Y-104616779D01*
X165994850Y-104876379D01*
X166215621Y-105097150D01*
X166328312Y-105172448D01*
X166295853Y-105266248D01*
X167216000Y-106186395D01*
X168136147Y-105266248D01*
X168107444Y-105183302D01*
X168236379Y-105097150D01*
X168457150Y-104876379D01*
X168630609Y-104616779D01*
X168750089Y-104328327D01*
X168811000Y-104022109D01*
X168811000Y-103709891D01*
X168750089Y-103403673D01*
X168630609Y-103115221D01*
X168457150Y-102855621D01*
X168236379Y-102634850D01*
X168195668Y-102607648D01*
X168211379Y-102597150D01*
X168432150Y-102376379D01*
X168605609Y-102116779D01*
X168725089Y-101828327D01*
X168786000Y-101522109D01*
X168786000Y-101209891D01*
X168725089Y-100903673D01*
X168605609Y-100615221D01*
X168432150Y-100355621D01*
X168211379Y-100134850D01*
X168190668Y-100121011D01*
X168226379Y-100097150D01*
X168447150Y-99876379D01*
X168620609Y-99616779D01*
X168740089Y-99328327D01*
X168801000Y-99022109D01*
X168801000Y-98709891D01*
X168740089Y-98403673D01*
X168620609Y-98115221D01*
X168447150Y-97855621D01*
X168226379Y-97634850D01*
X167966779Y-97461391D01*
X167678327Y-97341911D01*
X167372109Y-97281000D01*
X167059891Y-97281000D01*
X166753673Y-97341911D01*
X166465221Y-97461391D01*
X166205621Y-97634850D01*
X165984850Y-97855621D01*
X165811391Y-98115221D01*
X165691911Y-98403673D01*
X165631000Y-98709891D01*
X165631000Y-99022109D01*
X165691911Y-99328327D01*
X165811391Y-99616779D01*
X165984850Y-99876379D01*
X166205621Y-100097150D01*
X166226332Y-100110989D01*
X166190621Y-100134850D01*
X165969850Y-100355621D01*
X165796391Y-100615221D01*
X165676911Y-100903673D01*
X165616000Y-101209891D01*
X159720780Y-101209891D01*
X159705513Y-101054889D01*
X159620599Y-100774966D01*
X159482706Y-100516986D01*
X159297134Y-100290866D01*
X159071014Y-100105294D01*
X158813034Y-99967401D01*
X158533111Y-99882487D01*
X158314950Y-99861000D01*
X158169050Y-99861000D01*
X157950889Y-99882487D01*
X157670966Y-99967401D01*
X157412986Y-100105294D01*
X157186866Y-100290866D01*
X157001294Y-100516986D01*
X156863401Y-100774966D01*
X156778487Y-101054889D01*
X156749815Y-101346000D01*
X98211845Y-101346000D01*
X98209000Y-100869750D01*
X98050250Y-100711000D01*
X96901000Y-100711000D01*
X96647000Y-100711000D01*
X96627000Y-100711000D01*
X96627000Y-100457000D01*
X96647000Y-100457000D01*
X96647000Y-99307750D01*
X96901000Y-99307750D01*
X96901000Y-100457000D01*
X98050250Y-100457000D01*
X98209000Y-100298250D01*
X98212072Y-99784000D01*
X98199812Y-99659518D01*
X98163502Y-99539820D01*
X98104537Y-99429506D01*
X98025185Y-99332815D01*
X97928494Y-99253463D01*
X97818180Y-99194498D01*
X97698482Y-99158188D01*
X97574000Y-99145928D01*
X97059750Y-99149000D01*
X96901000Y-99307750D01*
X96647000Y-99307750D01*
X96488250Y-99149000D01*
X95974000Y-99145928D01*
X95849518Y-99158188D01*
X95729820Y-99194498D01*
X95619506Y-99253463D01*
X95522815Y-99332815D01*
X95443463Y-99429506D01*
X95384498Y-99539820D01*
X95348188Y-99659518D01*
X95347357Y-99667961D01*
X95148759Y-99469363D01*
X94913727Y-99312320D01*
X94652574Y-99204147D01*
X94375335Y-99149000D01*
X94092665Y-99149000D01*
X93815426Y-99204147D01*
X93554273Y-99312320D01*
X93319241Y-99469363D01*
X93119363Y-99669241D01*
X92964000Y-99901759D01*
X92808637Y-99669241D01*
X92608759Y-99469363D01*
X92373727Y-99312320D01*
X92112574Y-99204147D01*
X91835335Y-99149000D01*
X91552665Y-99149000D01*
X91275426Y-99204147D01*
X91014273Y-99312320D01*
X90779241Y-99469363D01*
X90579363Y-99669241D01*
X90424000Y-99901759D01*
X90268637Y-99669241D01*
X90068759Y-99469363D01*
X89833727Y-99312320D01*
X89572574Y-99204147D01*
X89295335Y-99149000D01*
X89012665Y-99149000D01*
X88735426Y-99204147D01*
X88474273Y-99312320D01*
X88239241Y-99469363D01*
X88039363Y-99669241D01*
X87882320Y-99904273D01*
X87774147Y-100165426D01*
X87719000Y-100442665D01*
X77927536Y-100442665D01*
X78017134Y-100369134D01*
X78202706Y-100143014D01*
X78340599Y-99885034D01*
X78425513Y-99605111D01*
X78454185Y-99314000D01*
X78425513Y-99022889D01*
X78340599Y-98742966D01*
X78202706Y-98484986D01*
X78157879Y-98430363D01*
X133893000Y-98430363D01*
X133893000Y-98673637D01*
X133940460Y-98912236D01*
X134033557Y-99136992D01*
X134168713Y-99339267D01*
X134340733Y-99511287D01*
X134543008Y-99646443D01*
X134767764Y-99739540D01*
X135006363Y-99787000D01*
X135249637Y-99787000D01*
X135488236Y-99739540D01*
X135712992Y-99646443D01*
X135915267Y-99511287D01*
X136087287Y-99339267D01*
X136222443Y-99136992D01*
X136257647Y-99052000D01*
X136529928Y-99052000D01*
X136542188Y-99176482D01*
X136578498Y-99296180D01*
X136637463Y-99406494D01*
X136716815Y-99503185D01*
X136813506Y-99582537D01*
X136923820Y-99641502D01*
X137043518Y-99677812D01*
X137168000Y-99690072D01*
X137382250Y-99687000D01*
X137541000Y-99528250D01*
X137541000Y-98679000D01*
X137795000Y-98679000D01*
X137795000Y-99528250D01*
X137953750Y-99687000D01*
X138168000Y-99690072D01*
X138292482Y-99677812D01*
X138412180Y-99641502D01*
X138522494Y-99582537D01*
X138619185Y-99503185D01*
X138698537Y-99406494D01*
X138757502Y-99296180D01*
X138793812Y-99176482D01*
X138806072Y-99052000D01*
X138803000Y-98837750D01*
X138644250Y-98679000D01*
X137795000Y-98679000D01*
X137541000Y-98679000D01*
X136691750Y-98679000D01*
X136533000Y-98837750D01*
X136529928Y-99052000D01*
X136257647Y-99052000D01*
X136315540Y-98912236D01*
X136363000Y-98673637D01*
X136363000Y-98517000D01*
X136519637Y-98517000D01*
X136758236Y-98469540D01*
X136865765Y-98425000D01*
X137541000Y-98425000D01*
X137541000Y-97749765D01*
X137585540Y-97642236D01*
X137598764Y-97575750D01*
X137795000Y-97575750D01*
X137795000Y-98425000D01*
X138644250Y-98425000D01*
X138803000Y-98266250D01*
X138806072Y-98052000D01*
X138793812Y-97927518D01*
X138757502Y-97807820D01*
X138698537Y-97697506D01*
X138619185Y-97600815D01*
X138522494Y-97521463D01*
X138412180Y-97462498D01*
X138292482Y-97426188D01*
X138168000Y-97413928D01*
X137953750Y-97417000D01*
X137795000Y-97575750D01*
X137598764Y-97575750D01*
X137633000Y-97403637D01*
X137633000Y-97160363D01*
X137585540Y-96921764D01*
X137492443Y-96697008D01*
X137357287Y-96494733D01*
X137185267Y-96322713D01*
X136982992Y-96187557D01*
X136758236Y-96094460D01*
X136519637Y-96047000D01*
X136276363Y-96047000D01*
X136037764Y-96094460D01*
X135813008Y-96187557D01*
X135610733Y-96322713D01*
X135438713Y-96494733D01*
X135303557Y-96697008D01*
X135210460Y-96921764D01*
X135163000Y-97160363D01*
X135163000Y-97317000D01*
X135006363Y-97317000D01*
X134767764Y-97364460D01*
X134543008Y-97457557D01*
X134340733Y-97592713D01*
X134168713Y-97764733D01*
X134033557Y-97967008D01*
X133940460Y-98191764D01*
X133893000Y-98430363D01*
X78157879Y-98430363D01*
X78017134Y-98258866D01*
X77987313Y-98234393D01*
X78056180Y-98213502D01*
X78166494Y-98154537D01*
X78263185Y-98075185D01*
X78342537Y-97978494D01*
X78401502Y-97868180D01*
X78437812Y-97748482D01*
X78450072Y-97624000D01*
X78450072Y-96893413D01*
X117568192Y-96893413D01*
X117663956Y-97157814D01*
X117953571Y-97298704D01*
X118265108Y-97380384D01*
X118586595Y-97399718D01*
X118905675Y-97355961D01*
X119210088Y-97250795D01*
X119384044Y-97157814D01*
X119479808Y-96893413D01*
X118524000Y-95937605D01*
X117568192Y-96893413D01*
X78450072Y-96893413D01*
X78450072Y-95924000D01*
X78439888Y-95820595D01*
X116882282Y-95820595D01*
X116926039Y-96139675D01*
X117031205Y-96444088D01*
X117124186Y-96618044D01*
X117388587Y-96713808D01*
X118344395Y-95758000D01*
X118703605Y-95758000D01*
X119659413Y-96713808D01*
X119923814Y-96618044D01*
X120064704Y-96328429D01*
X120146384Y-96016892D01*
X120165718Y-95695405D01*
X120121961Y-95376325D01*
X120016795Y-95071912D01*
X119923814Y-94897956D01*
X119659413Y-94802192D01*
X118703605Y-95758000D01*
X118344395Y-95758000D01*
X117388587Y-94802192D01*
X117124186Y-94897956D01*
X116983296Y-95187571D01*
X116901616Y-95499108D01*
X116882282Y-95820595D01*
X78439888Y-95820595D01*
X78437812Y-95799518D01*
X78401502Y-95679820D01*
X78342537Y-95569506D01*
X78263185Y-95472815D01*
X78166494Y-95393463D01*
X78056180Y-95334498D01*
X77936482Y-95298188D01*
X77812000Y-95285928D01*
X76112000Y-95285928D01*
X76073000Y-95289769D01*
X76073000Y-94622587D01*
X117568192Y-94622587D01*
X118524000Y-95578395D01*
X119344395Y-94758000D01*
X126885928Y-94758000D01*
X126885928Y-96758000D01*
X126898188Y-96882482D01*
X126934498Y-97002180D01*
X126993463Y-97112494D01*
X127072815Y-97209185D01*
X127169506Y-97288537D01*
X127279820Y-97347502D01*
X127399518Y-97383812D01*
X127524000Y-97396072D01*
X129524000Y-97396072D01*
X129648482Y-97383812D01*
X129768180Y-97347502D01*
X129878494Y-97288537D01*
X129975185Y-97209185D01*
X130054537Y-97112494D01*
X130113502Y-97002180D01*
X130149812Y-96882482D01*
X130162072Y-96758000D01*
X130162072Y-95820947D01*
X167641000Y-95820947D01*
X167641000Y-96271053D01*
X167728811Y-96712510D01*
X167901059Y-97128353D01*
X168151125Y-97502603D01*
X168469397Y-97820875D01*
X168843647Y-98070941D01*
X169259490Y-98243189D01*
X169700947Y-98331000D01*
X170151053Y-98331000D01*
X170592510Y-98243189D01*
X171008353Y-98070941D01*
X171382603Y-97820875D01*
X171700875Y-97502603D01*
X171950941Y-97128353D01*
X172123189Y-96712510D01*
X172211000Y-96271053D01*
X172211000Y-95820947D01*
X172123189Y-95379490D01*
X171950941Y-94963647D01*
X171700875Y-94589397D01*
X171382603Y-94271125D01*
X171008353Y-94021059D01*
X170592510Y-93848811D01*
X170151053Y-93761000D01*
X169700947Y-93761000D01*
X169259490Y-93848811D01*
X168843647Y-94021059D01*
X168469397Y-94271125D01*
X168151125Y-94589397D01*
X167901059Y-94963647D01*
X167728811Y-95379490D01*
X167641000Y-95820947D01*
X130162072Y-95820947D01*
X130162072Y-94758000D01*
X130149812Y-94633518D01*
X130113502Y-94513820D01*
X130054537Y-94403506D01*
X129975185Y-94306815D01*
X129878494Y-94227463D01*
X129768180Y-94168498D01*
X129648482Y-94132188D01*
X129524000Y-94119928D01*
X127524000Y-94119928D01*
X127399518Y-94132188D01*
X127279820Y-94168498D01*
X127169506Y-94227463D01*
X127072815Y-94306815D01*
X126993463Y-94403506D01*
X126934498Y-94513820D01*
X126898188Y-94633518D01*
X126885928Y-94758000D01*
X119344395Y-94758000D01*
X119479808Y-94622587D01*
X119384044Y-94358186D01*
X119094429Y-94217296D01*
X118782892Y-94135616D01*
X118461405Y-94116282D01*
X118142325Y-94160039D01*
X117837912Y-94265205D01*
X117663956Y-94358186D01*
X117568192Y-94622587D01*
X76073000Y-94622587D01*
X76073000Y-88919098D01*
X76609000Y-88919098D01*
X76609000Y-89388902D01*
X76700654Y-89849679D01*
X76880440Y-90283721D01*
X77141450Y-90674349D01*
X77473651Y-91006550D01*
X77864279Y-91267560D01*
X78298321Y-91447346D01*
X78759098Y-91539000D01*
X79228902Y-91539000D01*
X79689679Y-91447346D01*
X80123721Y-91267560D01*
X80514349Y-91006550D01*
X80846550Y-90674349D01*
X81107560Y-90283721D01*
X81287346Y-89849679D01*
X81379000Y-89388902D01*
X81379000Y-88919098D01*
X179479000Y-88919098D01*
X179479000Y-89388902D01*
X179570654Y-89849679D01*
X179750440Y-90283721D01*
X180011450Y-90674349D01*
X180343651Y-91006550D01*
X180734279Y-91267560D01*
X181168321Y-91447346D01*
X181629098Y-91539000D01*
X182098902Y-91539000D01*
X182559679Y-91447346D01*
X182993721Y-91267560D01*
X183384349Y-91006550D01*
X183716550Y-90674349D01*
X183977560Y-90283721D01*
X184157346Y-89849679D01*
X184249000Y-89388902D01*
X184249000Y-88919098D01*
X184157346Y-88458321D01*
X183977560Y-88024279D01*
X183716550Y-87633651D01*
X183384349Y-87301450D01*
X182993721Y-87040440D01*
X182559679Y-86860654D01*
X182098902Y-86769000D01*
X181629098Y-86769000D01*
X181168321Y-86860654D01*
X180734279Y-87040440D01*
X180343651Y-87301450D01*
X180011450Y-87633651D01*
X179750440Y-88024279D01*
X179570654Y-88458321D01*
X179479000Y-88919098D01*
X81379000Y-88919098D01*
X81287346Y-88458321D01*
X81107560Y-88024279D01*
X80846550Y-87633651D01*
X80514349Y-87301450D01*
X80123721Y-87040440D01*
X79689679Y-86860654D01*
X79228902Y-86769000D01*
X78759098Y-86769000D01*
X78298321Y-86860654D01*
X77864279Y-87040440D01*
X77473651Y-87301450D01*
X77141450Y-87633651D01*
X76880440Y-88024279D01*
X76700654Y-88458321D01*
X76609000Y-88919098D01*
X76073000Y-88919098D01*
X76073000Y-85764000D01*
X85633928Y-85764000D01*
X85633928Y-87464000D01*
X85646188Y-87588482D01*
X85682498Y-87708180D01*
X85741463Y-87818494D01*
X85820815Y-87915185D01*
X85917506Y-87994537D01*
X86027820Y-88053502D01*
X86147518Y-88089812D01*
X86272000Y-88102072D01*
X87972000Y-88102072D01*
X88096482Y-88089812D01*
X88216180Y-88053502D01*
X88326494Y-87994537D01*
X88423185Y-87915185D01*
X88502537Y-87818494D01*
X88561502Y-87708180D01*
X88582393Y-87639313D01*
X88606866Y-87669134D01*
X88832986Y-87854706D01*
X89090966Y-87992599D01*
X89370889Y-88077513D01*
X89589050Y-88099000D01*
X89734950Y-88099000D01*
X89953111Y-88077513D01*
X90233034Y-87992599D01*
X90491014Y-87854706D01*
X90717134Y-87669134D01*
X90902706Y-87443014D01*
X91027254Y-87210000D01*
X119415928Y-87210000D01*
X119428188Y-87334482D01*
X119464498Y-87454180D01*
X119523463Y-87564494D01*
X119602815Y-87661185D01*
X119699506Y-87740537D01*
X119809820Y-87799502D01*
X119929518Y-87835812D01*
X120054000Y-87848072D01*
X120618250Y-87845000D01*
X120777000Y-87686250D01*
X120777000Y-86487000D01*
X121031000Y-86487000D01*
X121031000Y-87686250D01*
X121189750Y-87845000D01*
X121754000Y-87848072D01*
X121878482Y-87835812D01*
X121998180Y-87799502D01*
X122108494Y-87740537D01*
X122205185Y-87661185D01*
X122284537Y-87564494D01*
X122343502Y-87454180D01*
X122367966Y-87373534D01*
X122443731Y-87457588D01*
X122677080Y-87631641D01*
X122939901Y-87756825D01*
X123087110Y-87801476D01*
X123317000Y-87680155D01*
X123317000Y-86487000D01*
X123571000Y-86487000D01*
X123571000Y-87680155D01*
X123800890Y-87801476D01*
X123948099Y-87756825D01*
X124210920Y-87631641D01*
X124444269Y-87457588D01*
X124639178Y-87241355D01*
X124788157Y-86991252D01*
X124885481Y-86716891D01*
X124764814Y-86487000D01*
X123571000Y-86487000D01*
X123317000Y-86487000D01*
X121031000Y-86487000D01*
X120777000Y-86487000D01*
X119577750Y-86487000D01*
X119419000Y-86645750D01*
X119415928Y-87210000D01*
X91027254Y-87210000D01*
X91040599Y-87185034D01*
X91125513Y-86905111D01*
X91154185Y-86614000D01*
X91125513Y-86322889D01*
X91040599Y-86042966D01*
X90902706Y-85784986D01*
X90717134Y-85558866D01*
X90491014Y-85373294D01*
X90233034Y-85235401D01*
X89953111Y-85150487D01*
X89734950Y-85129000D01*
X89589050Y-85129000D01*
X89370889Y-85150487D01*
X89090966Y-85235401D01*
X88832986Y-85373294D01*
X88606866Y-85558866D01*
X88582393Y-85588687D01*
X88561502Y-85519820D01*
X88502537Y-85409506D01*
X88423185Y-85312815D01*
X88326494Y-85233463D01*
X88216180Y-85174498D01*
X88096482Y-85138188D01*
X87972000Y-85125928D01*
X86272000Y-85125928D01*
X86147518Y-85138188D01*
X86027820Y-85174498D01*
X85917506Y-85233463D01*
X85820815Y-85312815D01*
X85741463Y-85409506D01*
X85682498Y-85519820D01*
X85646188Y-85639518D01*
X85633928Y-85764000D01*
X76073000Y-85764000D01*
X76073000Y-84963000D01*
X119730306Y-84963000D01*
X119699506Y-84979463D01*
G04 #@! TD*
M02*
